<svg width="16" height="16" viewBox="0 0 16 16" fill="none" xmlns="http://www.w3.org/2000/svg">
<path d="M15 5.35715V11.0359C15 11.5741 14.7116 12.0712 14.2442 12.3382L9.24421 15.1954C8.78306 15.4589 8.21694 15.4589 7.75579 15.1954L2.75579 12.3382C2.28843 12.0712 2 11.5741 2 11.0359V5.35715C2 4.81886 2.28843 4.32184 2.75579 4.05478L7.75579 1.19764C8.21694 0.934121 8.78306 0.934121 9.24421 1.19764L14.2442 4.05478C14.7116 4.32184 15 4.81886 15 5.35715Z" fill="#2F2936" stroke="#B589EC"/>
<path d="M8.63437 11.6965C10.1233 11.6965 11.3996 10.7973 11.7138 9.52109H10.6986C10.3844 10.2511 9.60605 10.7732 8.63437 10.7732C7.29528 10.7732 6.32843 9.69995 6.32843 8.1965C6.32843 6.69305 7.29528 5.61984 8.63437 5.61984C9.60605 5.61984 10.3844 6.14194 10.6986 6.87191H11.7138C11.3996 5.59567 10.1233 4.6965 8.63437 4.6965C6.71517 4.6965 5.28906 6.19028 5.28906 8.1965C5.28906 10.2027 6.71517 11.6965 8.63437 11.6965Z" fill="#B589EC"/>
</svg>
