<svg width="16" height="16" viewBox="0 0 16 16" fill="none" xmlns="http://www.w3.org/2000/svg">
<path d="M10.8437 3.61719H8.23046C5.61328 3.61719 3 4.92578 3 8.84765C3 12.7695 5.61328 14.0977 8.2578 14.0899L10.8437 14.0781V11.4649H8.23046C8.23046 11.4649 5.71874 11.4649 5.66796 8.87499C5.61328 6.23437 8.23046 6.23437 8.23046 6.23437H10.8437V3.61719Z" fill="url(#paint0_radial_32_1138)" stroke="#055F25" stroke-width="1.00787" stroke-linecap="round" stroke-linejoin="round"/>
<path d="M11.1054 1H13.1992C13.3242 1 13.4609 1.14062 13.4609 1.26172V11.2031C13.4609 11.3242 13.3242 11.4649 13.1992 11.4649H8.23045C8.23045 11.4649 5.73827 11.4649 5.67577 8.82029C5.61327 6.23436 8.23045 6.23436 8.23045 6.23436H10.8437V1.26172C10.8437 1.14062 10.9843 1 11.1054 1Z" fill="url(#paint1_linear_32_1138)" stroke="#0D386B" stroke-width="1.00787"/>
<defs>
<radialGradient id="paint0_radial_32_1138" cx="0" cy="0" r="1" gradientUnits="userSpaceOnUse" gradientTransform="translate(10.95 7.74951) rotate(180) scale(8.36921 6.9787)">
<stop stop-color="#F0F8A0"/>
<stop offset="0.75" stop-color="#C1E0A4"/>
<stop offset="1" stop-color="#5AAB7B"/>
</radialGradient>
<linearGradient id="paint1_linear_32_1138" x1="7.18382" y1="11.2018" x2="11.6299" y2="3.87874" gradientUnits="userSpaceOnUse">
<stop stop-color="#0F5499"/>
<stop offset="1" stop-color="#0ED6FF"/>
</linearGradient>
</defs>
</svg>
