<svg width="16" height="16" viewBox="0 0 16 16" fill="none" xmlns="http://www.w3.org/2000/svg">
<g clip-path="url(#clip0_32_1142)">
<path d="M7.38462 3.05176e-05L8.15242 7.38533L4.87138 10.2413L4.86154 10.2371L0 14.4815L7.38462 3.05176e-05Z" fill="url(#paint0_linear_32_1142)"/>
<path d="M13.3848 9.48038C13.3848 9.56508 13.3796 9.64858 13.3693 9.73048C12.8405 9.26364 12.1457 8.98038 11.3848 8.98038C10.6239 8.98038 9.92907 9.26364 9.40027 9.73048C9.38997 9.64858 9.38477 9.56508 9.38477 9.48038C9.38477 8.37583 10.2802 7.48038 11.3848 7.48038C12.4894 7.48038 13.3848 8.37583 13.3848 9.48038Z" fill="#F2FCF3"/>
<path d="M13.3848 11.9804C13.3848 10.8758 12.4894 9.98038 11.3848 9.98038C10.2802 9.98038 9.38477 10.8758 9.38477 11.9804V12.4804C9.38477 13.585 10.2802 14.4804 11.3848 14.4804C12.4894 14.4804 13.3848 13.585 13.3848 12.4804V11.9804Z" fill="#F2FCF3"/>
<path fill-rule="evenodd" clip-rule="evenodd" d="M13.3848 9.48038C13.3848 9.56508 13.3795 9.64858 13.3693 9.73048C13.5085 9.85338 13.6363 9.98898 13.7506 10.1356L14.6074 9.56438C14.8373 9.41117 15.1477 9.47324 15.3009 9.70308C15.454 9.93278 15.392 10.2432 15.1621 10.3964L14.2276 11.0195C14.3295 11.3212 14.3848 11.6443 14.3848 11.9804V12.4804C14.3848 12.9667 14.2691 13.426 14.0637 13.8321L15.1621 14.5644C15.392 14.7175 15.454 15.028 15.3009 15.2577C15.1477 15.4875 14.8373 15.5496 14.6074 15.3964L13.4695 14.6377C12.9297 15.1594 12.1947 15.4804 11.3848 15.4804C10.5749 15.4804 9.83987 15.1594 9.30005 14.6377L8.16211 15.3964C7.93237 15.5496 7.62195 15.4875 7.46875 15.2577C7.31567 15.028 7.37768 14.7175 7.60742 14.5644L8.70581 13.8321C8.50049 13.426 8.38476 12.9667 8.38476 12.4804V11.9804C8.38476 11.6443 8.44006 11.3212 8.54199 11.0195L7.60742 10.3964C7.37768 10.2432 7.31567 9.93278 7.46875 9.70308C7.62195 9.47324 7.93237 9.41117 8.16211 9.56438L9.01892 10.1356C9.1333 9.98898 9.26111 9.85338 9.40027 9.73048C9.38997 9.64858 9.38476 9.56508 9.38476 9.48038C9.38476 8.37583 10.2802 7.48038 11.3848 7.48038C12.4894 7.48038 13.3848 8.37583 13.3848 9.48038ZM9.77647 13.6694C9.78177 13.6764 9.78697 13.6835 9.79227 13.6905C10.1576 14.1705 10.735 14.4804 11.3848 14.4804C12.0358 14.4804 12.614 14.1694 12.9793 13.6879C12.9833 13.6825 12.9873 13.6772 12.9914 13.6719C13.2386 13.3391 13.3848 12.9268 13.3848 12.4804V11.9804C13.3848 10.8758 12.4894 9.98038 11.3848 9.98038C10.2802 9.98038 9.38476 10.8758 9.38476 11.9804V12.4804C9.38476 12.9257 9.53037 13.337 9.77647 13.6694ZM10.448 9.12949C10.5901 8.75028 10.956 8.48038 11.3848 8.48038C11.8136 8.48038 12.1795 8.75028 12.3216 9.12949C12.0268 9.03269 11.7119 8.98038 11.3848 8.98038C11.0576 8.98038 10.7428 9.03269 10.448 9.12949Z" fill="#208A3C"/>
<path d="M6.89635 11.1088L4.86154 10.2371L0 14.4815H6.47023C6.57433 14.1856 6.77178 13.9197 7.05288 13.7323L7.49961 13.4345C7.4246 13.1283 7.38488 12.8086 7.38488 12.4804V11.9804C7.38488 11.8082 7.39582 11.6382 7.41708 11.4713L7.05288 11.2285C6.99742 11.1915 6.94522 11.1515 6.89635 11.1088Z" fill="url(#paint1_linear_32_1142)"/>
<path d="M10.7263 6.55289L7.38477 0L8.27176 8.53069C8.35289 8.55234 8.43292 8.58106 8.51097 8.61702C8.81993 7.58712 9.66737 6.79007 10.7263 6.55289Z" fill="url(#paint2_linear_32_1142)"/>
</g>
<defs>
<linearGradient id="paint0_linear_32_1142" x1="3.51832" y1="-5.77891" x2="-8.00488" y2="1.1296" gradientUnits="userSpaceOnUse">
<stop stop-color="#7777E9"/>
<stop offset="1" stop-color="#01009A"/>
</linearGradient>
<linearGradient id="paint1_linear_32_1142" x1="17.7234" y1="12.7058" x2="13.6936" y2="6.00178" gradientUnits="userSpaceOnUse">
<stop stop-color="#01B202"/>
<stop offset="1" stop-color="#0FE90F"/>
</linearGradient>
<linearGradient id="paint2_linear_32_1142" x1="3.79397" y1="7.63887" x2="15.3265" y2="13.3581" gradientUnits="userSpaceOnUse">
<stop stop-color="#B83535"/>
<stop offset="1" stop-color="#FD5B5A"/>
</linearGradient>
<clipPath id="clip0_32_1142">
<rect width="16" height="16" fill="white"/>
</clipPath>
</defs>
</svg>
