<svg width="16" height="16" viewBox="0 0 16 16" fill="none" xmlns="http://www.w3.org/2000/svg">
<path fill-rule="evenodd" clip-rule="evenodd" d="M1.1091 5.28862C1.08815 5.33845 1.06776 5.38857 1.04793 5.43898C0.965236 5.64924 0.992386 5.88502 1.1075 6.07944L2.00997 7.60376C2.15465 7.84811 2.15465 8.15189 2.00997 8.39625L1.1075 9.92057C0.992386 10.115 0.965236 10.3508 1.04793 10.561C1.06767 10.6112 1.08797 10.6611 1.10883 10.7107M1.1091 5.28862C1.33917 4.74151 1.63676 4.22979 1.99142 3.76389C2.02402 3.72108 2.05709 3.67865 2.09064 3.63661C2.23151 3.46012 2.44915 3.36585 2.67495 3.36832L4.44411 3.3877C4.46186 3.3879 4.47953 3.38749 4.49708 3.38648C4.76047 3.37145 4.99985 3.22346 5.13043 2.99146L5.99872 1.44875C5.99884 1.44854 5.9986 1.44896 5.99872 1.44875C6.10974 1.25193 6.30089 1.11006 6.52442 1.07676C6.57781 1.06881 6.63139 1.06146 6.68517 1.05472C6.97327 1.0186 7.26679 1 7.56463 1C7.86242 1 8.15589 1.01859 8.44394 1.0547C8.44422 1.05473 8.44366 1.05466 8.44394 1.0547C8.49743 1.06141 8.55158 1.06883 8.60469 1.07674C8.82808 1.11001 9.01878 1.25108 9.12984 1.44771C9.13003 1.44805 9.13022 1.44839 9.13041 1.44873L9.99875 2.99146C10.1379 3.23892 10.401 3.39081 10.685 3.3877L12.4543 3.36832C12.4544 3.36832 12.4541 3.36832 12.4543 3.36832C12.6799 3.36598 12.8978 3.46024 13.0386 3.63661C13.0718 3.67829 13.1046 3.72035 13.137 3.7628C13.1372 3.76316 13.1375 3.76353 13.1378 3.76389C13.4924 4.22975 13.79 4.74142 14.0201 5.28848C14.0202 5.28876 14.0199 5.28819 14.0201 5.28848C14.0409 5.33802 14.0615 5.38872 14.0812 5.43884C14.1639 5.64891 14.1368 5.88446 14.022 6.07878C14.0221 6.07861 14.0219 6.07896 14.022 6.07878L13.1191 7.60376C12.9744 7.84811 12.9744 8.15189 13.1191 8.39625L14.0217 9.92069C14.0217 9.92078 14.0216 9.92061 14.0217 9.92069C14.1366 10.1151 14.1639 10.351 14.0812 10.5612C14.0618 10.6106 14.0418 10.6598 14.0212 10.7087C14.0208 10.7097 14.0204 10.7106 14.0201 10.7115C13.79 11.2586 13.4924 11.7703 13.1378 12.2361C13.1052 12.2789 13.0721 12.3214 13.0386 12.3634C12.8977 12.5399 12.6801 12.6342 12.4543 12.6317L10.685 12.6123C10.6672 12.6121 10.6496 12.6125 10.632 12.6135C10.3686 12.6285 10.1292 12.7765 9.99875 13.0085L9.13041 14.5513C9.13053 14.5511 9.1303 14.5515 9.13041 14.5513C9.01939 14.7481 8.82823 14.89 8.60469 14.9233C8.55131 14.9312 8.49772 14.9386 8.44395 14.9453C8.15589 14.9814 7.86242 15 7.56463 15C7.26679 15 6.97327 14.9814 6.68516 14.9453C6.68462 14.9452 6.68408 14.9451 6.68354 14.9451C6.63031 14.9384 6.57727 14.9311 6.52442 14.9232C6.30065 14.8899 6.10969 14.7484 5.99872 14.5512L5.13043 13.0085C4.99115 12.7611 4.72807 12.6092 4.44411 12.6123L2.67495 12.6317C2.44915 12.6342 2.23151 12.5399 2.09065 12.3634C2.0571 12.3214 2.02402 12.2789 1.99143 12.2361C1.63676 11.7702 1.3389 11.2578 1.10883 10.7107M2.7871 4.36961C2.77007 4.39198 2.7532 4.41447 2.73648 4.43709C2.45452 4.81844 2.21688 5.23403 2.03092 5.67626L2.87047 7.0943C3.20115 7.65283 3.20115 8.34718 2.87047 8.9057L2.03092 10.3237C2.0421 10.3503 2.05348 10.3769 2.06504 10.4033C2.25703 10.8419 2.50016 11.2535 2.78711 11.6304L4.43316 11.6124C5.0822 11.6053 5.68352 11.9524 6.00188 12.5181L6.80954 13.953C6.81839 13.9542 6.82724 13.9552 6.8361 13.9563C7.07454 13.9851 7.31764 14 7.56463 14C7.82075 14 8.07269 13.984 8.31959 13.9531L9.12726 12.5181C9.44562 11.9524 10.0469 11.6053 10.6959 11.6124L12.3421 11.6304C12.3591 11.608 12.376 11.5855 12.3927 11.5629C12.6747 11.1816 12.9123 10.766 13.0982 10.3239L12.2586 8.9057C12.2173 8.83589 12.1811 8.76395 12.1501 8.69042C11.9331 8.17571 11.9693 7.58301 12.2586 7.0943L13.0982 5.67613C13.0871 5.64954 13.0757 5.62304 13.0641 5.59663C12.8722 5.15806 12.629 4.74652 12.3421 4.36961L10.6959 4.38764C10.0469 4.39475 9.44562 4.04758 9.12726 3.48194L8.31959 2.04693C8.31075 2.04583 8.30191 2.04474 8.29306 2.04367C8.05465 2.01487 7.81159 2 7.56463 2C7.30847 2 7.05649 2.016 6.80954 2.04695L6.00188 3.48194C5.68352 4.04758 5.0822 4.39475 4.43316 4.38764L2.7871 4.36961ZM7.56455 9.65101C8.47637 9.65101 9.21555 8.91183 9.21555 8.00001C9.21555 7.08819 8.47637 6.34902 7.56455 6.34902C6.65273 6.34902 5.91355 7.08819 5.91355 8.00001C5.91355 8.91183 6.65273 9.65101 7.56455 9.65101ZM10.2155 8.00001C10.2155 9.46412 9.02866 10.651 7.56455 10.651C6.10045 10.651 4.91355 9.46412 4.91355 8.00001C4.91355 6.53591 6.10045 5.34902 7.56455 5.34902C9.02866 5.34902 10.2155 6.53591 10.2155 8.00001Z" fill="#CED0D6"/>
</svg>
