<svg width="16" height="16" viewBox="0 0 16 16" fill="none" xmlns="http://www.w3.org/2000/svg">
<path d="M14.77 2.49999C14.58 2.17999 14.22 1.99999 13.78 1.99999H10.22C9.77001 1.99999 9.41001 2.17999 9.23001 2.49999C9.04001 2.81999 9.07001 3.22999 9.29001 3.60999L10.63 5.91999L10.61 5.93999L8.26001 8.98999H7.75001L5.70001 6.31999C6.19001 5.85999 6.51001 5.21999 6.51001 4.48999C6.51001 3.82695 6.24662 3.19106 5.77778 2.72222C5.30894 2.25338 4.67305 1.98999 4.01001 1.98999C3.34697 1.98999 2.71108 2.25338 2.24224 2.72222C1.7734 3.19106 1.51001 3.82695 1.51001 4.48999C1.51001 5.15303 1.7734 5.78892 2.24224 6.25776C2.71108 6.7266 3.34697 6.98999 4.01001 6.98999C4.30001 6.98999 4.58001 6.92999 4.84001 6.83999L6.50001 8.98999H6.07001C5.49001 8.98999 5.01001 9.45999 5.01001 10.05V12.93C5.01001 13.51 5.49001 13.99 6.07001 13.99H9.95001C10.53 13.99 11.01 13.52 11.01 12.93V10.05C11.01 9.46999 10.53 8.98999 9.95001 8.98999H9.52001L11.18 6.83999C11.4 7.12999 11.69 7.29999 12.01 7.29999C12.38 7.29999 12.72 7.07999 12.94 6.68999L14.72 3.60999C14.94 3.21999 14.96 2.81999 14.78 2.49999H14.77ZM2.50001 4.49999C2.50001 3.66999 3.17001 2.99999 4.00001 2.99999C4.83001 2.99999 5.50001 3.66999 5.50001 4.49999C5.50001 5.32999 4.83001 5.99999 4.00001 5.99999C3.17001 5.99999 2.50001 5.32999 2.50001 4.49999ZM10 10.06L9.94001 13H6.06001C6.06001 13 6.00001 12.97 6.00001 12.94L6.06001 9.99999L10 10.06ZM13.85 3.11999L12.07 6.19999C12.04 6.24999 12.01 6.27999 12.01 6.29999C11.99 6.27999 11.97 6.24999 11.93 6.19999L10.15 3.11999C10.12 3.06999 10.11 3.02999 10.09 3.01999C10.11 3.01999 10.15 2.99999 10.21 2.99999H13.88C13.88 3.01999 13.86 3.05999 13.83 3.11999H13.85Z" fill="black"/>
</svg>
