<svg width="16" height="16" viewBox="0 0 16 16" fill="none" xmlns="http://www.w3.org/2000/svg">
<path d="M10.5 12.94V10.06C10.5 9.98646 10.4855 9.91364 10.4574 9.8457C10.4292 9.77776 10.388 9.71602 10.336 9.66402C10.284 9.61202 10.2222 9.57077 10.1543 9.54263C10.0864 9.51448 10.0135 9.5 9.94 9.5H6.06C5.98646 9.5 5.91364 9.51448 5.8457 9.54263C5.77776 9.57077 5.71602 9.61202 5.66402 9.66402C5.61202 9.71602 5.57077 9.77776 5.54263 9.8457C5.51448 9.91364 5.5 9.98646 5.5 10.06V12.94C5.5 13.25 5.75 13.5 6.06 13.5H9.94C10.25 13.5 10.5 13.25 10.5 12.94ZM4 6.5C4.53043 6.5 5.03914 6.28929 5.41421 5.91421C5.78929 5.53914 6 5.03043 6 4.5C6 3.96957 5.78929 3.46086 5.41421 3.08579C5.03914 2.71071 4.53043 2.5 4 2.5C3.46957 2.5 2.96086 2.71071 2.58579 3.08579C2.21071 3.46086 2 3.96957 2 4.5C2 5.03043 2.21071 5.53914 2.58579 5.91421C2.96086 6.28929 3.46957 6.5 4 6.5ZM12.5 6.45C12.23 6.93 11.77 6.93 11.5 6.45L9.72 3.37C9.45 2.89 9.67 2.5 10.22 2.5H13.78C14.33 2.5 14.56 2.89 14.28 3.37L12.5 6.45Z" stroke="#CED0D6" stroke-miterlimit="10" stroke-linecap="round"/>
<path d="M7.5 9.5L5 6.25M11 6.25L8.5 9.5" stroke="#CED0D6" stroke-linecap="round" stroke-linejoin="round"/>
</svg>
