<svg width="16" height="16" viewBox="0 0 16 16" fill="none" xmlns="http://www.w3.org/2000/svg">
<path d="M14 6H10C9.75 6 9.52 6.1 9.34 6.26L7.95 5.22C7.97 5.15 7.99 5.08 7.99 5V3C7.99 2.45 7.54 2 6.99 2H3C2.45 2 2 2.45 2 3V5C2 5.55 2.45 6 3 6H7C7.09 6 7.18 5.97 7.26 5.95L9 7.25V8.75L7.26 10.05C7.17 10.03 7.09 10 7 10H3C2.45 10 2 10.45 2 11V13C2 13.55 2.45 14 3 14H7C7.55 14 8 13.55 8 13V11C8 10.92 7.97 10.86 7.96 10.78L9.35 9.74C9.53 9.9 9.75 10 10.01 10H14.01C14.56 10 15.01 9.55 15.01 9V7C15.01 6.45 14.56 6 14.01 6H14ZM7 5H3V3H7V5ZM7 13H3V11H7V13ZM14 9H10V7H14V9Z" fill="black"/>
</svg>
