<svg width="16" height="16" viewBox="0 0 16 16" fill="none" xmlns="http://www.w3.org/2000/svg">
<path fill-rule="evenodd" clip-rule="evenodd" d="M16 12.5C16 14.433 14.433 16 12.5 16C10.567 16 9 14.433 9 12.5C9 10.567 10.567 9 12.5 9C14.433 9 16 10.567 16 12.5ZM15 12.5C15 13.8807 13.8807 15 12.5 15C11.9905 15 11.5165 14.8476 11.1213 14.5858L14.5858 11.1213C14.8476 11.5165 15 11.9905 15 12.5ZM10.4142 13.8787L13.8787 10.4142C13.4835 10.1524 13.0096 10 12.5 10C11.1193 10 10 11.1193 10 12.5C10 13.0096 10.1524 13.4835 10.4142 13.8787Z" fill="#6C707E"/>
<path d="M7.5548 11C7.53661 10.9993 7.51834 10.999 7.5 10.999H5.4684C5.20698 10.9827 5 10.7655 5 10.5C5 10.2239 5.22386 10 5.5 10H8.75777C8.55127 10.3085 8.3819 10.644 8.25606 11H7.5548Z" fill="#6C707E"/>
<path d="M11.5 3H12C12.5523 3 13 3.44772 13 4V8.02746C13.3467 8.06579 13.6816 8.14352 14 8.25606V4C14 2.89543 13.1046 2 12 2H11.5C11.2239 2 11 2.22386 11 2.5C11 2.77614 11.2239 3 11.5 3Z" fill="#6C707E"/>
<path d="M10.9074 8.28994C10.7457 8.35113 10.5885 8.42135 10.4364 8.5H5.5C5.22386 8.5 5 8.27614 5 8C5 7.72386 5.22386 7.5 5.5 7.5H10.5C10.7761 7.5 11 7.72386 11 8C11 8.10809 10.9657 8.20817 10.9074 8.28994Z" fill="#6C707E"/>
<path d="M5.5 5C5.22386 5 5 5.22386 5 5.5C5 5.77614 5.22386 6 5.5 6H10.5C10.7761 6 11 5.77614 11 5.5C11 5.22386 10.7761 5 10.5 5H5.5Z" fill="#6C707E"/>
<path d="M4.5 13C4.77614 13 5 13.2239 5 13.5C5 13.7761 4.77614 14 4.5 14H4C2.89543 14 2 13.1046 2 12V4C2 2.89543 2.89543 2 4 2H4.5C4.77614 2 5 2.22386 5 2.5C5 2.77614 4.77614 3 4.5 3H4C3.44772 3 3 3.44772 3 4V12C3 12.5523 3.44772 13 4 13H4.5Z" fill="#6C707E"/>
</svg>
