<svg width="16" height="16" viewBox="0 0 16 16" fill="none" xmlns="http://www.w3.org/2000/svg">
<path fill-rule="evenodd" clip-rule="evenodd" d="M15 11.5C15 13.433 13.433 15 11.5 15C9.567 15 8 13.433 8 11.5C8 9.567 9.567 8 11.5 8C13.433 8 15 9.567 15 11.5ZM14 11.5C14 12.8807 12.8807 14 11.5 14C10.9905 14 10.5165 13.8476 10.1213 13.5858L13.5858 10.1213C13.8476 10.5165 14 10.9905 14 11.5ZM9.4142 12.8787L12.8787 9.4142C12.4835 9.1524 12.0096 9 11.5 9C10.1193 9 9 10.1193 9 11.5C9 12.0096 9.1524 12.4835 9.4142 12.8787Z" fill="#CED0D6"/>
<path d="M6.5548 10C6.53661 9.9993 6.51834 9.999 6.5 9.999H4.4684C4.20698 9.9827 4 9.7655 4 9.5C4 9.2239 4.22386 9 4.5 9H7.75777C7.55127 9.3085 7.3819 9.644 7.25606 10H6.5548Z" fill="#CED0D6"/>
<path d="M10.5 2H11C11.5523 2 12 2.44772 12 3V7.02746C12.3467 7.06579 12.6816 7.14352 13 7.25606V3C13 1.89543 12.1046 1 11 1H10.5C10.2239 1 10 1.22386 10 1.5C10 1.77614 10.2239 2 10.5 2Z" fill="#CED0D6"/>
<path d="M9.9074 7.28994C9.7457 7.35113 9.5885 7.42135 9.4364 7.5H4.5C4.22386 7.5 4 7.27614 4 7C4 6.72386 4.22386 6.5 4.5 6.5H9.5C9.7761 6.5 10 6.72386 10 7C10 7.10809 9.9657 7.20817 9.9074 7.28994Z" fill="#CED0D6"/>
<path d="M4.5 4C4.22386 4 4 4.22386 4 4.5C4 4.77614 4.22386 5 4.5 5H9.5C9.7761 5 10 4.77614 10 4.5C10 4.22386 9.7761 4 9.5 4H4.5Z" fill="#CED0D6"/>
<path d="M3.5 12C3.77614 12 4 12.2239 4 12.5C4 12.7761 3.77614 13 3.5 13H3C1.89543 13 1 12.1046 1 11V3C1 1.89543 1.89543 1 3 1H3.5C3.77614 1 4 1.22386 4 1.5C4 1.77614 3.77614 2 3.5 2H3C2.44772 2 2 2.44772 2 3V11C2 11.5523 2.44772 12 3 12H3.5Z" fill="#CED0D6"/>
</svg>
