<svg width="16" height="16" viewBox="0 0 16 16" fill="none" xmlns="http://www.w3.org/2000/svg">
<path d="M12.5 3H4.5C3.67157 3 3 3.67157 3 4.5V12.5C3 13.3284 3.67157 14 4.5 14H12.5C13.3284 14 14 13.3284 14 12.5V4.5C14 3.67157 13.3284 3 12.5 3Z" fill="#25324D" stroke="#CED0D6"/>
<path d="M3 9.83566L4.6822 8.16899C5.06052 7.79415 5.66625 7.78159 6.05979 8.14043L12.4861 14" stroke="#CED0D6"/>
<path d="M10.5 8C11.3284 8 12 7.32843 12 6.5C12 5.67157 11.3284 5 10.5 5C9.67157 5 9 5.67157 9 6.5C9 7.32843 9.67157 8 10.5 8Z" stroke="#CED0D6"/>
</svg>
