<svg width="16" height="16" viewBox="0 0 16 16" fill="none" xmlns="http://www.w3.org/2000/svg">
<path d="M3.60505 8.85501C3.87005 9.08501 3.99755 9.39251 3.98755 9.77751L3.95755 11.57C3.95255 12.06 4.05755 12.4875 4.27255 12.8525C4.49255 13.2225 4.80255 13.505 5.20255 13.7C5.60755 13.9 6.07755 14 6.61255 14H7.04999C7.12502 13.6303 7.28161 13.2905 7.5 12.9999V12.995H6.62005C6.14505 12.995 5.76755 12.8625 5.48755 12.5975C5.21255 12.3375 5.08005 11.9875 5.09005 11.5475L5.12005 9.77001C5.13005 9.30501 4.99255 8.91001 4.70755 8.58501C4.42255 8.25501 4.03755 8.04501 3.55255 7.95501C4.03755 7.92001 4.42255 7.74251 4.70755 7.42251C4.99255 7.09751 5.13005 6.68001 5.12005 6.17001L5.09005 4.6025C5.08505 4.1125 5.23255 3.725 5.53255 3.44C5.83755 3.15 6.25005 3.005 6.77005 3.005H7.5V2H6.76255C6.18755 2 5.68755 2.105 5.26255 2.315C4.83755 2.525 4.51005 2.825 4.28005 3.215C4.05505 3.605 3.94755 4.06 3.95755 4.58L3.98755 6.16251C3.99755 6.54751 3.87005 6.85501 3.60505 7.08501C3.34005 7.31501 2.98255 7.43001 2.53255 7.43001H2V8.51001H2.53255C2.98255 8.51001 3.34005 8.62501 3.60505 8.85501Z" fill="#834DF0"/>
<path d="M13.1336 7.40614C12.8894 7.56592 12.6749 7.76726 12.5001 8H12.2512C12.3154 7.98264 12.3815 7.96764 12.4495 7.95501C11.9645 7.92001 11.5795 7.74251 11.2945 7.42251C11.0095 7.09751 10.872 6.68001 10.882 6.17001L10.912 4.6025C10.917 4.1125 10.767 3.725 10.462 3.44C10.162 3.15 9.75205 3.005 9.23205 3.005H8.5V2H9.23955C9.81455 2 10.3145 2.105 10.7395 2.315C11.1645 2.525 11.4895 2.825 11.7145 3.215C11.9445 3.605 12.0545 4.06 12.0445 4.58L12.0145 6.16251C12.0045 6.54751 12.132 6.85501 12.397 7.08501C12.5923 7.25451 12.8379 7.36156 13.1336 7.40614Z" fill="#834DF0"/>
<path fill-rule="evenodd" clip-rule="evenodd" d="M14.4122 8.2929C14.0217 7.90237 13.3885 7.90237 12.998 8.2929L11.6466 9.64426L8 13.2908V15.9979H10.7071L15.7051 11C16.0956 10.6095 16.0956 9.97632 15.7051 9.58579L14.4122 8.2929ZM14 11.2908L14.998 10.2929L13.7051 9.00001L12.7071 9.99793L14 11.2908ZM12 10.7051L13.2929 11.9979L10.2929 14.9979H9V13.7051L12 10.7051Z" fill="#3574F0"/>
</svg>
