<svg width="16" height="16" viewBox="0 0 16 16" fill="none" xmlns="http://www.w3.org/2000/svg">
<path d="M6.5 2.00488H5.77051C5.25051 2.00488 4.83723 2.15043 4.53223 2.44043C4.23249 2.7254 4.08485 3.11275 4.08984 3.60254L4.12012 5.16992C4.13012 5.6799 3.99299 6.09786 3.70801 6.42285C3.42304 6.74281 3.03765 6.92005 2.55273 6.95508C3.03764 7.0451 3.42304 7.255 3.70801 7.58496C3.99279 7.90981 4.13001 8.30483 4.12012 8.76953L4.08984 10.5479C4.07992 10.9877 4.21241 11.3377 4.4873 11.5977C4.7673 11.8627 5.14512 11.9951 5.62012 11.9951H6.09961C6.17023 12.3448 6.27756 12.6809 6.41699 13H5.6123C5.07741 13 4.60709 12.9002 4.20215 12.7002C3.80227 12.5052 3.49242 12.2225 3.27246 11.8525C3.05751 11.4876 2.95306 11.0602 2.95801 10.5703L2.9873 8.77734C2.99726 8.39264 2.87012 8.08539 2.60547 7.85547C2.34047 7.62547 1.98223 7.50977 1.53223 7.50977H1V6.42969H1.53223C1.98223 6.42969 2.34047 6.31496 2.60547 6.08496C2.87029 5.85499 2.9973 5.54698 2.9873 5.16211L2.95801 3.58008C2.94801 3.06008 3.05527 2.60484 3.28027 2.21484C3.51026 1.82496 3.8378 1.52539 4.2627 1.31543C4.6877 1.10543 5.1877 1 5.7627 1H6.5V2.00488ZM8.23926 1C8.81425 1 9.31426 1.10544 9.73926 1.31543C10.1643 1.52543 10.4898 1.82484 10.7148 2.21484C10.9448 2.60484 11.0549 3.06009 11.0449 3.58008L11.0146 5.16211C11.0057 5.50747 11.108 5.79011 11.3203 6.01074C11.2144 6.00404 11.1076 6 11 6C10.6826 6 10.3723 6.03037 10.0713 6.08691C9.93967 5.82434 9.87498 5.51933 9.88184 5.16992L9.91211 3.60254C9.91711 3.11263 9.7668 2.72541 9.46191 2.44043C9.16199 2.1505 8.75225 2.00495 8.23242 2.00488H7.5V1H8.23926Z" fill="#B589EC"/>
<path fill-rule="evenodd" clip-rule="evenodd" d="M11 15C13.2091 15 15 13.2091 15 11C15 8.79086 13.2091 7 11 7C8.79086 7 7 8.79086 7 11C7 13.2091 8.79086 15 11 15ZM11.0001 8.66667C10.7056 8.66667 10.4668 8.90172 10.4668 9.19167C10.4668 9.48161 10.7056 9.71667 11.0001 9.71667C11.2947 9.71667 11.5335 9.48161 11.5335 9.19167C11.5335 8.90172 11.2947 8.66667 11.0001 8.66667ZM11.0001 10.1833C10.7056 10.1833 10.4668 10.4184 10.4668 10.7083V12.8083C10.4668 13.0983 10.7056 13.3333 11.0001 13.3333C11.2947 13.3333 11.5335 13.0983 11.5335 12.8083V10.7083C11.5335 10.4184 11.2947 10.1833 11.0001 10.1833Z" fill="#548AF7"/>
</svg>
