<svg width="16" height="16" viewBox="0 0 16 16" fill="none" xmlns="http://www.w3.org/2000/svg">
<path d="M2.60505 7.85501C2.87005 8.08501 2.99755 8.39251 2.98755 8.77751L2.95755 10.57C2.95255 11.06 3.05755 11.4875 3.27255 11.8525C3.49255 12.2225 3.80255 12.505 4.20255 12.7C4.60755 12.9 5.07755 13 5.61255 13H6.04999C6.12502 12.6303 6.28161 12.2905 6.5 11.9999V11.995H5.62005C5.14505 11.995 4.76755 11.8625 4.48755 11.5975C4.21255 11.3375 4.08005 10.9875 4.09005 10.5475L4.12005 8.77001C4.13005 8.30501 3.99255 7.91001 3.70755 7.58501C3.42255 7.25501 3.03755 7.04501 2.55255 6.95501C3.03755 6.92001 3.42255 6.74251 3.70755 6.42251C3.99255 6.09751 4.13005 5.68001 4.12005 5.17001L4.09005 3.6025C4.08505 3.1125 4.23255 2.725 4.53255 2.44C4.83755 2.15 5.25005 2.005 5.77005 2.005H6.5V1H5.76255C5.18755 1 4.68755 1.105 4.26255 1.315C3.83755 1.525 3.51005 1.825 3.28005 2.215C3.05505 2.605 2.94755 3.06 2.95755 3.58L2.98755 5.16251C2.99755 5.54751 2.87005 5.85501 2.60505 6.08501C2.34005 6.31501 1.98255 6.43001 1.53255 6.43001H1V7.51001H1.53255C1.98255 7.51001 2.34005 7.62501 2.60505 7.85501Z" fill="#834DF0"/>
<path d="M12.1336 6.40614C11.8894 6.56592 11.6749 6.76726 11.5001 7H11.2512C11.3154 6.98264 11.3815 6.96764 11.4495 6.95501C10.9645 6.92001 10.5795 6.74251 10.2945 6.42251C10.0095 6.09751 9.872 5.68001 9.882 5.17001L9.912 3.6025C9.917 3.1125 9.767 2.725 9.462 2.44C9.162 2.15 8.75205 2.005 8.23205 2.005H7.5V1H8.23955C8.81455 1 9.3145 1.105 9.7395 1.315C10.1645 1.525 10.4895 1.825 10.7145 2.215C10.9445 2.605 11.0545 3.06 11.0445 3.58L11.0145 5.16251C11.0045 5.54751 11.132 5.85501 11.397 6.08501C11.5923 6.25451 11.8379 6.36156 12.1336 6.40614Z" fill="#834DF0"/>
<mask id="mask0_31_176" style="mask-type:luminance" maskUnits="userSpaceOnUse" x="7" y="7" width="8" height="8">
<path d="M15 7H7V15H15V7Z" fill="white"/>
</mask>
<g mask="url(#mask0_31_176)">
<path d="M15 13.5C15 14.3284 14.3284 15 13.5 15C12.6716 15 12 14.3284 12 13.5C12 12.6716 12.6716 12 13.5 12C14.3284 12 15 12.6716 15 13.5Z" fill="#EBECF0"/>
<path d="M10 13.5C10 14.3284 9.3284 15 8.5 15C7.67157 15 7 14.3284 7 13.5C7 12.6716 7.67157 12 8.5 12C9.3284 12 10 12.6716 10 13.5Z" fill="#EBECF0"/>
<path d="M10 8.5C10 9.3284 9.3284 10 8.5 10C7.67157 10 7 9.3284 7 8.5C7 7.67157 7.67157 7 8.5 7C9.3284 7 10 7.67157 10 8.5Z" fill="#EBECF0"/>
<path d="M15 8.5C15 9.3284 14.3284 10 13.5 10C12.6716 10 12 9.3284 12 8.5C12 7.67157 12.6716 7 13.5 7C14.3284 7 15 7.67157 15 8.5Z" fill="#EBECF0"/>
<path fill-rule="evenodd" clip-rule="evenodd" d="M9.9146 8C9.7087 7.4174 9.1531 7 8.5 7C7.67157 7 7 7.67157 7 8.5C7 9.1531 7.4174 9.7087 8 9.9146V12.0854C7.4174 12.2913 7 12.8469 7 13.5C7 14.3284 7.67157 15 8.5 15C9.1531 15 9.7087 14.5826 9.9146 14H12.0854C12.2913 14.5826 12.8469 15 13.5 15C14.3284 15 15 14.3284 15 13.5C15 12.8469 14.5826 12.2913 14 12.0854V9.9146C14.5826 9.7087 15 9.1531 15 8.5C15 7.67157 14.3284 7 13.5 7C12.8469 7 12.2913 7.4174 12.0854 8H9.9146ZM9 8.5C9 8.77614 8.77614 9 8.5 9C8.22386 9 8 8.77614 8 8.5C8 8.22386 8.22386 8 8.5 8C8.77614 8 9 8.22386 9 8.5ZM9 9.9146V12.0854C9.4262 12.236 9.764 12.5738 9.9146 13H12.0854C12.236 12.5738 12.5738 12.236 13 12.0854V9.9146C12.5738 9.764 12.236 9.4262 12.0854 9H9.9146C9.764 9.4262 9.4262 9.764 9 9.9146ZM8.5 14C8.77614 14 9 13.7761 9 13.5C9 13.2239 8.77614 13 8.5 13C8.22386 13 8 13.2239 8 13.5C8 13.7761 8.22386 14 8.5 14ZM13.5 14C13.7761 14 14 13.7761 14 13.5C14 13.2239 13.7761 13 13.5 13C13.2239 13 13 13.2239 13 13.5C13 13.7761 13.2239 14 13.5 14ZM13.5 9C13.7761 9 14 8.77614 14 8.5C14 8.22386 13.7761 8 13.5 8C13.2239 8 13 8.22386 13 8.5C13 8.77614 13.2239 9 13.5 9Z" fill="#6C707E"/>
</g>
</svg>
