<svg width="16" height="16" viewBox="0 0 16 16" fill="none" xmlns="http://www.w3.org/2000/svg">
<path d="M4.93934 2.35356C4.84557 2.25979 4.71839 2.20711 4.58579 2.20711H2.5C2.22386 2.20711 2 2.43097 2 2.70711V12.7071C2 12.9832 2.22386 13.2071 2.5 13.2071H4.5C4.77614 13.2071 5 12.9832 5 12.7071V7.70711V6.5L5.85355 7.35356L8.5 10L11.1464 7.35356L12 6.5V7.70711V12.7071C12 12.9832 12.2239 13.2071 12.5 13.2071H14.5C14.7761 13.2071 15 12.9832 15 12.7071V2.70711C15 2.43097 14.7761 2.20711 14.5 2.20711H12.4142C12.2816 2.20711 12.1544 2.25979 12.0607 2.35356L8.85355 5.56066L8.5 5.91422L8.14645 5.56066L4.93934 2.35356ZM4.93934 2.35356L5.29289 2" stroke="#3574F0"/>
</svg>
