<?xml version="1.0" encoding="UTF-8"?>
<svg xmlns="http://www.w3.org/2000/svg" xmlns:xlink="http://www.w3.org/1999/xlink" width="16px" height="16px" viewBox="0 0 16 16" version="1.1">
<defs>
<filter id="alpha" filterUnits="objectBoundingBox" x="0%" y="0%" width="100%" height="100%">
  <feColorMatrix type="matrix" in="SourceGraphic" values="0 0 0 0 1 0 0 0 0 1 0 0 0 0 1 0 0 0 1 0"/>
</filter>
<mask id="mask0">
  <g filter="url(#alpha)">
<rect x="0" y="0" width="16" height="16" style="fill:rgb(0%,0%,0%);fill-opacity:0.501961;stroke:none;"/>
  </g>
</mask>
<clipPath id="clip1">
  <rect x="0" y="0" width="16" height="16"/>
</clipPath>
<g id="surface5" clip-path="url(#clip1)">
<path style=" stroke:none;fill-rule:nonzero;fill:rgb(81.568629%,83.137256%,84.705883%);fill-opacity:1;" d="M 10.21875 13.714844 L 11.117188 13.714844 C 11.289062 13.714844 11.429688 13.855469 11.429688 14.027344 L 11.429688 14.164062 C 11.429688 14.335938 11.289062 14.476562 11.117188 14.476562 L 10.21875 14.476562 C 10.042969 14.476562 9.90625 14.335938 9.90625 14.164062 L 9.90625 14.027344 C 9.90625 13.855469 10.042969 13.714844 10.21875 13.714844 Z M 10.21875 13.714844 "/>
</g>
<mask id="mask1">
  <g filter="url(#alpha)">
<rect x="0" y="0" width="16" height="16" style="fill:rgb(0%,0%,0%);fill-opacity:0.501961;stroke:none;"/>
  </g>
</mask>
<clipPath id="clip2">
  <rect x="0" y="0" width="16" height="16"/>
</clipPath>
<g id="surface8" clip-path="url(#clip2)">
<path style=" stroke:none;fill-rule:nonzero;fill:rgb(81.568629%,83.137256%,84.705883%);fill-opacity:1;" d="M 5.644531 13.714844 L 8.832031 13.714844 C 9.003906 13.714844 9.144531 13.855469 9.144531 14.027344 L 9.144531 14.164062 C 9.144531 14.335938 9.003906 14.476562 8.832031 14.476562 L 5.644531 14.476562 C 5.472656 14.476562 5.332031 14.335938 5.332031 14.164062 L 5.332031 14.027344 C 5.332031 13.855469 5.472656 13.714844 5.644531 13.714844 Z M 5.644531 13.714844 "/>
</g>
<mask id="mask2">
  <g filter="url(#alpha)">
<rect x="0" y="0" width="16" height="16" style="fill:rgb(0%,0%,0%);fill-opacity:0.501961;stroke:none;"/>
  </g>
</mask>
<clipPath id="clip3">
  <rect x="0" y="0" width="16" height="16"/>
</clipPath>
<g id="surface11" clip-path="url(#clip3)">
<path style=" stroke:none;fill-rule:nonzero;fill:rgb(81.568629%,83.137256%,84.705883%);fill-opacity:1;" d="M 12.503906 13.714844 L 15.6875 13.714844 C 15.859375 13.714844 16 13.855469 16 14.027344 L 16 14.164062 C 16 14.335938 15.859375 14.476562 15.6875 14.476562 L 12.503906 14.476562 C 12.332031 14.476562 12.191406 14.335938 12.191406 14.164062 L 12.191406 14.027344 C 12.191406 13.855469 12.332031 13.714844 12.503906 13.714844 Z M 12.503906 13.714844 "/>
</g>
<mask id="mask3">
  <g filter="url(#alpha)">
<rect x="0" y="0" width="16" height="16" style="fill:rgb(0%,0%,0%);fill-opacity:0.501961;stroke:none;"/>
  </g>
</mask>
<clipPath id="clip4">
  <rect x="0" y="0" width="16" height="16"/>
</clipPath>
<g id="surface14" clip-path="url(#clip4)">
<path style=" stroke:none;fill-rule:nonzero;fill:rgb(81.568629%,83.137256%,84.705883%);fill-opacity:1;" d="M 10.980469 0 L 15.6875 0 C 15.859375 0 16 0.140625 16 0.3125 L 16 0.449219 C 16 0.621094 15.859375 0.761719 15.6875 0.761719 L 10.980469 0.761719 C 10.804688 0.761719 10.667969 0.621094 10.667969 0.449219 L 10.667969 0.3125 C 10.667969 0.140625 10.804688 0 10.980469 0 Z M 10.980469 0 "/>
</g>
<mask id="mask4">
  <g filter="url(#alpha)">
<rect x="0" y="0" width="16" height="16" style="fill:rgb(0%,0%,0%);fill-opacity:0.501961;stroke:none;"/>
  </g>
</mask>
<clipPath id="clip5">
  <rect x="0" y="0" width="16" height="16"/>
</clipPath>
<g id="surface17" clip-path="url(#clip5)">
<path style=" stroke:none;fill-rule:nonzero;fill:rgb(81.568629%,83.137256%,84.705883%);fill-opacity:1;" d="M 10.980469 10.667969 L 12.640625 10.667969 C 12.8125 10.667969 12.953125 10.804688 12.953125 10.980469 L 12.953125 11.117188 C 12.953125 11.289062 12.8125 11.429688 12.640625 11.429688 L 10.980469 11.429688 C 10.804688 11.429688 10.667969 11.289062 10.667969 11.117188 L 10.667969 10.980469 C 10.667969 10.804688 10.804688 10.667969 10.980469 10.667969 Z M 10.980469 10.667969 "/>
</g>
<mask id="mask5">
  <g filter="url(#alpha)">
<rect x="0" y="0" width="16" height="16" style="fill:rgb(0%,0%,0%);fill-opacity:0.501961;stroke:none;"/>
  </g>
</mask>
<clipPath id="clip6">
  <rect x="0" y="0" width="16" height="16"/>
</clipPath>
<g id="surface20" clip-path="url(#clip6)">
<path style=" stroke:none;fill-rule:nonzero;fill:rgb(81.568629%,83.137256%,84.705883%);fill-opacity:1;" d="M 14.027344 10.667969 L 15.6875 10.667969 C 15.859375 10.667969 16 10.804688 16 10.980469 L 16 11.117188 C 16 11.289062 15.859375 11.429688 15.6875 11.429688 L 14.027344 11.429688 C 13.855469 11.429688 13.714844 11.289062 13.714844 11.117188 L 13.714844 10.980469 C 13.714844 10.804688 13.855469 10.667969 14.027344 10.667969 Z M 14.027344 10.667969 "/>
</g>
<mask id="mask6">
  <g filter="url(#alpha)">
<rect x="0" y="0" width="16" height="16" style="fill:rgb(0%,0%,0%);fill-opacity:0.501961;stroke:none;"/>
  </g>
</mask>
<clipPath id="clip7">
  <rect x="0" y="0" width="16" height="16"/>
</clipPath>
<g id="surface23" clip-path="url(#clip7)">
<path style=" stroke:none;fill-rule:nonzero;fill:rgb(81.568629%,83.137256%,84.705883%);fill-opacity:1;" d="M 13.265625 9.144531 L 15.6875 9.144531 C 15.859375 9.144531 16 9.28125 16 9.457031 L 16 9.59375 C 16 9.765625 15.859375 9.90625 15.6875 9.90625 L 13.265625 9.90625 C 13.09375 9.90625 12.953125 9.765625 12.953125 9.59375 L 12.953125 9.457031 C 12.953125 9.28125 13.09375 9.144531 13.265625 9.144531 Z M 13.265625 9.144531 "/>
</g>
<mask id="mask7">
  <g filter="url(#alpha)">
<rect x="0" y="0" width="16" height="16" style="fill:rgb(0%,0%,0%);fill-opacity:0.501961;stroke:none;"/>
  </g>
</mask>
<clipPath id="clip8">
  <rect x="0" y="0" width="16" height="16"/>
</clipPath>
<g id="surface26" clip-path="url(#clip8)">
<path style=" stroke:none;fill-rule:nonzero;fill:rgb(81.568629%,83.137256%,84.705883%);fill-opacity:1;" d="M 13.265625 1.523438 L 15.6875 1.523438 C 15.859375 1.523438 16 1.664062 16 1.835938 L 16 1.972656 C 16 2.144531 15.859375 2.285156 15.6875 2.285156 L 13.265625 2.285156 C 13.09375 2.285156 12.953125 2.144531 12.953125 1.972656 L 12.953125 1.835938 C 12.953125 1.664062 13.09375 1.523438 13.265625 1.523438 Z M 13.265625 1.523438 "/>
</g>
<mask id="mask8">
  <g filter="url(#alpha)">
<rect x="0" y="0" width="16" height="16" style="fill:rgb(0%,0%,0%);fill-opacity:0.501961;stroke:none;"/>
  </g>
</mask>
<clipPath id="clip9">
  <rect x="0" y="0" width="16" height="16"/>
</clipPath>
<g id="surface29" clip-path="url(#clip9)">
<path style=" stroke:none;fill-rule:nonzero;fill:rgb(81.568629%,83.137256%,84.705883%);fill-opacity:1;" d="M 14.027344 7.617188 L 15.6875 7.617188 C 15.859375 7.617188 16 7.757812 16 7.929688 L 16 8.070312 C 16 8.242188 15.859375 8.382812 15.6875 8.382812 L 14.027344 8.382812 C 13.855469 8.382812 13.714844 8.242188 13.714844 8.070312 L 13.714844 7.929688 C 13.714844 7.757812 13.855469 7.617188 14.027344 7.617188 Z M 14.027344 7.617188 "/>
</g>
<mask id="mask9">
  <g filter="url(#alpha)">
<rect x="0" y="0" width="16" height="16" style="fill:rgb(0%,0%,0%);fill-opacity:0.501961;stroke:none;"/>
  </g>
</mask>
<clipPath id="clip10">
  <rect x="0" y="0" width="16" height="16"/>
</clipPath>
<g id="surface32" clip-path="url(#clip10)">
<path style=" stroke:none;fill-rule:nonzero;fill:rgb(81.568629%,83.137256%,84.705883%);fill-opacity:1;" d="M 14.027344 3.046875 L 15.6875 3.046875 C 15.859375 3.046875 16 3.1875 16 3.359375 L 16 3.496094 C 16 3.667969 15.859375 3.808594 15.6875 3.808594 L 14.027344 3.808594 C 13.855469 3.808594 13.714844 3.667969 13.714844 3.496094 L 13.714844 3.359375 C 13.714844 3.1875 13.855469 3.046875 14.027344 3.046875 Z M 14.027344 3.046875 "/>
</g>
<mask id="mask10">
  <g filter="url(#alpha)">
<rect x="0" y="0" width="16" height="16" style="fill:rgb(0%,0%,0%);fill-opacity:0.501961;stroke:none;"/>
  </g>
</mask>
<clipPath id="clip11">
  <rect x="0" y="0" width="16" height="16"/>
</clipPath>
<g id="surface35" clip-path="url(#clip11)">
<path style=" stroke:none;fill-rule:nonzero;fill:rgb(81.568629%,83.137256%,84.705883%);fill-opacity:1;" d="M 14.789062 4.570312 L 15.6875 4.570312 C 15.859375 4.570312 16 4.710938 16 4.882812 L 16 5.019531 C 16 5.195312 15.859375 5.332031 15.6875 5.332031 L 14.789062 5.332031 C 14.617188 5.332031 14.476562 5.195312 14.476562 5.019531 L 14.476562 4.882812 C 14.476562 4.710938 14.617188 4.570312 14.789062 4.570312 Z M 14.789062 4.570312 "/>
</g>
<mask id="mask11">
  <g filter="url(#alpha)">
<rect x="0" y="0" width="16" height="16" style="fill:rgb(0%,0%,0%);fill-opacity:0.501961;stroke:none;"/>
  </g>
</mask>
<clipPath id="clip12">
  <rect x="0" y="0" width="16" height="16"/>
</clipPath>
<g id="surface38" clip-path="url(#clip12)">
<path style=" stroke:none;fill-rule:nonzero;fill:rgb(81.568629%,83.137256%,84.705883%);fill-opacity:1;" d="M 14.789062 6.09375 L 15.6875 6.09375 C 15.859375 6.09375 16 6.234375 16 6.40625 L 16 6.542969 C 16 6.71875 15.859375 6.855469 15.6875 6.855469 L 14.789062 6.855469 C 14.617188 6.855469 14.476562 6.71875 14.476562 6.542969 L 14.476562 6.40625 C 14.476562 6.234375 14.617188 6.09375 14.789062 6.09375 Z M 14.789062 6.09375 "/>
</g>
<mask id="mask12">
  <g filter="url(#alpha)">
<rect x="0" y="0" width="16" height="16" style="fill:rgb(0%,0%,0%);fill-opacity:0.501961;stroke:none;"/>
  </g>
</mask>
<clipPath id="clip13">
  <rect x="0" y="0" width="16" height="16"/>
</clipPath>
<g id="surface41" clip-path="url(#clip13)">
<path style=" stroke:none;fill-rule:nonzero;fill:rgb(81.568629%,83.137256%,84.705883%);fill-opacity:1;" d="M 8.695312 12.191406 L 15.6875 12.191406 C 15.859375 12.191406 16 12.332031 16 12.503906 L 16 12.640625 C 16 12.8125 15.859375 12.953125 15.6875 12.953125 L 8.695312 12.953125 C 8.519531 12.953125 8.382812 12.8125 8.382812 12.640625 L 8.382812 12.503906 C 8.382812 12.332031 8.519531 12.191406 8.695312 12.191406 Z M 8.695312 12.191406 "/>
</g>
<mask id="mask13">
  <g filter="url(#alpha)">
<rect x="0" y="0" width="16" height="16" style="fill:rgb(0%,0%,0%);fill-opacity:0.501961;stroke:none;"/>
  </g>
</mask>
<clipPath id="clip14">
  <rect x="0" y="0" width="16" height="16"/>
</clipPath>
<g id="surface44" clip-path="url(#clip14)">
<path style=" stroke:none;fill-rule:nonzero;fill:rgb(81.568629%,83.137256%,84.705883%);fill-opacity:1;" d="M 5.644531 12.191406 L 7.304688 12.191406 C 7.480469 12.191406 7.617188 12.332031 7.617188 12.503906 L 7.617188 12.640625 C 7.617188 12.8125 7.480469 12.953125 7.304688 12.953125 L 5.644531 12.953125 C 5.472656 12.953125 5.332031 12.8125 5.332031 12.640625 L 5.332031 12.503906 C 5.332031 12.332031 5.472656 12.191406 5.644531 12.191406 Z M 5.644531 12.191406 "/>
</g>
<mask id="mask14">
  <g filter="url(#alpha)">
<rect x="0" y="0" width="16" height="16" style="fill:rgb(0%,0%,0%);fill-opacity:0.501961;stroke:none;"/>
  </g>
</mask>
<clipPath id="clip15">
  <rect x="0" y="0" width="16" height="16"/>
</clipPath>
<g id="surface47" clip-path="url(#clip15)">
<path style=" stroke:none;fill-rule:nonzero;fill:rgb(81.568629%,83.137256%,84.705883%);fill-opacity:1;" d="M 11.742188 15.238281 L 15.6875 15.238281 C 15.859375 15.238281 16 15.378906 16 15.550781 L 16 15.6875 C 16 15.859375 15.859375 16 15.6875 16 L 11.742188 16 C 11.570312 16 11.429688 15.859375 11.429688 15.6875 L 11.429688 15.550781 C 11.429688 15.378906 11.570312 15.238281 11.742188 15.238281 Z M 11.742188 15.238281 "/>
</g>
<mask id="mask15">
  <g filter="url(#alpha)">
<rect x="0" y="0" width="16" height="16" style="fill:rgb(0%,0%,0%);fill-opacity:0.501961;stroke:none;"/>
  </g>
</mask>
<clipPath id="clip16">
  <rect x="0" y="0" width="16" height="16"/>
</clipPath>
<g id="surface50" clip-path="url(#clip16)">
<path style=" stroke:none;fill-rule:nonzero;fill:rgb(81.568629%,83.137256%,84.705883%);fill-opacity:1;" d="M 5.644531 15.238281 L 10.355469 15.238281 C 10.527344 15.238281 10.667969 15.378906 10.667969 15.550781 L 10.667969 15.6875 C 10.667969 15.859375 10.527344 16 10.355469 16 L 5.644531 16 C 5.472656 16 5.332031 15.859375 5.332031 15.6875 L 5.332031 15.550781 C 5.332031 15.378906 5.472656 15.238281 5.644531 15.238281 Z M 5.644531 15.238281 "/>
</g>
<mask id="mask16">
  <g filter="url(#alpha)">
<rect x="0" y="0" width="16" height="16" style="fill:rgb(0%,0%,0%);fill-opacity:0.501961;stroke:none;"/>
  </g>
</mask>
<clipPath id="clip17">
  <rect x="0" y="0" width="16" height="16"/>
</clipPath>
<g id="surface53" clip-path="url(#clip17)">
<path style=" stroke:none;fill-rule:nonzero;fill:rgb(81.568629%,83.137256%,84.705883%);fill-opacity:1;" d="M 5.644531 4.570312 L 8.070312 4.570312 C 8.242188 4.570312 8.382812 4.710938 8.382812 4.882812 L 8.382812 5.019531 C 8.382812 5.195312 8.242188 5.332031 8.070312 5.332031 L 5.644531 5.332031 C 5.472656 5.332031 5.332031 5.195312 5.332031 5.019531 L 5.332031 4.882812 C 5.332031 4.710938 5.472656 4.570312 5.644531 4.570312 Z M 5.644531 4.570312 "/>
</g>
<mask id="mask17">
  <g filter="url(#alpha)">
<rect x="0" y="0" width="16" height="16" style="fill:rgb(0%,0%,0%);fill-opacity:0.501961;stroke:none;"/>
  </g>
</mask>
<clipPath id="clip18">
  <rect x="0" y="0" width="16" height="16"/>
</clipPath>
<g id="surface56" clip-path="url(#clip18)">
<path style=" stroke:none;fill-rule:nonzero;fill:rgb(81.568629%,83.137256%,84.705883%);fill-opacity:1;" d="M 5.644531 6.09375 L 8.070312 6.09375 C 8.242188 6.09375 8.382812 6.234375 8.382812 6.40625 L 8.382812 6.542969 C 8.382812 6.71875 8.242188 6.855469 8.070312 6.855469 L 5.644531 6.855469 C 5.472656 6.855469 5.332031 6.71875 5.332031 6.542969 L 5.332031 6.40625 C 5.332031 6.234375 5.472656 6.09375 5.644531 6.09375 Z M 5.644531 6.09375 "/>
</g>
</defs>
<g id="surface1">
<path style=" stroke:none;fill-rule:nonzero;fill:rgb(33.725491%,70.19608%,70.588237%);fill-opacity:1;" d="M 11.742188 3.046875 L 12.640625 3.046875 C 12.8125 3.046875 12.953125 3.1875 12.953125 3.359375 L 12.953125 3.496094 C 12.953125 3.667969 12.8125 3.808594 12.640625 3.808594 L 11.742188 3.808594 C 11.570312 3.808594 11.429688 3.667969 11.429688 3.496094 L 11.429688 3.359375 C 11.429688 3.1875 11.570312 3.046875 11.742188 3.046875 Z M 11.742188 3.046875 "/>
<path style=" stroke:none;fill-rule:nonzero;fill:rgb(91.764706%,36.862746%,36.862746%);fill-opacity:1;" d="M 0.3125 15.238281 L 4.257812 15.238281 C 4.429688 15.238281 4.570312 15.378906 4.570312 15.550781 L 4.570312 15.6875 C 4.570312 15.859375 4.429688 16 4.257812 16 L 0.3125 16 C 0.140625 16 0 15.859375 0 15.6875 L 0 15.550781 C 0 15.378906 0.140625 15.238281 0.3125 15.238281 Z M 0.3125 15.238281 "/>
<path style=" stroke:none;fill-rule:nonzero;fill:rgb(74.901962%,52.156866%,74.901962%);fill-opacity:1;" d="M 9.457031 9.144531 L 11.878906 9.144531 C 12.050781 9.144531 12.191406 9.28125 12.191406 9.457031 L 12.191406 9.59375 C 12.191406 9.765625 12.050781 9.90625 11.878906 9.90625 L 9.457031 9.90625 C 9.28125 9.90625 9.144531 9.765625 9.144531 9.59375 L 9.144531 9.457031 C 9.144531 9.28125 9.28125 9.144531 9.457031 9.144531 Z M 9.457031 9.144531 "/>
<path style=" stroke:none;fill-rule:nonzero;fill:rgb(91.764706%,36.862746%,36.862746%);fill-opacity:1;" d="M 4.882812 9.144531 L 8.070312 9.144531 C 8.242188 9.144531 8.382812 9.28125 8.382812 9.457031 L 8.382812 9.59375 C 8.382812 9.765625 8.242188 9.90625 8.070312 9.90625 L 4.882812 9.90625 C 4.710938 9.90625 4.570312 9.765625 4.570312 9.59375 L 4.570312 9.457031 C 4.570312 9.28125 4.710938 9.144531 4.882812 9.144531 Z M 4.882812 9.144531 "/>
<path style=" stroke:none;fill-rule:nonzero;fill:rgb(33.725491%,70.19608%,70.588237%);fill-opacity:1;" d="M 0.3125 9.144531 L 3.496094 9.144531 C 3.667969 9.144531 3.808594 9.28125 3.808594 9.457031 L 3.808594 9.59375 C 3.808594 9.765625 3.667969 9.90625 3.496094 9.90625 L 0.3125 9.90625 C 0.140625 9.90625 0 9.765625 0 9.59375 L 0 9.457031 C 0 9.28125 0.140625 9.144531 0.3125 9.144531 Z M 0.3125 9.144531 "/>
<path style=" stroke:none;fill-rule:nonzero;fill:rgb(74.901962%,52.156866%,74.901962%);fill-opacity:1;" d="M 0.3125 12.191406 L 4.257812 12.191406 C 4.429688 12.191406 4.570312 12.332031 4.570312 12.503906 L 4.570312 12.640625 C 4.570312 12.8125 4.429688 12.953125 4.257812 12.953125 L 0.3125 12.953125 C 0.140625 12.953125 0 12.8125 0 12.640625 L 0 12.503906 C 0 12.332031 0.140625 12.191406 0.3125 12.191406 Z M 0.3125 12.191406 "/>
<path style=" stroke:none;fill-rule:nonzero;fill:rgb(74.901962%,52.156866%,74.901962%);fill-opacity:1;" d="M 0.3125 6.09375 L 4.257812 6.09375 C 4.429688 6.09375 4.570312 6.234375 4.570312 6.40625 L 4.570312 6.542969 C 4.570312 6.71875 4.429688 6.855469 4.257812 6.855469 L 0.3125 6.855469 C 0.140625 6.855469 0 6.71875 0 6.542969 L 0 6.40625 C 0 6.234375 0.140625 6.09375 0.3125 6.09375 Z M 0.3125 6.09375 "/>
<path style=" stroke:none;fill-rule:nonzero;fill:rgb(96.862745%,72.941178%,24.313726%);fill-opacity:1;" d="M 4.121094 1.523438 L 11.878906 1.523438 C 12.050781 1.523438 12.191406 1.664062 12.191406 1.835938 L 12.191406 1.972656 C 12.191406 2.144531 12.050781 2.285156 11.878906 2.285156 L 4.121094 2.285156 C 3.949219 2.285156 3.808594 2.144531 3.808594 1.972656 L 3.808594 1.835938 C 3.808594 1.664062 3.949219 1.523438 4.121094 1.523438 Z M 4.121094 1.523438 "/>
<path style=" stroke:none;fill-rule:nonzero;fill:rgb(91.764706%,36.862746%,36.862746%);fill-opacity:1;" d="M 0.3125 1.523438 L 2.734375 1.523438 C 2.90625 1.523438 3.046875 1.664062 3.046875 1.835938 L 3.046875 1.972656 C 3.046875 2.144531 2.90625 2.285156 2.734375 2.285156 L 0.3125 2.285156 C 0.140625 2.285156 0 2.144531 0 1.972656 L 0 1.835938 C 0 1.664062 0.140625 1.523438 0.3125 1.523438 Z M 0.3125 1.523438 "/>
<path style=" stroke:none;fill-rule:nonzero;fill:rgb(96.862745%,72.941178%,24.313726%);fill-opacity:1;" d="M 3.359375 13.714844 L 4.257812 13.714844 C 4.429688 13.714844 4.570312 13.855469 4.570312 14.027344 L 4.570312 14.164062 C 4.570312 14.335938 4.429688 14.476562 4.257812 14.476562 L 3.359375 14.476562 C 3.1875 14.476562 3.046875 14.335938 3.046875 14.164062 L 3.046875 14.027344 C 3.046875 13.855469 3.1875 13.714844 3.359375 13.714844 Z M 3.359375 13.714844 "/>
<path style=" stroke:none;fill-rule:nonzero;fill:rgb(33.725491%,70.19608%,70.588237%);fill-opacity:1;" d="M 3.359375 4.570312 L 4.257812 4.570312 C 4.429688 4.570312 4.570312 4.710938 4.570312 4.882812 L 4.570312 5.019531 C 4.570312 5.195312 4.429688 5.332031 4.257812 5.332031 L 3.359375 5.332031 C 3.1875 5.332031 3.046875 5.195312 3.046875 5.019531 L 3.046875 4.882812 C 3.046875 4.710938 3.1875 4.570312 3.359375 4.570312 Z M 3.359375 4.570312 "/>
<path style=" stroke:none;fill-rule:nonzero;fill:rgb(33.725491%,70.19608%,70.588237%);fill-opacity:1;" d="M 0.3125 13.714844 L 1.972656 13.714844 C 2.144531 13.714844 2.285156 13.855469 2.285156 14.027344 L 2.285156 14.164062 C 2.285156 14.335938 2.144531 14.476562 1.972656 14.476562 L 0.3125 14.476562 C 0.140625 14.476562 0 14.335938 0 14.164062 L 0 14.027344 C 0 13.855469 0.140625 13.714844 0.3125 13.714844 Z M 0.3125 13.714844 "/>
<path style=" stroke:none;fill-rule:nonzero;fill:rgb(96.862745%,72.941178%,24.313726%);fill-opacity:1;" d="M 0.3125 4.570312 L 1.972656 4.570312 C 2.144531 4.570312 2.285156 4.710938 2.285156 4.882812 L 2.285156 5.019531 C 2.285156 5.195312 2.144531 5.332031 1.972656 5.332031 L 0.3125 5.332031 C 0.140625 5.332031 0 5.195312 0 5.019531 L 0 4.882812 C 0 4.710938 0.140625 4.570312 0.3125 4.570312 Z M 0.3125 4.570312 "/>
<use xlink:href="#surface5" mask="url(#mask0)"/>
<use xlink:href="#surface8" mask="url(#mask1)"/>
<use xlink:href="#surface11" mask="url(#mask2)"/>
<path style=" stroke:none;fill-rule:nonzero;fill:rgb(33.725491%,70.19608%,70.588237%);fill-opacity:1;" d="M 6.40625 7.617188 L 12.640625 7.617188 C 12.8125 7.617188 12.953125 7.757812 12.953125 7.929688 L 12.953125 8.070312 C 12.953125 8.242188 12.8125 8.382812 12.640625 8.382812 L 6.40625 8.382812 C 6.234375 8.382812 6.09375 8.242188 6.09375 8.070312 L 6.09375 7.929688 C 6.09375 7.757812 6.234375 7.617188 6.40625 7.617188 Z M 6.40625 7.617188 "/>
<path style=" stroke:none;fill-rule:nonzero;fill:rgb(96.862745%,72.941178%,24.313726%);fill-opacity:1;" d="M 2.597656 7.617188 L 5.019531 7.617188 C 5.195312 7.617188 5.332031 7.757812 5.332031 7.929688 L 5.332031 8.070312 C 5.332031 8.242188 5.195312 8.382812 5.019531 8.382812 L 2.597656 8.382812 C 2.425781 8.382812 2.285156 8.242188 2.285156 8.070312 L 2.285156 7.929688 C 2.285156 7.757812 2.425781 7.617188 2.597656 7.617188 Z M 2.597656 7.617188 "/>
<path style=" stroke:none;fill-rule:nonzero;fill:rgb(91.764706%,36.862746%,36.862746%);fill-opacity:1;" d="M 0.3125 7.617188 L 1.210938 7.617188 C 1.382812 7.617188 1.523438 7.757812 1.523438 7.929688 L 1.523438 8.070312 C 1.523438 8.242188 1.382812 8.382812 1.210938 8.382812 L 0.3125 8.382812 C 0.140625 8.382812 0 8.242188 0 8.070312 L 0 7.929688 C 0 7.757812 0.140625 7.617188 0.3125 7.617188 Z M 0.3125 7.617188 "/>
<path style=" stroke:none;fill-rule:nonzero;fill:rgb(74.901962%,52.156866%,74.901962%);fill-opacity:1;" d="M 7.167969 3.046875 L 10.355469 3.046875 C 10.527344 3.046875 10.667969 3.1875 10.667969 3.359375 L 10.667969 3.496094 C 10.667969 3.667969 10.527344 3.808594 10.355469 3.808594 L 7.167969 3.808594 C 6.996094 3.808594 6.855469 3.667969 6.855469 3.496094 L 6.855469 3.359375 C 6.855469 3.1875 6.996094 3.046875 7.167969 3.046875 Z M 7.167969 3.046875 "/>
<path style=" stroke:none;fill-rule:nonzero;fill:rgb(33.725491%,70.19608%,70.588237%);fill-opacity:1;" d="M 0.3125 3.046875 L 5.78125 3.046875 C 5.957031 3.046875 6.09375 3.1875 6.09375 3.359375 L 6.09375 3.496094 C 6.09375 3.667969 5.957031 3.808594 5.78125 3.808594 L 0.3125 3.808594 C 0.140625 3.808594 0 3.667969 0 3.496094 L 0 3.359375 C 0 3.1875 0.140625 3.046875 0.3125 3.046875 Z M 0.3125 3.046875 "/>
<path style=" stroke:none;fill-rule:nonzero;fill:rgb(96.862745%,72.941178%,24.313726%);fill-opacity:1;" d="M 2.597656 10.667969 L 9.59375 10.667969 C 9.765625 10.667969 9.90625 10.804688 9.90625 10.980469 L 9.90625 11.117188 C 9.90625 11.289062 9.765625 11.429688 9.59375 11.429688 L 2.597656 11.429688 C 2.425781 11.429688 2.285156 11.289062 2.285156 11.117188 L 2.285156 10.980469 C 2.285156 10.804688 2.425781 10.667969 2.597656 10.667969 Z M 2.597656 10.667969 "/>
<path style=" stroke:none;fill-rule:nonzero;fill:rgb(74.901962%,52.156866%,74.901962%);fill-opacity:1;" d="M 0.3125 10.667969 L 1.210938 10.667969 C 1.382812 10.667969 1.523438 10.804688 1.523438 10.980469 L 1.523438 11.117188 C 1.523438 11.289062 1.382812 11.429688 1.210938 11.429688 L 0.3125 11.429688 C 0.140625 11.429688 0 11.289062 0 11.117188 L 0 10.980469 C 0 10.804688 0.140625 10.667969 0.3125 10.667969 Z M 0.3125 10.667969 "/>
<path style=" stroke:none;fill-rule:nonzero;fill:rgb(91.764706%,36.862746%,36.862746%);fill-opacity:1;" d="M 9.457031 4.570312 L 13.402344 4.570312 C 13.574219 4.570312 13.714844 4.710938 13.714844 4.882812 L 13.714844 5.019531 C 13.714844 5.195312 13.574219 5.332031 13.402344 5.332031 L 9.457031 5.332031 C 9.28125 5.332031 9.144531 5.195312 9.144531 5.019531 L 9.144531 4.882812 C 9.144531 4.710938 9.28125 4.570312 9.457031 4.570312 Z M 9.457031 4.570312 "/>
<path style=" stroke:none;fill-rule:nonzero;fill:rgb(96.862745%,72.941178%,24.313726%);fill-opacity:1;" d="M 9.457031 6.09375 L 13.402344 6.09375 C 13.574219 6.09375 13.714844 6.234375 13.714844 6.40625 L 13.714844 6.542969 C 13.714844 6.71875 13.574219 6.855469 13.402344 6.855469 L 9.457031 6.855469 C 9.28125 6.855469 9.144531 6.71875 9.144531 6.542969 L 9.144531 6.40625 C 9.144531 6.234375 9.28125 6.09375 9.457031 6.09375 Z M 9.457031 6.09375 "/>
<path style=" stroke:none;fill-rule:nonzero;fill:rgb(33.725491%,70.19608%,70.588237%);fill-opacity:1;" d="M 0.3125 0 L 9.59375 0 C 9.765625 0 9.90625 0.140625 9.90625 0.3125 L 9.90625 0.449219 C 9.90625 0.621094 9.765625 0.761719 9.59375 0.761719 L 0.3125 0.761719 C 0.140625 0.761719 0 0.621094 0 0.449219 L 0 0.3125 C 0 0.140625 0.140625 0 0.3125 0 Z M 0.3125 0 "/>
<use xlink:href="#surface14" mask="url(#mask3)"/>
<use xlink:href="#surface17" mask="url(#mask4)"/>
<use xlink:href="#surface20" mask="url(#mask5)"/>
<use xlink:href="#surface23" mask="url(#mask6)"/>
<use xlink:href="#surface26" mask="url(#mask7)"/>
<use xlink:href="#surface29" mask="url(#mask8)"/>
<use xlink:href="#surface32" mask="url(#mask9)"/>
<use xlink:href="#surface35" mask="url(#mask10)"/>
<use xlink:href="#surface38" mask="url(#mask11)"/>
<use xlink:href="#surface41" mask="url(#mask12)"/>
<use xlink:href="#surface44" mask="url(#mask13)"/>
<use xlink:href="#surface47" mask="url(#mask14)"/>
<use xlink:href="#surface50" mask="url(#mask15)"/>
<use xlink:href="#surface53" mask="url(#mask16)"/>
<use xlink:href="#surface56" mask="url(#mask17)"/>
</g>
</svg>
