<svg width="16" height="16" viewBox="0 0 16 16" fill="none" xmlns="http://www.w3.org/2000/svg">
<path d="M10.8066 4.28516H11.4805C11.6094 4.28516 11.7148 4.39062 11.7148 4.51953V4.62207C11.7148 4.75098 11.6094 4.85645 11.4805 4.85645H10.8066C10.6777 4.85645 10.5723 4.75098 10.5723 4.62207V4.51953C10.5723 4.39062 10.6777 4.28516 10.8066 4.28516Z" fill="#6BE7E8"/>
<path d="M2.23438 13.4287H5.19336C5.32227 13.4287 5.42773 13.5342 5.42773 13.6631V13.7656C5.42773 13.8945 5.32227 14 5.19336 14H2.23438C2.10547 14 2 13.8945 2 13.7656V13.6631C2 13.5342 2.10547 13.4287 2.23438 13.4287Z" fill="#FF6C6C"/>
<path d="M9.09277 8.8584H10.9092C11.0381 8.8584 11.1436 8.96094 11.1436 9.09277V9.19531C11.1436 9.32422 11.0381 9.42969 10.9092 9.42969H9.09277C8.96094 9.42969 8.8584 9.32422 8.8584 9.19531V9.09277C8.8584 8.96094 8.96094 8.8584 9.09277 8.8584Z" fill="#FFB8FF"/>
<path d="M5.66211 8.8584H8.05273C8.18164 8.8584 8.28711 8.96094 8.28711 9.09277V9.19531C8.28711 9.32422 8.18164 9.42969 8.05273 9.42969H5.66211C5.5332 9.42969 5.42773 9.32422 5.42773 9.19531V9.09277C5.42773 8.96094 5.5332 8.8584 5.66211 8.8584Z" fill="#FF6C6C"/>
<path d="M2.23438 8.8584H4.62207C4.75098 8.8584 4.85645 8.96094 4.85645 9.09277V9.19531C4.85645 9.32422 4.75098 9.42969 4.62207 9.42969H2.23438C2.10547 9.42969 2 9.32422 2 9.19531V9.09277C2 8.96094 2.10547 8.8584 2.23438 8.8584Z" fill="#6BE7E8"/>
<path d="M2.23438 11.1436H5.19336C5.32227 11.1436 5.42773 11.249 5.42773 11.3779V11.4805C5.42773 11.6094 5.32227 11.7148 5.19336 11.7148H2.23438C2.10547 11.7148 2 11.6094 2 11.4805V11.3779C2 11.249 2.10547 11.1436 2.23438 11.1436Z" fill="#FFB8FF"/>
<path d="M2.23438 6.57031H5.19336C5.32227 6.57031 5.42773 6.67578 5.42773 6.80469V6.90723C5.42773 7.03906 5.32227 7.1416 5.19336 7.1416H2.23438C2.10547 7.1416 2 7.03906 2 6.90723V6.80469C2 6.67578 2.10547 6.57031 2.23438 6.57031Z" fill="#FFB8FF"/>
<path d="M5.09082 3.14258H10.9092C11.0381 3.14258 11.1436 3.24805 11.1436 3.37695V3.47949C11.1436 3.6084 11.0381 3.71387 10.9092 3.71387H5.09082C4.96191 3.71387 4.85645 3.6084 4.85645 3.47949V3.37695C4.85645 3.24805 4.96191 3.14258 5.09082 3.14258Z" fill="#FFBE3B"/>
<path d="M2.23438 3.14258H4.05078C4.17969 3.14258 4.28516 3.24805 4.28516 3.37695V3.47949C4.28516 3.6084 4.17969 3.71387 4.05078 3.71387H2.23438C2.10547 3.71387 2 3.6084 2 3.47949V3.37695C2 3.24805 2.10547 3.14258 2.23438 3.14258Z" fill="#FF6C6C"/>
<path d="M4.51953 12.2861H5.19336C5.32227 12.2861 5.42773 12.3916 5.42773 12.5205V12.623C5.42773 12.752 5.32227 12.8574 5.19336 12.8574H4.51953C4.39062 12.8574 4.28516 12.752 4.28516 12.623V12.5205C4.28516 12.3916 4.39062 12.2861 4.51953 12.2861Z" fill="#FFBE3B"/>
<path d="M4.51953 5.42773H5.19336C5.32227 5.42773 5.42773 5.5332 5.42773 5.66211V5.76465C5.42773 5.89648 5.32227 5.99902 5.19336 5.99902H4.51953C4.39062 5.99902 4.28516 5.89648 4.28516 5.76465V5.66211C4.28516 5.5332 4.39062 5.42773 4.51953 5.42773Z" fill="#6BE7E8"/>
<path d="M2.23438 12.2861H3.47949C3.6084 12.2861 3.71387 12.3916 3.71387 12.5205V12.623C3.71387 12.752 3.6084 12.8574 3.47949 12.8574H2.23438C2.10547 12.8574 2 12.752 2 12.623V12.5205C2 12.3916 2.10547 12.2861 2.23438 12.2861Z" fill="#6BE7E8"/>
<path d="M2.23438 5.42773H3.47949C3.6084 5.42773 3.71387 5.5332 3.71387 5.66211V5.76465C3.71387 5.89648 3.6084 5.99902 3.47949 5.99902H2.23438C2.10547 5.99902 2 5.89648 2 5.76465V5.66211C2 5.5332 2.10547 5.42773 2.23438 5.42773Z" fill="#FFBE3B"/>
<mask id="mask0_31_479" style="mask-type:luminance" maskUnits="userSpaceOnUse" x="2" y="2" width="12" height="12">
<path d="M14 2H2V14H14V2Z" fill="black" fill-opacity="0.501961"/>
</mask>
<g mask="url(#mask0_31_479)">
<mask id="mask1_31_479" style="mask-type:luminance" maskUnits="userSpaceOnUse" x="2" y="2" width="12" height="12">
<path d="M14 2H2V14H14V2Z" fill="white"/>
</mask>
<g mask="url(#mask1_31_479)">
<path d="M9.66406 12.2861H10.3379C10.4668 12.2861 10.5723 12.3916 10.5723 12.5205V12.623C10.5723 12.752 10.4668 12.8574 10.3379 12.8574H9.66406C9.53223 12.8574 9.42969 12.752 9.42969 12.623V12.5205C9.42969 12.3916 9.53223 12.2861 9.66406 12.2861Z" fill="white"/>
</g>
</g>
<mask id="mask2_31_479" style="mask-type:luminance" maskUnits="userSpaceOnUse" x="2" y="2" width="12" height="12">
<path d="M14 2H2V14H14V2Z" fill="black" fill-opacity="0.501961"/>
</mask>
<g mask="url(#mask2_31_479)">
<mask id="mask3_31_479" style="mask-type:luminance" maskUnits="userSpaceOnUse" x="2" y="2" width="12" height="12">
<path d="M14 2H2V14H14V2Z" fill="white"/>
</mask>
<g mask="url(#mask3_31_479)">
<path d="M6.2334 12.2861H8.62402C8.75293 12.2861 8.8584 12.3916 8.8584 12.5205V12.623C8.8584 12.752 8.75293 12.8574 8.62402 12.8574H6.2334C6.10449 12.8574 5.99902 12.752 5.99902 12.623V12.5205C5.99902 12.3916 6.10449 12.2861 6.2334 12.2861Z" fill="white"/>
</g>
</g>
<mask id="mask4_31_479" style="mask-type:luminance" maskUnits="userSpaceOnUse" x="2" y="2" width="12" height="12">
<path d="M14 2H2V14H14V2Z" fill="black" fill-opacity="0.501961"/>
</mask>
<g mask="url(#mask4_31_479)">
<mask id="mask5_31_479" style="mask-type:luminance" maskUnits="userSpaceOnUse" x="2" y="2" width="12" height="12">
<path d="M14 2H2V14H14V2Z" fill="white"/>
</mask>
<g mask="url(#mask5_31_479)">
<path d="M11.3779 12.2861H13.7656C13.8945 12.2861 14 12.3916 14 12.5205V12.623C14 12.752 13.8945 12.8574 13.7656 12.8574H11.3779C11.249 12.8574 11.1436 12.752 11.1436 12.623V12.5205C11.1436 12.3916 11.249 12.2861 11.3779 12.2861Z" fill="white"/>
</g>
</g>
<path d="M6.80469 7.71289H11.4805C11.6094 7.71289 11.7148 7.81836 11.7148 7.94727V8.05273C11.7148 8.18164 11.6094 8.28711 11.4805 8.28711H6.80469C6.67578 8.28711 6.57031 8.18164 6.57031 8.05273V7.94727C6.57031 7.81836 6.67578 7.71289 6.80469 7.71289Z" fill="#6BE7E8"/>
<path d="M3.94824 7.71289H5.76465C5.89648 7.71289 5.99902 7.81836 5.99902 7.94727V8.05273C5.99902 8.18164 5.89648 8.28711 5.76465 8.28711H3.94824C3.81934 8.28711 3.71387 8.18164 3.71387 8.05273V7.94727C3.71387 7.81836 3.81934 7.71289 3.94824 7.71289Z" fill="#FFBE3B"/>
<path d="M2.23438 7.71289H2.9082C3.03711 7.71289 3.14258 7.81836 3.14258 7.94727V8.05273C3.14258 8.18164 3.03711 8.28711 2.9082 8.28711H2.23438C2.10547 8.28711 2 8.18164 2 8.05273V7.94727C2 7.81836 2.10547 7.71289 2.23438 7.71289Z" fill="#FF6C6C"/>
<path d="M7.37598 4.28516H9.7666C9.89551 4.28516 10.001 4.39062 10.001 4.51953V4.62207C10.001 4.75098 9.89551 4.85645 9.7666 4.85645H7.37598C7.24707 4.85645 7.1416 4.75098 7.1416 4.62207V4.51953C7.1416 4.39062 7.24707 4.28516 7.37598 4.28516Z" fill="#FFB8FF"/>
<path d="M2.23438 4.28516H6.33594C6.46777 4.28516 6.57031 4.39062 6.57031 4.51953V4.62207C6.57031 4.75098 6.46777 4.85645 6.33594 4.85645H2.23438C2.10547 4.85645 2 4.75098 2 4.62207V4.51953C2 4.39062 2.10547 4.28516 2.23438 4.28516Z" fill="#6BE7E8"/>
<path d="M3.94824 10.001H9.19531C9.32422 10.001 9.42969 10.1035 9.42969 10.2354V10.3379C9.42969 10.4668 9.32422 10.5723 9.19531 10.5723H3.94824C3.81934 10.5723 3.71387 10.4668 3.71387 10.3379V10.2354C3.71387 10.1035 3.81934 10.001 3.94824 10.001Z" fill="#FFBE3B"/>
<path d="M2.23438 10.001H2.9082C3.03711 10.001 3.14258 10.1035 3.14258 10.2354V10.3379C3.14258 10.4668 3.03711 10.5723 2.9082 10.5723H2.23438C2.10547 10.5723 2 10.4668 2 10.3379V10.2354C2 10.1035 2.10547 10.001 2.23438 10.001Z" fill="#FFB8FF"/>
<path d="M9.09277 5.42773H12.0518C12.1807 5.42773 12.2861 5.5332 12.2861 5.66211V5.76465C12.2861 5.89648 12.1807 5.99902 12.0518 5.99902H9.09277C8.96094 5.99902 8.8584 5.89648 8.8584 5.76465V5.66211C8.8584 5.5332 8.96094 5.42773 9.09277 5.42773Z" fill="#FF6C6C"/>
<path d="M9.09277 6.57031H12.0518C12.1807 6.57031 12.2861 6.67578 12.2861 6.80469V6.90723C12.2861 7.03906 12.1807 7.1416 12.0518 7.1416H9.09277C8.96094 7.1416 8.8584 7.03906 8.8584 6.90723V6.80469C8.8584 6.67578 8.96094 6.57031 9.09277 6.57031Z" fill="#FFBE3B"/>
<path d="M2.23438 2H9.19531C9.32422 2 9.42969 2.10547 9.42969 2.23438V2.33691C9.42969 2.46582 9.32422 2.57129 9.19531 2.57129H2.23438C2.10547 2.57129 2 2.46582 2 2.33691V2.23438C2 2.10547 2.10547 2 2.23438 2Z" fill="#6BE7E8"/>
<mask id="mask6_31_479" style="mask-type:luminance" maskUnits="userSpaceOnUse" x="2" y="2" width="12" height="12">
<path d="M14 2H2V14H14V2Z" fill="black" fill-opacity="0.501961"/>
</mask>
<g mask="url(#mask6_31_479)">
<mask id="mask7_31_479" style="mask-type:luminance" maskUnits="userSpaceOnUse" x="2" y="2" width="12" height="12">
<path d="M14 2H2V14H14V2Z" fill="white"/>
</mask>
<g mask="url(#mask7_31_479)">
<path d="M10.2354 2H13.7656C13.8945 2 14 2.10547 14 2.23438V2.33691C14 2.46582 13.8945 2.57129 13.7656 2.57129H10.2354C10.1035 2.57129 10.001 2.46582 10.001 2.33691V2.23438C10.001 2.10547 10.1035 2 10.2354 2Z" fill="white"/>
</g>
</g>
<mask id="mask8_31_479" style="mask-type:luminance" maskUnits="userSpaceOnUse" x="2" y="2" width="12" height="12">
<path d="M14 2H2V14H14V2Z" fill="black" fill-opacity="0.501961"/>
</mask>
<g mask="url(#mask8_31_479)">
<mask id="mask9_31_479" style="mask-type:luminance" maskUnits="userSpaceOnUse" x="2" y="2" width="12" height="12">
<path d="M14 2H2V14H14V2Z" fill="white"/>
</mask>
<g mask="url(#mask9_31_479)">
<path d="M10.2354 10.001H11.4805C11.6094 10.001 11.7148 10.1035 11.7148 10.2354V10.3379C11.7148 10.4668 11.6094 10.5723 11.4805 10.5723H10.2354C10.1035 10.5723 10.001 10.4668 10.001 10.3379V10.2354C10.001 10.1035 10.1035 10.001 10.2354 10.001Z" fill="white"/>
</g>
</g>
<mask id="mask10_31_479" style="mask-type:luminance" maskUnits="userSpaceOnUse" x="2" y="2" width="12" height="12">
<path d="M14 2H2V14H14V2Z" fill="black" fill-opacity="0.501961"/>
</mask>
<g mask="url(#mask10_31_479)">
<mask id="mask11_31_479" style="mask-type:luminance" maskUnits="userSpaceOnUse" x="2" y="2" width="12" height="12">
<path d="M14 2H2V14H14V2Z" fill="white"/>
</mask>
<g mask="url(#mask11_31_479)">
<path d="M12.5205 10.001H13.7656C13.8945 10.001 14 10.1035 14 10.2354V10.3379C14 10.4668 13.8945 10.5723 13.7656 10.5723H12.5205C12.3916 10.5723 12.2861 10.4668 12.2861 10.3379V10.2354C12.2861 10.1035 12.3916 10.001 12.5205 10.001Z" fill="white"/>
</g>
</g>
<mask id="mask12_31_479" style="mask-type:luminance" maskUnits="userSpaceOnUse" x="2" y="2" width="12" height="12">
<path d="M14 2H2V14H14V2Z" fill="black" fill-opacity="0.501961"/>
</mask>
<g mask="url(#mask12_31_479)">
<mask id="mask13_31_479" style="mask-type:luminance" maskUnits="userSpaceOnUse" x="2" y="2" width="12" height="12">
<path d="M14 2H2V14H14V2Z" fill="white"/>
</mask>
<g mask="url(#mask13_31_479)">
<path d="M11.9492 8.8584H13.7656C13.8945 8.8584 14 8.96094 14 9.09277V9.19531C14 9.32422 13.8945 9.42969 13.7656 9.42969H11.9492C11.8203 9.42969 11.7148 9.32422 11.7148 9.19531V9.09277C11.7148 8.96094 11.8203 8.8584 11.9492 8.8584Z" fill="white"/>
</g>
</g>
<mask id="mask14_31_479" style="mask-type:luminance" maskUnits="userSpaceOnUse" x="2" y="2" width="12" height="12">
<path d="M14 2H2V14H14V2Z" fill="black" fill-opacity="0.501961"/>
</mask>
<g mask="url(#mask14_31_479)">
<mask id="mask15_31_479" style="mask-type:luminance" maskUnits="userSpaceOnUse" x="2" y="2" width="12" height="12">
<path d="M14 2H2V14H14V2Z" fill="white"/>
</mask>
<g mask="url(#mask15_31_479)">
<path d="M11.9492 3.14258H13.7656C13.8945 3.14258 14 3.24805 14 3.37695V3.47949C14 3.6084 13.8945 3.71387 13.7656 3.71387H11.9492C11.8203 3.71387 11.7148 3.6084 11.7148 3.47949V3.37695C11.7148 3.24805 11.8203 3.14258 11.9492 3.14258Z" fill="white"/>
</g>
</g>
<mask id="mask16_31_479" style="mask-type:luminance" maskUnits="userSpaceOnUse" x="2" y="2" width="12" height="12">
<path d="M14 2H2V14H14V2Z" fill="black" fill-opacity="0.501961"/>
</mask>
<g mask="url(#mask16_31_479)">
<mask id="mask17_31_479" style="mask-type:luminance" maskUnits="userSpaceOnUse" x="2" y="2" width="12" height="12">
<path d="M14 2H2V14H14V2Z" fill="white"/>
</mask>
<g mask="url(#mask17_31_479)">
<path d="M12.5205 7.71289H13.7656C13.8945 7.71289 14 7.81836 14 7.94727V8.05273C14 8.18164 13.8945 8.28711 13.7656 8.28711H12.5205C12.3916 8.28711 12.2861 8.18164 12.2861 8.05273V7.94727C12.2861 7.81836 12.3916 7.71289 12.5205 7.71289Z" fill="white"/>
</g>
</g>
<mask id="mask18_31_479" style="mask-type:luminance" maskUnits="userSpaceOnUse" x="2" y="2" width="12" height="12">
<path d="M14 2H2V14H14V2Z" fill="black" fill-opacity="0.501961"/>
</mask>
<g mask="url(#mask18_31_479)">
<mask id="mask19_31_479" style="mask-type:luminance" maskUnits="userSpaceOnUse" x="2" y="2" width="12" height="12">
<path d="M14 2H2V14H14V2Z" fill="white"/>
</mask>
<g mask="url(#mask19_31_479)">
<path d="M12.5205 4.28516H13.7656C13.8945 4.28516 14 4.39062 14 4.51953V4.62207C14 4.75098 13.8945 4.85645 13.7656 4.85645H12.5205C12.3916 4.85645 12.2861 4.75098 12.2861 4.62207V4.51953C12.2861 4.39062 12.3916 4.28516 12.5205 4.28516Z" fill="white"/>
</g>
</g>
<mask id="mask20_31_479" style="mask-type:luminance" maskUnits="userSpaceOnUse" x="2" y="2" width="12" height="12">
<path d="M14 2H2V14H14V2Z" fill="black" fill-opacity="0.501961"/>
</mask>
<g mask="url(#mask20_31_479)">
<mask id="mask21_31_479" style="mask-type:luminance" maskUnits="userSpaceOnUse" x="2" y="2" width="12" height="12">
<path d="M14 2H2V14H14V2Z" fill="white"/>
</mask>
<g mask="url(#mask21_31_479)">
<path d="M13.0918 5.42773H13.7656C13.8945 5.42773 14 5.5332 14 5.66211V5.76465C14 5.89648 13.8945 5.99902 13.7656 5.99902H13.0918C12.9629 5.99902 12.8574 5.89648 12.8574 5.76465V5.66211C12.8574 5.5332 12.9629 5.42773 13.0918 5.42773Z" fill="white"/>
</g>
</g>
<mask id="mask22_31_479" style="mask-type:luminance" maskUnits="userSpaceOnUse" x="2" y="2" width="12" height="12">
<path d="M14 2H2V14H14V2Z" fill="black" fill-opacity="0.501961"/>
</mask>
<g mask="url(#mask22_31_479)">
<mask id="mask23_31_479" style="mask-type:luminance" maskUnits="userSpaceOnUse" x="2" y="2" width="12" height="12">
<path d="M14 2H2V14H14V2Z" fill="white"/>
</mask>
<g mask="url(#mask23_31_479)">
<path d="M13.0918 6.57031H13.7656C13.8945 6.57031 14 6.67578 14 6.80469V6.90723C14 7.03906 13.8945 7.1416 13.7656 7.1416H13.0918C12.9629 7.1416 12.8574 7.03906 12.8574 6.90723V6.80469C12.8574 6.67578 12.9629 6.57031 13.0918 6.57031Z" fill="white"/>
</g>
</g>
<mask id="mask24_31_479" style="mask-type:luminance" maskUnits="userSpaceOnUse" x="2" y="2" width="12" height="12">
<path d="M14 2H2V14H14V2Z" fill="black" fill-opacity="0.501961"/>
</mask>
<g mask="url(#mask24_31_479)">
<mask id="mask25_31_479" style="mask-type:luminance" maskUnits="userSpaceOnUse" x="2" y="2" width="12" height="12">
<path d="M14 2H2V14H14V2Z" fill="white"/>
</mask>
<g mask="url(#mask25_31_479)">
<path d="M8.52148 11.1436H13.7656C13.8945 11.1436 14 11.249 14 11.3779V11.4805C14 11.6094 13.8945 11.7148 13.7656 11.7148H8.52148C8.38965 11.7148 8.28711 11.6094 8.28711 11.4805V11.3779C8.28711 11.249 8.38965 11.1436 8.52148 11.1436Z" fill="white"/>
</g>
</g>
<mask id="mask26_31_479" style="mask-type:luminance" maskUnits="userSpaceOnUse" x="2" y="2" width="12" height="12">
<path d="M14 2H2V14H14V2Z" fill="black" fill-opacity="0.501961"/>
</mask>
<g mask="url(#mask26_31_479)">
<mask id="mask27_31_479" style="mask-type:luminance" maskUnits="userSpaceOnUse" x="2" y="2" width="12" height="12">
<path d="M14 2H2V14H14V2Z" fill="white"/>
</mask>
<g mask="url(#mask27_31_479)">
<path d="M6.2334 11.1436H7.47852C7.61035 11.1436 7.71289 11.249 7.71289 11.3779V11.4805C7.71289 11.6094 7.61035 11.7148 7.47852 11.7148H6.2334C6.10449 11.7148 5.99902 11.6094 5.99902 11.4805V11.3779C5.99902 11.249 6.10449 11.1436 6.2334 11.1436Z" fill="white"/>
</g>
</g>
<mask id="mask28_31_479" style="mask-type:luminance" maskUnits="userSpaceOnUse" x="2" y="2" width="12" height="12">
<path d="M14 2H2V14H14V2Z" fill="black" fill-opacity="0.501961"/>
</mask>
<g mask="url(#mask28_31_479)">
<mask id="mask29_31_479" style="mask-type:luminance" maskUnits="userSpaceOnUse" x="2" y="2" width="12" height="12">
<path d="M14 2H2V14H14V2Z" fill="white"/>
</mask>
<g mask="url(#mask29_31_479)">
<path d="M10.8066 13.4287H13.7656C13.8945 13.4287 14 13.5342 14 13.6631V13.7656C14 13.8945 13.8945 14 13.7656 14H10.8066C10.6777 14 10.5723 13.8945 10.5723 13.7656V13.6631C10.5723 13.5342 10.6777 13.4287 10.8066 13.4287Z" fill="white"/>
</g>
</g>
<mask id="mask30_31_479" style="mask-type:luminance" maskUnits="userSpaceOnUse" x="2" y="2" width="12" height="12">
<path d="M14 2H2V14H14V2Z" fill="black" fill-opacity="0.501961"/>
</mask>
<g mask="url(#mask30_31_479)">
<mask id="mask31_31_479" style="mask-type:luminance" maskUnits="userSpaceOnUse" x="2" y="2" width="12" height="12">
<path d="M14 2H2V14H14V2Z" fill="white"/>
</mask>
<g mask="url(#mask31_31_479)">
<path d="M6.2334 13.4287H9.7666C9.89551 13.4287 10.001 13.5342 10.001 13.6631V13.7656C10.001 13.8945 9.89551 14 9.7666 14H6.2334C6.10449 14 5.99902 13.8945 5.99902 13.7656V13.6631C5.99902 13.5342 6.10449 13.4287 6.2334 13.4287Z" fill="white"/>
</g>
</g>
<mask id="mask32_31_479" style="mask-type:luminance" maskUnits="userSpaceOnUse" x="2" y="2" width="12" height="12">
<path d="M14 2H2V14H14V2Z" fill="black" fill-opacity="0.501961"/>
</mask>
<g mask="url(#mask32_31_479)">
<mask id="mask33_31_479" style="mask-type:luminance" maskUnits="userSpaceOnUse" x="2" y="2" width="12" height="12">
<path d="M14 2H2V14H14V2Z" fill="white"/>
</mask>
<g mask="url(#mask33_31_479)">
<path d="M6.2334 5.42773H8.05273C8.18164 5.42773 8.28711 5.5332 8.28711 5.66211V5.76465C8.28711 5.89648 8.18164 5.99902 8.05273 5.99902H6.2334C6.10449 5.99902 5.99902 5.89648 5.99902 5.76465V5.66211C5.99902 5.5332 6.10449 5.42773 6.2334 5.42773Z" fill="white"/>
</g>
</g>
<mask id="mask34_31_479" style="mask-type:luminance" maskUnits="userSpaceOnUse" x="2" y="2" width="12" height="12">
<path d="M14 2H2V14H14V2Z" fill="black" fill-opacity="0.501961"/>
</mask>
<g mask="url(#mask34_31_479)">
<mask id="mask35_31_479" style="mask-type:luminance" maskUnits="userSpaceOnUse" x="2" y="2" width="12" height="12">
<path d="M14 2H2V14H14V2Z" fill="white"/>
</mask>
<g mask="url(#mask35_31_479)">
<path d="M6.2334 6.57031H8.05273C8.18164 6.57031 8.28711 6.67578 8.28711 6.80469V6.90723C8.28711 7.03906 8.18164 7.1416 8.05273 7.1416H6.2334C6.10449 7.1416 5.99902 7.03906 5.99902 6.90723V6.80469C5.99902 6.67578 6.10449 6.57031 6.2334 6.57031Z" fill="white"/>
</g>
</g>
</svg>
