<svg width="16" height="16" viewBox="0 0 16 16" fill="none" xmlns="http://www.w3.org/2000/svg">
<path d="M6.22221 8.88888C7.05058 8.88888 7.74662 9.45545 7.94398 10.2222H12.8889C13.1343 10.2222 13.3333 10.4212 13.3333 10.6667C13.3333 10.8849 13.1761 11.0663 12.9688 11.1039L12.8889 11.1111L7.94375 11.112C7.74608 11.8783 7.05026 12.4444 6.22221 12.4444C5.39417 12.4444 4.69835 11.8783 4.50067 11.112L3.1111 11.1111C2.86564 11.1111 2.66666 10.9121 2.66666 10.6667C2.66666 10.4484 2.82388 10.267 3.03121 10.2294L3.1111 10.2222H4.50044C4.6978 9.45545 5.39385 8.88888 6.22221 8.88888ZM6.22221 9.77776C5.7313 9.77776 5.33332 10.1757 5.33332 10.6667C5.33332 11.1576 5.7313 11.5555 6.22221 11.5555C6.71313 11.5555 7.1111 11.1576 7.1111 10.6667C7.1111 10.1757 6.71313 9.77776 6.22221 9.77776ZM9.77777 3.55554C10.6061 3.55554 11.3022 4.1221 11.4995 4.88886L12.8889 4.88888C13.1343 4.88888 13.3333 5.08786 13.3333 5.33332C13.3333 5.55151 13.1761 5.73297 12.9688 5.7706L12.8889 5.77776L11.4993 5.77867C11.3017 6.54498 10.6059 7.1111 9.77777 7.1111C8.94968 7.1111 8.2539 6.54498 8.05623 5.77867L3.1111 5.77776C2.86564 5.77776 2.66666 5.57878 2.66666 5.33332C2.66666 5.11513 2.82388 4.93367 3.03121 4.89604L3.1111 4.88888L8.056 4.88886C8.25336 4.1221 8.94941 3.55554 9.77777 3.55554ZM9.77777 4.44443C9.28683 4.44443 8.88888 4.8424 8.88888 5.33332C8.88888 5.82424 9.28683 6.22221 9.77777 6.22221C10.2687 6.22221 10.6667 5.82424 10.6667 5.33332C10.6667 4.8424 10.2687 4.44443 9.77777 4.44443Z" fill="#B4B8BF"/>
</svg>
