<svg width="16" height="16" viewBox="0 0 16 16" fill="none" xmlns="http://www.w3.org/2000/svg">
<path d="M4.075 7.333L5.855 4.697C5.96485 4.53317 6.02818 4.3426 6.03824 4.14561C6.0483 3.94861 6.00472 3.75258 5.91214 3.57841C5.81957 3.40423 5.68146 3.25845 5.51255 3.15658C5.34364 3.05472 5.15025 3.0006 4.953 3H4.935C4.585 3 4.258 3.174 4.062 3.465L2.763 5.389L4.075 7.333Z" fill="#DB5C5C"/>
<path d="M1 7.99999L4.051 12.521C4.21252 12.7602 4.46245 12.9255 4.74582 12.9804C5.02919 13.0354 5.32277 12.9755 5.562 12.814C5.80123 12.6525 5.96649 12.4025 6.02144 12.1192C6.07639 11.8358 6.01652 11.5422 5.855 11.303L2.313 6.05499L1.001 7.99899L1 7.99999Z" fill="#3574F0"/>
<path d="M11.925 8.66699L10.145 11.303C10.0351 11.4668 9.97181 11.6574 9.96175 11.8544C9.95168 12.0514 9.99526 12.2474 10.0878 12.4216C10.1804 12.5958 10.3185 12.7415 10.4874 12.8434C10.6564 12.9453 10.8497 12.9994 11.047 13H11.065C11.415 13 11.742 12.826 11.938 12.535L13.237 10.611L11.925 8.66699Z" fill="#F2C55C"/>
<path d="M15 7.99999L11.949 3.47899C11.783 3.2507 11.5349 3.09577 11.2569 3.04687C10.9789 2.99797 10.6928 3.05891 10.4588 3.21685C10.2249 3.3748 10.0614 3.6174 10.0029 3.89352C9.94433 4.16964 9.99528 4.45771 10.145 4.69699L13.687 9.94499L14.999 8.00099L15 7.99999Z" fill="#5FAD65"/>
</svg>
