<svg width="16" height="16" viewBox="0 0 16 16" fill="none" xmlns="http://www.w3.org/2000/svg">
<path d="M7.41794 12.1797C7.28822 12.0788 7.18531 11.9474 7.12204 11.7949C7.05009 11.6212 7.03069 11.4295 7.06735 11.2451C7.08661 11.1485 7.12057 11.056 7.16794 10.9707L7.41794 12.1797ZM8.84567 11.001C8.88495 11.0779 8.91554 11.1595 8.93259 11.2451C8.96922 11.4294 8.9498 11.6213 8.8779 11.7949C8.81855 11.9381 8.72384 12.0627 8.60544 12.1611L8.84567 11.001ZM4.06931 10.3789C4.32105 10.5285 4.60543 10.6198 4.90036 10.6426C5.06755 10.6582 5.22714 10.7239 5.35641 10.8311C5.40731 10.8826 5.44855 10.9427 5.47946 11.0078C5.44222 11.0297 5.40439 11.0507 5.36423 11.0674C5.19064 11.1393 4.99871 11.1577 4.81442 11.1211C4.63035 11.0844 4.46088 10.994 4.32809 10.8613C4.19635 10.7296 4.1066 10.5614 4.06931 10.3789ZM11 9.23828C11.1877 9.23869 11.3714 9.29491 11.5273 9.39941C11.6538 9.48426 11.7561 9.59894 11.8291 9.73145H11.1211V10.6426H11.7646V10.748C11.7356 10.7877 11.7049 10.8263 11.6699 10.8613C11.5371 10.9939 11.3676 11.0845 11.1836 11.1211C10.9993 11.1576 10.8073 11.1383 10.6338 11.0664C10.5781 11.0433 10.5264 11.0124 10.4765 10.9795V9.08691C10.4765 8.98239 10.5033 8.88105 10.5508 8.79004L11 9.23828ZM7.99997 2C8.18784 2.00007 8.37208 2.05578 8.52829 2.16016C8.68441 2.26458 8.80601 2.41339 8.8779 2.58691C8.94974 2.76045 8.96916 2.95152 8.93259 3.13574C8.89594 3.32004 8.80467 3.49013 8.67184 3.62305V5.56738L10.0478 4.19238C10.0479 4.00461 10.1037 3.82122 10.208 3.66504C10.3123 3.50893 10.4604 3.38644 10.6338 3.31445C10.8073 3.24256 10.9993 3.22325 11.1836 3.25977C11.3676 3.29638 11.5371 3.387 11.6699 3.51953C11.8028 3.65223 11.8938 3.82173 11.9306 4.00586C11.9675 4.18994 11.9484 4.38112 11.8769 4.55469C11.8053 4.72832 11.6833 4.87778 11.5273 4.98242C11.3714 5.08684 11.1876 5.14315 11 5.14355L9.62399 6.51855H11.5683C11.7011 6.38587 11.8705 6.29547 12.0547 6.25879C12.2389 6.22221 12.4309 6.24059 12.6045 6.3125C12.7779 6.38447 12.9259 6.50694 13.0302 6.66309C13.1346 6.81936 13.1904 7.00348 13.1904 7.19141C13.1903 7.37916 13.1345 7.56261 13.0302 7.71875C12.9259 7.8749 12.7779 7.99737 12.6045 8.06934C12.5219 8.10355 12.4347 8.12395 12.3466 8.13379C12.3072 8.08294 12.2657 8.03332 12.2197 7.9873C11.9282 7.69583 11.5323 7.53239 11.1201 7.53223C10.7707 7.53223 10.4334 7.65005 10.1611 7.86328H9.62399L9.89255 8.13184C9.68139 8.40337 9.56542 8.73929 9.5654 9.08691V9.70605L9.19138 9.33203L9.5654 7.53223H8.65134L8.00876 10.6416L7.36618 7.53223H6.45798L6.82516 9.31348L5.97263 10.166C5.67359 9.90445 5.29582 9.74997 4.89841 9.73047C4.72881 9.72605 4.56629 9.65885 4.44333 9.54199C4.42086 9.51912 4.40055 9.49361 4.38181 9.46777C4.4106 9.44309 4.4409 9.41964 4.47263 9.39844C4.62873 9.29429 4.81231 9.23835 4.99997 9.23828L5.46188 8.77539C5.46365 8.77853 5.46603 8.78199 5.46774 8.78516C5.51761 8.87763 5.54419 8.98185 5.54489 9.08691H6.45798C6.45752 8.83189 6.39374 8.58031 6.27341 8.35547C6.22892 8.27247 6.17458 8.19518 6.11618 8.12207L6.37595 7.86328H5.85251C5.8237 7.84097 5.79599 7.81718 5.76559 7.79688C5.55329 7.65521 5.30865 7.56707 5.05466 7.54199C4.80071 7.51706 4.54437 7.55583 4.30856 7.65332C4.07256 7.75096 3.86433 7.90527 3.70212 8.10254C3.69309 8.11351 3.68544 8.12552 3.67673 8.13672C3.58089 8.1284 3.48632 8.10649 3.39645 8.06934C3.22284 7.99741 3.07413 7.87499 2.9697 7.71875C2.86541 7.56261 2.80964 7.37917 2.80954 7.19141C2.80954 7.00347 2.86532 6.81937 2.9697 6.66309C3.07413 6.50685 3.22284 6.38442 3.39645 6.3125C3.56995 6.24076 3.76113 6.22218 3.94528 6.25879C4.12939 6.29546 4.2988 6.38589 4.43161 6.51855H6.37595L4.99997 5.14355C4.81231 5.14315 4.62854 5.08686 4.47263 4.98242C4.31657 4.87779 4.1947 4.72835 4.12302 4.55469C4.05151 4.38111 4.03345 4.18995 4.07028 4.00586C4.10719 3.82176 4.19717 3.6522 4.33005 3.51953C4.46302 3.38686 4.63309 3.29629 4.81735 3.25977C5.00151 3.22337 5.19277 3.24254 5.36618 3.31445C5.53964 3.38646 5.68863 3.50885 5.79294 3.66504C5.89701 3.82113 5.95208 4.00477 5.95212 4.19238L7.32809 5.56738V3.62305C7.19519 3.49012 7.10402 3.3201 7.06735 3.13574C7.03075 2.95145 7.05014 2.7605 7.12204 2.58691C7.19397 2.41335 7.31545 2.26456 7.47165 2.16016C7.62791 2.05582 7.81207 2 7.99997 2Z" fill="#B57900"/>
<path d="M13.9993 11.4306C14.0034 11.6628 13.9613 11.8939 13.8743 12.1093C13.7873 12.3246 13.6576 12.5203 13.4934 12.6845C13.3292 12.8487 13.1336 12.9784 12.9182 13.0653C12.7029 13.1523 12.4717 13.1944 12.2395 13.1903H3.76004C3.52783 13.1944 3.29668 13.1523 3.08133 13.0653C2.86599 12.9784 2.67035 12.8487 2.50613 12.6845C2.34193 12.5203 2.21224 12.3246 2.12527 12.1093C2.0383 11.8939 1.99615 11.6628 2.00027 11.4306V7.19032H13.9993V11.4306ZM6.45731 7.53212L7.55399 12.8407H8.46414L9.56473 7.53212H8.65067L8.00809 10.6415L7.36551 7.53212H6.45731ZM11.1194 7.53212C10.7071 7.53217 10.3114 7.69571 10.0198 7.9872C9.72837 8.27877 9.56476 8.67455 9.56473 9.08681V11.286C9.56486 11.6983 9.72831 12.0941 10.0198 12.3856C10.3114 12.6771 10.7072 12.8407 11.1194 12.8407C11.5316 12.8407 11.9275 12.677 12.219 12.3856C12.5105 12.0941 12.674 11.6983 12.6741 11.286V9.73134H11.1204V10.6425H11.7639V11.285C11.7639 11.4557 11.6961 11.6204 11.5755 11.7411C11.4547 11.8617 11.2901 11.9296 11.1194 11.9296C10.9489 11.9295 10.785 11.8616 10.6643 11.7411C10.5437 11.6204 10.4759 11.4557 10.4759 11.285V9.08681C10.4759 8.91623 10.5438 8.75243 10.6643 8.63173C10.785 8.51109 10.9488 8.44338 11.1194 8.44325C11.2902 8.44325 11.4547 8.51097 11.5755 8.63173C11.696 8.75243 11.7639 8.91624 11.7639 9.08681H12.6741C12.6741 8.67447 12.5106 8.27878 12.219 7.9872C11.9274 7.69561 11.5318 7.53216 11.1194 7.53212ZM5.05399 7.54189C4.8 7.51698 4.54372 7.55566 4.30789 7.65321C4.072 7.75086 3.8636 7.90524 3.70145 8.10243C3.53938 8.29963 3.4274 8.53379 3.37723 8.78407C3.32714 9.03434 3.33977 9.29358 3.41336 9.53798C3.48702 9.78241 3.62003 10.0054 3.80008 10.1864C4.10873 10.4515 4.49406 10.6112 4.89969 10.6425C5.06706 10.658 5.22634 10.7237 5.35574 10.8309C5.4299 10.9059 5.48472 10.9985 5.51492 11.0995C5.54499 11.2004 5.54945 11.3078 5.52859 11.411C5.50764 11.5142 5.46174 11.611 5.39481 11.6923C5.32776 11.7735 5.24121 11.8376 5.14383 11.8778C5.04649 11.9179 4.94001 11.9331 4.83524 11.9227C4.73053 11.9123 4.62984 11.8766 4.54227 11.8183C4.45458 11.7598 4.38223 11.6806 4.33231 11.5878C4.28243 11.4949 4.25651 11.3904 4.25613 11.285H3.34305C3.34311 11.5406 3.40616 11.7931 3.52664 12.0184C3.6471 12.2437 3.82116 12.4361 4.03348 12.578C4.24601 12.72 4.49102 12.8078 4.74539 12.8329C4.99966 12.8579 5.25639 12.8193 5.49246 12.7216C5.72857 12.6238 5.9377 12.4689 6.09988 12.2714C6.26184 12.0739 6.37224 11.8392 6.42215 11.5888C6.47205 11.3381 6.46012 11.0785 6.38602 10.8339C6.31185 10.5894 6.17795 10.3672 5.99734 10.1864C5.69461 9.9118 5.30598 9.75029 4.89774 9.73036C4.72802 9.72589 4.56562 9.65894 4.44266 9.54189C4.36892 9.46683 4.31433 9.37422 4.28445 9.27333C4.25469 9.17257 4.25082 9.06574 4.27176 8.96278C4.2928 8.85973 4.33862 8.76266 4.40555 8.68153C4.47245 8.60058 4.55852 8.53713 4.65555 8.49696C4.75282 8.4568 4.8594 8.44086 4.96414 8.45107C5.0688 8.46136 5.16951 8.49736 5.25711 8.55556C5.34472 8.61378 5.41703 8.69253 5.46707 8.78505C5.51707 8.87761 5.54352 8.98161 5.54422 9.08681H6.45731C6.45685 8.83165 6.39319 8.58029 6.27274 8.35536C6.1521 8.13032 5.9773 7.93851 5.76492 7.79677C5.55247 7.65501 5.30816 7.56689 5.05399 7.54189Z" fill="#56585D"/>
</svg>
