<svg width="16" height="16" viewBox="0 0 16 16" fill="none" xmlns="http://www.w3.org/2000/svg">
<path d="M7.41794 12.1797C7.28822 12.0788 7.18531 11.9474 7.12204 11.7949C7.05009 11.6212 7.03069 11.4295 7.06735 11.2451C7.08661 11.1485 7.12057 11.056 7.16794 10.9707L7.41794 12.1797ZM8.84567 11.001C8.88495 11.0779 8.91554 11.1595 8.93259 11.2451C8.96922 11.4294 8.9498 11.6213 8.8779 11.7949C8.81855 11.9381 8.72384 12.0627 8.60544 12.1611L8.84567 11.001ZM4.06931 10.3789C4.32105 10.5285 4.60543 10.6198 4.90036 10.6426C5.06755 10.6582 5.22714 10.7239 5.35641 10.8311C5.40731 10.8826 5.44855 10.9427 5.47946 11.0078C5.44222 11.0297 5.40439 11.0507 5.36423 11.0674C5.19064 11.1393 4.99871 11.1577 4.81442 11.1211C4.63035 11.0844 4.46088 10.994 4.32809 10.8613C4.19635 10.7296 4.1066 10.5614 4.06931 10.3789ZM11 9.23828C11.1877 9.23869 11.3714 9.29491 11.5273 9.39941C11.6538 9.48426 11.7561 9.59894 11.8291 9.73145H11.1211V10.6426H11.7646V10.748C11.7356 10.7877 11.7049 10.8263 11.6699 10.8613C11.5371 10.9939 11.3676 11.0845 11.1836 11.1211C10.9993 11.1576 10.8073 11.1383 10.6338 11.0664C10.5781 11.0433 10.5264 11.0124 10.4765 10.9795V9.08691C10.4765 8.98239 10.5033 8.88105 10.5508 8.79004L11 9.23828ZM7.99997 2C8.18784 2.00007 8.37208 2.05578 8.52829 2.16016C8.68441 2.26458 8.80601 2.41339 8.8779 2.58691C8.94974 2.76045 8.96916 2.95152 8.93259 3.13574C8.89594 3.32004 8.80467 3.49013 8.67184 3.62305V5.56738L10.0478 4.19238C10.0479 4.00461 10.1037 3.82122 10.208 3.66504C10.3123 3.50893 10.4604 3.38644 10.6338 3.31445C10.8073 3.24256 10.9993 3.22325 11.1836 3.25977C11.3676 3.29638 11.5371 3.387 11.6699 3.51953C11.8028 3.65223 11.8938 3.82173 11.9306 4.00586C11.9675 4.18994 11.9484 4.38112 11.8769 4.55469C11.8053 4.72832 11.6833 4.87778 11.5273 4.98242C11.3714 5.08684 11.1876 5.14315 11 5.14355L9.62399 6.51855H11.5683C11.7011 6.38587 11.8705 6.29547 12.0547 6.25879C12.2389 6.22221 12.4309 6.24059 12.6045 6.3125C12.7779 6.38447 12.9259 6.50694 13.0302 6.66309C13.1346 6.81936 13.1904 7.00348 13.1904 7.19141C13.1903 7.37916 13.1345 7.56261 13.0302 7.71875C12.9259 7.8749 12.7779 7.99737 12.6045 8.06934C12.5219 8.10355 12.4347 8.12395 12.3466 8.13379C12.3072 8.08294 12.2657 8.03332 12.2197 7.9873C11.9282 7.69583 11.5323 7.53239 11.1201 7.53223C10.7707 7.53223 10.4334 7.65005 10.1611 7.86328H9.62399L9.89255 8.13184C9.68139 8.40337 9.56542 8.73929 9.5654 9.08691V9.70605L9.19138 9.33203L9.5654 7.53223H8.65134L8.00876 10.6416L7.36618 7.53223H6.45798L6.82516 9.31348L5.97263 10.166C5.67359 9.90445 5.29582 9.74997 4.89841 9.73047C4.72881 9.72605 4.56629 9.65885 4.44333 9.54199C4.42086 9.51912 4.40055 9.49361 4.38181 9.46777C4.4106 9.44309 4.4409 9.41964 4.47263 9.39844C4.62873 9.29429 4.81231 9.23835 4.99997 9.23828L5.46188 8.77539C5.46365 8.77853 5.46603 8.78199 5.46774 8.78516C5.51761 8.87763 5.54419 8.98185 5.54489 9.08691H6.45798C6.45752 8.83189 6.39374 8.58031 6.27341 8.35547C6.22892 8.27247 6.17458 8.19518 6.11618 8.12207L6.37595 7.86328H5.85251C5.8237 7.84097 5.79599 7.81718 5.76559 7.79688C5.55329 7.65521 5.30865 7.56707 5.05466 7.54199C4.80071 7.51706 4.54437 7.55583 4.30856 7.65332C4.07256 7.75096 3.86433 7.90527 3.70212 8.10254C3.69309 8.11351 3.68544 8.12552 3.67673 8.13672C3.58089 8.1284 3.48632 8.10649 3.39645 8.06934C3.22284 7.99741 3.07413 7.87499 2.9697 7.71875C2.86541 7.56261 2.80964 7.37917 2.80954 7.19141C2.80954 7.00347 2.86532 6.81937 2.9697 6.66309C3.07413 6.50685 3.22284 6.38442 3.39645 6.3125C3.56995 6.24076 3.76113 6.22218 3.94528 6.25879C4.12939 6.29546 4.2988 6.38589 4.43161 6.51855H6.37595L4.99997 5.14355C4.81231 5.14315 4.62854 5.08686 4.47263 4.98242C4.31657 4.87779 4.1947 4.72835 4.12302 4.55469C4.05151 4.38111 4.03345 4.18995 4.07028 4.00586C4.10719 3.82176 4.19717 3.6522 4.33005 3.51953C4.46302 3.38686 4.63309 3.29629 4.81735 3.25977C5.00151 3.22337 5.19277 3.24254 5.36618 3.31445C5.53964 3.38646 5.68863 3.50885 5.79294 3.66504C5.89701 3.82113 5.95208 4.00477 5.95212 4.19238L7.32809 5.56738V3.62305C7.19519 3.49012 7.10402 3.3201 7.06735 3.13574C7.03075 2.95145 7.05014 2.7605 7.12204 2.58691C7.19397 2.41335 7.31545 2.26456 7.47165 2.16016C7.62791 2.05582 7.81207 2 7.99997 2Z" fill="#FFB300"/>
<path d="M14 11.4306C14.0041 11.6628 13.961 11.8939 13.874 12.1093C13.7871 12.3245 13.6573 12.5203 13.4932 12.6845C13.329 12.8486 13.1332 12.9784 12.918 13.0653C12.7028 13.1522 12.4722 13.1944 12.2402 13.1903H3.75977C3.52755 13.1944 3.29641 13.1523 3.08105 13.0653C2.8658 12.9784 2.67002 12.8486 2.50586 12.6845C2.34177 12.5203 2.21293 12.3244 2.12598 12.1093C2.03901 11.8939 1.99588 11.6628 2 11.4306V7.19032H14V11.4306ZM6.45703 7.53212L7.55371 12.8407H8.46387L9.56445 7.53212H8.65039L8.00781 10.6415L7.36523 7.53212H6.45703ZM11.1191 7.53212C10.707 7.53225 10.311 7.69577 10.0195 7.9872C9.72818 8.27875 9.56448 8.67462 9.56445 9.08681V11.286C9.56459 11.6982 9.72809 12.0941 10.0195 12.3856C10.311 12.677 10.707 12.8406 11.1191 12.8407C11.5313 12.8407 11.9272 12.677 12.2188 12.3856C12.5102 12.0941 12.6737 11.6983 12.6738 11.286V9.73134H11.1201V10.6425H11.7637V11.285C11.7636 11.4557 11.6959 11.6204 11.5752 11.7411C11.4545 11.8616 11.2897 11.9296 11.1191 11.9296C10.9487 11.9294 10.7846 11.8616 10.6641 11.7411C10.5434 11.6204 10.4757 11.4557 10.4756 11.285V9.08681C10.4756 8.9163 10.5436 8.75241 10.6641 8.63173C10.7846 8.51115 10.9486 8.44345 11.1191 8.44325C11.2899 8.44325 11.4544 8.51103 11.5752 8.63173C11.6957 8.75243 11.7636 8.91621 11.7637 9.08681H12.6738C12.6738 8.67444 12.5103 8.27879 12.2188 7.9872C11.9272 7.69567 11.5315 7.53216 11.1191 7.53212ZM5.05371 7.54189C4.79981 7.51704 4.54336 7.5557 4.30762 7.65321C4.07182 7.75086 3.86327 7.9053 3.70117 8.10243C3.53916 8.29961 3.42712 8.53385 3.37695 8.78407C3.32688 9.03432 3.3395 9.2936 3.41309 9.53798C3.48673 9.7824 3.61978 10.0054 3.7998 10.1864C4.10839 10.4514 4.49387 10.6111 4.89941 10.6425C5.06673 10.658 5.22609 10.7237 5.35547 10.8309C5.42966 10.9059 5.48444 10.9985 5.51465 11.0995C5.54473 11.2004 5.54918 11.3078 5.52832 11.411C5.50736 11.5141 5.46145 11.6111 5.39453 11.6923C5.3275 11.7735 5.24088 11.8376 5.14355 11.8778C5.04628 11.9178 4.93965 11.933 4.83496 11.9227C4.73035 11.9123 4.62949 11.8765 4.54199 11.8183C4.45436 11.7598 4.38192 11.6806 4.33203 11.5878C4.28215 11.4949 4.25624 11.3904 4.25586 11.285H3.34277C3.34284 11.5406 3.40589 11.7931 3.52637 12.0184C3.64679 12.2436 3.82093 12.4361 4.0332 12.578C4.24566 12.72 4.49084 12.8078 4.74512 12.8329C4.9993 12.8579 5.25618 12.8192 5.49219 12.7216C5.72824 12.6238 5.93744 12.4688 6.09961 12.2714C6.26156 12.074 6.37196 11.8392 6.42188 11.5888C6.47178 11.3381 6.45987 11.0785 6.38574 10.8339C6.31157 10.5893 6.1777 10.3672 5.99707 10.1864C5.69435 9.91187 5.30566 9.75028 4.89746 9.73036C4.72782 9.72582 4.56529 9.65891 4.44238 9.54189C4.36867 9.46682 4.31404 9.37421 4.28418 9.27333C4.25442 9.17259 4.25056 9.06572 4.27148 8.96278C4.29251 8.85979 4.33841 8.76264 4.40527 8.68153C4.47212 8.60064 4.55834 8.53714 4.65527 8.49696C4.75246 8.45684 4.85921 8.44091 4.96387 8.45107C5.06845 8.46135 5.16928 8.49744 5.25684 8.55556C5.34444 8.61378 5.41676 8.69253 5.4668 8.78505C5.51683 8.87764 5.54324 8.98156 5.54395 9.08681H6.45703C6.45657 8.8316 6.39296 8.58032 6.27246 8.35536C6.15183 8.13032 5.97702 7.93851 5.76465 7.79677C5.55224 7.65509 5.30781 7.56688 5.05371 7.54189Z" fill="white"/>
</svg>
