<svg width="16" height="16" viewBox="0 0 16 16" fill="none" xmlns="http://www.w3.org/2000/svg">
<path d="M12 2C13.1046 2 14 2.89543 14 4V8.5H13H12.5L12 7.5C11.5 7.5 10.5 7.5 10 7.5C9.4629 7.49672 9.5 8 9 8.5C9 9 8 8.5 7.5 9C7.5 9.5 6.5 10 6.5 11L7 12C6.5 13 6.35681 13.4482 6.91987 14H4C2.89543 14 2 13.1046 2 12V4C2 2.89543 2.89543 2 4 2H12Z" fill="#548AF7"/>
<path d="M9.6659 7.59708C9.6659 7.59708 9.23413 8.34518 9 8.5C9 8.5 8.65273 7.912 8.65273 7.63555C8.65273 7.30495 8.73822 7.00855 8.90922 6.74635C9.08307 6.4813 9.3239 6.27468 9.6317 6.12648C9.9395 5.97543 10.2872 5.8999 10.6748 5.8999C11.0709 5.8999 11.4229 5.97258 11.7307 6.11793C12.0414 6.26328 12.2836 6.46563 12.4575 6.72498C12.6313 6.98433 12.7197 7.28073 12.7225 7.61418H11.7093C11.7093 7.45173 11.6666 7.30638 11.5811 7.17813C11.4956 7.04703 11.3759 6.94585 11.222 6.8746C11.0681 6.80335 10.89 6.76773 10.6876 6.76773C10.4853 6.76773 10.3071 6.80193 10.1532 6.87033C9.99935 6.93873 9.87966 7.03563 9.79416 7.16103C9.70866 7.28643 9.6659 7.43178 9.6659 7.59708Z" fill="white"/>
<path d="M7.87171 6H3.13501V7H5V12H6V7H7.87171V6Z" fill="white"/>
<path d="M10.8579 13C11.4102 13 11.8579 12.5523 11.8579 12C11.8579 11.4477 11.4102 11 10.8579 11C10.3056 11 9.85788 11.4477 9.85788 12C9.85788 12.5523 10.3056 13 10.8579 13Z" fill="#CED0D6"/>
<path fill-rule="evenodd" clip-rule="evenodd" d="M11.9795 15.6756C11.9064 15.8707 11.7198 16 11.5114 16H10.2044C9.99597 16 9.80937 15.8707 9.73617 15.6756L9.48667 15.0102C9.40277 14.7865 9.17227 14.6534 8.93647 14.6926L8.23556 14.8092C8.02996 14.8434 7.82472 14.7464 7.72051 14.5659L7.06701 13.4341C6.96279 13.2536 6.98148 13.0273 7.1139 12.8664L7.56532 12.3177C7.71716 12.1331 7.71716 11.8669 7.56532 11.6824L7.11388 11.1336C6.98146 10.9727 6.96278 10.7464 7.06699 10.5659L7.72049 9.43405C7.8247 9.25355 8.02994 9.15663 8.23554 9.19083L8.93647 9.30742C9.17227 9.34664 9.40277 9.21353 9.48667 8.98976L9.73617 8.32444C9.80937 8.12929 9.99597 8 10.2044 8H11.5114C11.7198 8 11.9064 8.12929 11.9795 8.32444L12.229 8.98976C12.313 9.21353 12.5435 9.34664 12.7792 9.30742L13.4802 9.19083C13.6858 9.15663 13.891 9.25355 13.9952 9.43405L14.6487 10.5659C14.7529 10.7464 14.7343 10.9727 14.6018 11.1336L14.1504 11.6824C13.9986 11.8669 13.9986 12.1331 14.1504 12.3177L14.6018 12.8664C14.7342 13.0273 14.7529 13.2536 14.6487 13.4341L13.9952 14.5659C13.891 14.7464 13.6858 14.8434 13.4802 14.8092L12.7792 14.6926C12.5435 14.6534 12.313 14.7865 12.229 15.0102L11.9795 15.6756ZM10.5509 15H11.1649L11.2927 14.6591C11.5445 13.9878 12.2361 13.5885 12.9433 13.7061L13.3024 13.7659L13.6094 13.2341L13.3782 12.953C12.9226 12.3993 12.9226 11.6007 13.3782 11.047L13.6095 10.7659L13.3025 10.2341L12.9433 10.2939C12.2361 10.4115 11.5445 10.0122 11.2927 9.34088L11.1649 9H10.5509L10.423 9.34088C10.1713 10.0122 9.47967 10.4115 8.7724 10.2939L8.41326 10.2341L8.10626 10.7659L8.33757 11.047C8.79308 11.6007 8.79308 12.3993 8.33757 12.953L8.10628 13.2341L8.41328 13.7659L8.7724 13.7061C9.47967 13.5885 10.1713 13.9878 10.423 14.6591L10.5509 15Z" fill="#CED0D6"/>
<path fill-rule="evenodd" clip-rule="evenodd" d="M11.168 15H10.554L10.4262 14.6591C10.1744 13.9878 9.48277 13.5885 8.77551 13.7061L8.4164 13.7659L8.1094 13.2341L8.34068 12.953C8.79618 12.3993 8.79618 11.6007 8.34068 11.047L8.10938 10.7659L8.41638 10.2341L8.77551 10.2939C9.48277 10.4115 10.1744 10.0122 10.4262 9.34088L10.554 9H11.168L11.2958 9.34088C11.5476 10.0122 12.2392 10.4115 12.9464 10.2939L13.3056 10.2341L13.6126 10.7659L13.3813 11.047C12.9258 11.6007 12.9258 12.3993 13.3813 12.953L13.6126 13.2341L13.3056 13.7659L12.9464 13.7061C12.2392 13.5885 11.5476 13.9878 11.2958 14.6591L11.168 15ZM11.861 12C11.861 12.5523 11.4133 13 10.861 13C10.3088 13 9.86098 12.5523 9.86098 12C9.86098 11.4477 10.3088 11 10.861 11C11.4133 11 11.861 11.4477 11.861 12Z" fill="#43454A"/>
</svg>
