<svg width="16" height="16" viewBox="0 0 16 16" fill="none" xmlns="http://www.w3.org/2000/svg">
<path d="M11 1C12.1046 1 13 1.89543 13 3V7.76367L12.6973 7.81445L12.4473 7.14844C12.3008 6.75841 11.9281 6.50013 11.5117 6.5H10.2041C9.78748 6.50012 9.414 6.75834 9.26758 7.14844L9.01855 7.81445L8.31738 7.69727C7.90634 7.629 7.49552 7.82278 7.28711 8.18359L6.63379 9.31543C6.42545 9.67629 6.46277 10.1293 6.72754 10.4512L7.17871 11L6.72754 11.5488C6.46279 11.8707 6.42542 12.3237 6.63379 12.6846L6.81641 13H3C1.89543 13 1 12.1046 1 11V3C1 1.89543 1.89543 1 3 1H11Z" fill="#548AF7"/>
<path d="M2.13501 4.99999H6.87171V5.99999H5V11H4V5.99999H2.13501V4.99999Z" fill="white"/>
<path d="M9.6748 4.90039C10.0708 4.90039 10.4227 4.97286 10.7305 5.11816C11.0412 5.26351 11.2831 5.46624 11.457 5.72559C11.615 5.96135 11.7021 6.22741 11.7188 6.52441C11.6514 6.5101 11.5825 6.50002 11.5117 6.5H10.7012C10.6856 6.38304 10.6458 6.276 10.5811 6.17871C10.4956 6.04761 10.3756 5.94625 10.2217 5.875C10.0678 5.8038 9.88983 5.76758 9.6875 5.76758C9.48534 5.76759 9.30714 5.80179 9.15332 5.87012C8.99947 5.93852 8.87945 6.03573 8.79395 6.16113C8.70848 6.28651 8.66602 6.43239 8.66602 6.59766C8.66611 6.79127 8.72919 6.95917 8.85449 7.10156C8.94828 7.20594 9.0634 7.28074 9.2002 7.32617L9.01855 7.81445L8.31738 7.69727C8.21581 7.6804 8.11412 7.67868 8.01562 7.69238C7.94208 7.60308 7.87758 7.50669 7.82422 7.40137C7.71023 7.16769 7.65235 6.91217 7.65234 6.63574C7.65234 6.30514 7.73818 6.00829 7.90918 5.74609C8.08301 5.48117 8.32415 5.27511 8.63184 5.12695C8.93963 4.9759 9.28721 4.90039 9.6748 4.90039Z" fill="white"/>
<path d="M10.8579 12C11.4102 12 11.8579 11.5523 11.8579 11C11.8579 10.4477 11.4102 10 10.8579 10C10.3056 10 9.85791 10.4477 9.85791 11C9.85791 11.5523 10.3056 12 10.8579 12Z" fill="#CED0D6"/>
<path fill-rule="evenodd" clip-rule="evenodd" d="M11.9795 14.6756C11.9064 14.8707 11.7198 15 11.5114 15H10.2044C9.99597 15 9.80937 14.8707 9.73617 14.6756L9.48667 14.0102C9.40277 13.7865 9.17227 13.6534 8.93647 13.6926L8.23556 13.8092C8.02996 13.8434 7.82472 13.7464 7.72051 13.5659L7.06701 12.4341C6.96279 12.2536 6.98148 12.0273 7.1139 11.8664L7.56532 11.3177C7.71716 11.1331 7.71716 10.8669 7.56532 10.6824L7.11388 10.1336C6.98146 9.9727 6.96278 9.7464 7.06699 9.5659L7.72049 8.43405C7.8247 8.25355 8.02994 8.15663 8.23554 8.19083L8.93647 8.30742C9.17227 8.34664 9.40277 8.21353 9.48667 7.98976L9.73617 7.32444C9.80937 7.12929 9.99597 7 10.2044 7H11.5114C11.7198 7 11.9064 7.12929 11.9795 7.32444L12.229 7.98976C12.313 8.21353 12.5435 8.34664 12.7792 8.30742L13.4802 8.19083C13.6858 8.15663 13.891 8.25355 13.9952 8.43405L14.6487 9.5659C14.7529 9.7464 14.7343 9.9727 14.6018 10.1336L14.1504 10.6824C13.9986 10.8669 13.9986 11.1331 14.1504 11.3177L14.6018 11.8664C14.7342 12.0273 14.7529 12.2536 14.6487 12.4341L13.9952 13.5659C13.891 13.7464 13.6858 13.8434 13.4802 13.8092L12.7792 13.6926C12.5435 13.6534 12.313 13.7865 12.229 14.0102L11.9795 14.6756ZM10.5509 14H11.1649L11.2927 13.6591C11.5445 12.9878 12.2361 12.5885 12.9433 12.7061L13.3024 12.7659L13.6094 12.2341L13.3782 11.953C12.9226 11.3993 12.9226 10.6007 13.3782 10.047L13.6095 9.7659L13.3025 9.2341L12.9433 9.2939C12.2361 9.4115 11.5445 9.0122 11.2927 8.34088L11.1649 8H10.5509L10.423 8.34088C10.1713 9.0122 9.47967 9.4115 8.7724 9.2939L8.41326 9.2341L8.10626 9.7659L8.33757 10.047C8.79308 10.6007 8.79308 11.3993 8.33757 11.953L8.10628 12.2341L8.41328 12.7659L8.7724 12.7061C9.47967 12.5885 10.1713 12.9878 10.423 13.6591L10.5509 14Z" fill="#CED0D6"/>
<path fill-rule="evenodd" clip-rule="evenodd" d="M11.168 14H10.554L10.4262 13.6591C10.1744 12.9878 9.48277 12.5885 8.77551 12.7061L8.4164 12.7659L8.1094 12.2341L8.34068 11.953C8.79618 11.3993 8.79618 10.6007 8.34068 10.047L8.10938 9.7659L8.41638 9.2341L8.77551 9.2939C9.48277 9.4115 10.1744 9.0122 10.4262 8.34088L10.554 8H11.168L11.2958 8.34088C11.5476 9.0122 12.2392 9.4115 12.9464 9.2939L13.3056 9.2341L13.6126 9.7659L13.3813 10.047C12.9258 10.6007 12.9258 11.3993 13.3813 11.953L13.6126 12.2341L13.3056 12.7659L12.9464 12.7061C12.2392 12.5885 11.5476 12.9878 11.2958 13.6591L11.168 14ZM11.861 11C11.861 11.5523 11.4133 12 10.861 12C10.3088 12 9.86098 11.5523 9.86098 11C9.86098 10.4477 10.3088 10 10.861 10C11.4133 10 11.861 10.4477 11.861 11Z" fill="#43454A"/>
</svg>
