<svg width="16" height="16" viewBox="0 0 16 16" fill="none" xmlns="http://www.w3.org/2000/svg">
<mask id="mask0_31_744" style="mask-type:luminance" maskUnits="userSpaceOnUse" x="1" y="1" width="14" height="14">
<path d="M15 1H1V15H15V1Z" fill="white"/>
</mask>
<g mask="url(#mask0_31_744)">
<path d="M8 1.00342L14.1797 4.49658V11.4898L8 14.9863L1.82031 11.4898V4.49658L8 1.00342Z" fill="#484848"/>
<path d="M13.0757 11.247L8.20508 14.0054V11.8623L11.2402 10.1909L13.0757 11.247ZM13.4106 10.9463V5.18359L11.6298 6.2124V9.92089L13.4106 10.9463ZM2.9038 11.247L7.77782 14.0054V11.8589L4.73926 10.1909L2.9038 11.247ZM2.57227 10.9463V5.18359L4.35302 6.2124V9.92089L2.57227 10.9463ZM2.78076 4.81104L7.77782 1.98438V4.05908L4.57519 5.81933L4.54785 5.83301L2.78076 4.81104ZM13.1987 4.81104L8.20508 1.98438V4.05908L11.4043 5.82276L11.4317 5.83642L13.1987 4.81104Z" fill="#A6E1FF"/>
<path d="M7.77783 11.3736L4.78369 9.72266V6.46192L7.77783 8.18798V11.3736ZM8.20507 11.3736L11.1992 9.72608V6.46192L8.20507 8.18798V11.3736ZM4.98193 6.08252L7.98974 4.43164L10.9976 6.08252L7.98974 7.81885L4.98193 6.08252Z" fill="#45ADFF"/>
</g>
</svg>
