<svg width="16" height="16" viewBox="0 0 16 16" fill="none" xmlns="http://www.w3.org/2000/svg">
<g clip-path="url(#clip0_16_7)">
<path d="M8 0.00390625L15.0625 3.99609V11.9883L8 15.9844L0.9375 11.9883V3.99609L8 0.00390625Z" fill="#CED0D6"/>
<path d="M13.8008 11.7109L8.23438 14.8633V12.4141L11.7031 10.5039L13.8008 11.7109ZM14.1836 11.3672V4.78125L12.1484 5.95703V10.1953L14.1836 11.3672ZM2.17578 11.7109L7.74609 14.8633V12.4102L4.27344 10.5039L2.17578 11.7109ZM1.79688 11.3672V4.78125L3.83203 5.95703V10.1953L1.79688 11.3672ZM2.03516 4.35547L7.74609 1.125V3.49609L4.08594 5.50781L4.05469 5.52344L2.03516 4.35547ZM13.9414 4.35547L8.23438 1.125V3.49609L11.8906 5.51172L11.9219 5.52734L13.9414 4.35547Z" fill="#117BCE"/>
<path d="M7.74609 11.8555L4.32422 9.96875V6.24219L7.74609 8.21484V11.8555ZM8.23437 11.8555L11.6562 9.97266V6.24219L8.23437 8.21484V11.8555ZM4.55078 5.80859L7.98828 3.92188L11.4258 5.80859L7.98828 7.79297L4.55078 5.80859Z" fill="#003957"/>
</g>
<defs>
<clipPath id="clip0_16_7">
<rect width="16" height="16" fill="white"/>
</clipPath>
</defs>
</svg>
