<?xml version="1.0" encoding="UTF-8"?>
<svg xmlns="http://www.w3.org/2000/svg" xmlns:xlink="http://www.w3.org/1999/xlink" width="16px" height="16px" viewBox="0 0 16 16" version="1.1">
<g id="surface1">
<path style=" stroke:none;fill-rule:nonzero;fill:rgb(100%,100%,100%);fill-opacity:1;" d="M 8 0.00390625 L 15.0625 3.996094 L 15.0625 11.988281 L 8 15.984375 L 0.9375 11.988281 L 0.9375 3.996094 Z M 8 0.00390625 "/>
<path style=" stroke:none;fill-rule:nonzero;fill:rgb(55.686277%,83.92157%,98.431373%);fill-opacity:1;" d="M 13.800781 11.710938 L 8.234375 14.863281 L 8.234375 12.414062 L 11.703125 10.503906 Z M 14.183594 11.367188 L 14.183594 4.78125 L 12.148438 5.957031 L 12.148438 10.195312 Z M 2.175781 11.710938 L 7.746094 14.863281 L 7.746094 12.410156 L 4.273438 10.503906 Z M 1.796875 11.367188 L 1.796875 4.78125 L 3.832031 5.957031 L 3.832031 10.195312 Z M 2.035156 4.355469 L 7.746094 1.125 L 7.746094 3.496094 L 4.085938 5.507812 L 4.054688 5.523438 Z M 13.941406 4.355469 L 8.234375 1.125 L 8.234375 3.496094 L 11.890625 5.511719 L 11.921875 5.527344 Z M 13.941406 4.355469 "/>
<path style=" stroke:none;fill-rule:nonzero;fill:rgb(10.980392%,47.058824%,75.294119%);fill-opacity:1;" d="M 7.746094 11.855469 L 4.324219 9.96875 L 4.324219 6.242188 L 7.746094 8.214844 Z M 8.234375 11.855469 L 11.65625 9.972656 L 11.65625 6.242188 L 8.234375 8.214844 Z M 4.550781 5.808594 L 7.988281 3.921875 L 11.425781 5.808594 L 7.988281 7.792969 Z M 4.550781 5.808594 "/>
</g>
</svg>
