<svg width="16" height="16" viewBox="0 0 16 16" fill="none" xmlns="http://www.w3.org/2000/svg">
<path d="M6.12207 2C6.39435 2.0001 6.65524 2.11109 6.84375 2.30762L8.4668 4H13C14.1045 4 15 4.89542 15 6V7.92969L14.6426 7.57227L14.5215 7.45996C14.4332 7.38381 14.3285 7.3059 14.2051 7.23633L14.0049 7.13867L13.7969 7.06836C13.5939 7.013 13.4075 7.00004 13.2568 7H10.7432C10.4939 6.99682 10.2442 7.0415 10.0088 7.13379L9.99609 7.13867C9.70901 7.25584 9.50196 7.42845 9.35645 7.57324L7.5752 9.35449C7.39709 9.52792 7.25205 9.73517 7.15039 9.96777L7.14648 9.97559L7.14355 9.98438C7.02572 10.2677 7 10.5338 7 10.7432V13.2559C6.99761 13.4429 7.0232 13.6297 7.07422 13.8105L7.1377 14H2.63379C1.73868 14 1 13.1716 1 12.1328V3.86621C1.00022 2.8276 1.73882 2 2.63379 2H6.12207Z" fill="#EBECF0"/>
<path d="M6.12207 2C6.39435 2.0001 6.65524 2.11109 6.84375 2.30762L8.4668 4H13C14.1045 4 15 4.89542 15 6V7.92969L14.6445 7.5752L14.6416 7.57227L14.5215 7.45996C14.4332 7.38379 14.3276 7.30598 14.2041 7.23633L14.0039 7.13867L14 7.13672V6C14 5.44772 13.5523 5 13 5H8.04004L7.89258 4.8457L7.74512 4.69238L6.12207 3H2.63379C2.39837 3 2.0002 3.26616 2 3.86621V12.1328C2 12.7332 2.39832 13 2.63379 13H7V13.2559C6.99761 13.4428 7.02312 13.6303 7.07422 13.8115L7.13672 14H2.63379C1.73868 14 1 13.1716 1 12.1328V3.86621C1.00022 2.8276 1.73882 2 2.63379 2H6.12207Z" fill="#6C707E"/>
<path d="M10.3744 8.06514C10.4919 8.01906 10.6174 7.99702 10.7436 8.00032H13.2567C13.3806 8.00032 13.5037 8.01509 13.6259 8.06514C13.7482 8.11519 13.8475 8.19231 13.9385 8.28256L15.7178 10.0617C15.808 10.1524 15.8851 10.2516 15.9352 10.3743C15.9856 10.4965 16 10.6196 16 10.7435V13.2565C16 13.3849 15.984 13.5092 15.9331 13.6315C15.8826 13.7471 15.8093 13.8515 15.7178 13.9383L13.9385 15.7174C13.8502 15.8104 13.7438 15.8844 13.6259 15.9349C13.5084 15.9809 13.3829 16.003 13.2567 15.9997H10.7436C10.6152 15.9997 10.4909 15.9837 10.3686 15.9328C10.253 15.8823 10.1486 15.809 10.0618 15.7174L8.28257 13.9383C8.1896 13.85 8.11562 13.7436 8.06514 13.6257C8.01906 13.5082 7.99702 13.3827 8.00032 13.2565V10.7435C8.00032 10.6151 8.01632 10.4908 8.06719 10.3685C8.11774 10.2529 8.19097 10.1485 8.28257 10.0617L10.0618 8.28256C10.1524 8.19231 10.2517 8.11519 10.3744 8.06514ZM12.7374 10.4387C12.7478 10.3996 12.7505 10.3589 12.7452 10.3188C12.7399 10.2787 12.7268 10.2401 12.7065 10.2051C12.6657 10.1344 12.5984 10.0828 12.5195 10.0617C12.4406 10.0406 12.3566 10.0517 12.2859 10.0925C12.2152 10.1334 12.1636 10.2006 12.1425 10.2795L11.2634 13.5613C11.2423 13.6401 11.2533 13.7241 11.2941 13.7948C11.335 13.8654 11.4022 13.917 11.481 13.9381C11.5598 13.9592 11.6438 13.9481 11.7145 13.9073C11.7851 13.8665 11.8367 13.7993 11.8578 13.7205L12.7374 10.4387ZM13.4106 10.8387C13.3824 10.8084 13.3484 10.7842 13.3107 10.7674C13.2729 10.7506 13.2322 10.7415 13.1909 10.7408C13.1496 10.7401 13.1085 10.7477 13.0702 10.7631C13.0319 10.7786 12.9971 10.8016 12.9679 10.8308C12.9387 10.8601 12.9157 10.8949 12.9002 10.9332C12.8847 10.9715 12.8771 11.0125 12.8778 11.0538C12.8786 11.0951 12.8876 11.1359 12.9044 11.1736C12.9212 11.2114 12.9455 11.2453 12.9757 11.2735L13.0295 11.3276C13.2456 11.5434 13.3851 11.6841 13.4746 11.8015C13.5587 11.9114 13.5689 11.9639 13.5689 12C13.5689 12.0361 13.5587 12.0886 13.4746 12.1985C13.3851 12.3159 13.2456 12.4566 13.0295 12.6724L12.9757 12.7261C12.9196 12.7841 12.8886 12.8618 12.8893 12.9425C12.8899 13.0231 12.9222 13.1003 12.9793 13.1574C13.0363 13.2145 13.1134 13.2469 13.1941 13.2476C13.2748 13.2483 13.3525 13.2174 13.4106 13.1613L13.4791 13.0928C13.6768 12.8959 13.8462 12.7261 13.9636 12.5719C14.0895 12.4069 14.1839 12.2248 14.1839 12C14.1839 11.7752 14.0895 11.5931 13.9636 11.4281C13.8462 11.2739 13.6764 11.1045 13.4795 10.9072L13.4106 10.8387ZM11.0246 10.8387C10.9669 10.781 10.8887 10.7487 10.8072 10.7487C10.7256 10.7487 10.6474 10.781 10.5898 10.8387L10.5212 10.9072C10.3239 11.1041 10.1541 11.2739 10.0368 11.4281C9.91081 11.5931 9.81646 11.7752 9.81646 12C9.81646 12.2248 9.91081 12.4069 10.0368 12.5719C10.1541 12.7261 10.3239 12.8959 10.5208 13.0928L10.5898 13.1613C10.6179 13.1916 10.6519 13.2158 10.6896 13.2326C10.7274 13.2494 10.7681 13.2585 10.8094 13.2592C10.8507 13.2599 10.8918 13.2523 10.9301 13.2369C10.9684 13.2214 11.0032 13.1984 11.0324 13.1692C11.0616 13.1399 11.0847 13.1051 11.1001 13.0668C11.1156 13.0285 11.1232 12.9875 11.1225 12.9462C11.1218 12.9049 11.1127 12.8641 11.0959 12.8264C11.0791 12.7886 11.0548 12.7547 11.0246 12.7265L10.9709 12.6724C10.7547 12.4566 10.6152 12.3159 10.5258 12.1985C10.4417 12.0886 10.4314 12.0361 10.4314 12C10.4314 11.9639 10.4417 11.9114 10.5258 11.8015C10.6152 11.6841 10.7547 11.5434 10.9709 11.3276L11.0246 11.2739C11.0822 11.2162 11.1146 11.138 11.1146 11.0565C11.1146 10.975 11.0822 10.8968 11.0246 10.8391" fill="#834DF0"/>
</svg>
