<svg width="16" height="16" viewBox="0 0 16 16" fill="none" xmlns="http://www.w3.org/2000/svg">
<path d="M6.12207 2C6.39435 2.0001 6.65524 2.11109 6.84375 2.30762L8.4668 4H13C14.1045 4 15 4.89542 15 6V7.26953C14.7056 7.09906 14.3646 7 14 7H9C7.89543 7 7 7.89543 7 9V14H2.63379C1.73868 14 1 13.1716 1 12.1328V3.86621C1.00022 2.8276 1.73882 2 2.63379 2H6.12207Z" fill="#EBECF0"/>
<path d="M6.12207 2C6.39435 2.0001 6.65524 2.11109 6.84375 2.30762L8.4668 4H13C14.1045 4 15 4.89542 15 6V7.26953C14.7056 7.09906 14.3646 7 14 7V6C14 5.44772 13.5523 5 13 5H8.04004L7.89258 4.8457L7.74512 4.69238L6.12207 3H2.63379C2.39837 3 2.0002 3.26616 2 3.86621V12.1328C2 12.7332 2.39832 13 2.63379 13H7V14H2.63379C1.73868 14 1 13.1716 1 12.1328V3.86621C1.00022 2.8276 1.73882 2 2.63379 2H6.12207Z" fill="#6C707E"/>
<path d="M14 8H9C8.44772 8 8 8.44772 8 9V14C8 14.5523 8.44772 15 9 15H14C14.5523 15 15 14.5523 15 14V9C15 8.44772 14.5523 8 14 8Z" fill="#161514"/>
<path d="M9.5 13.5H11.5" stroke="white" stroke-linecap="round" stroke-linejoin="round"/>
<path d="M9.146 11C9.13933 11 9.13333 10.998 9.128 10.994C9.124 10.9887 9.122 10.9827 9.122 10.976V9.624C9.122 9.61733 9.124 9.612 9.128 9.608C9.13333 9.60267 9.13933 9.6 9.146 9.6H9.38C9.38667 9.6 9.392 9.60267 9.396 9.608C9.40133 9.612 9.404 9.61733 9.404 9.624V10.976C9.404 10.9827 9.40133 10.9887 9.396 10.994C9.392 10.998 9.38667 11 9.38 11H9.146ZM9.67139 11C9.66472 11 9.65872 10.998 9.65339 10.994C9.64939 10.9887 9.64739 10.9827 9.64739 10.976V9.624C9.64739 9.61733 9.64939 9.612 9.65339 9.608C9.65872 9.60267 9.66472 9.6 9.67139 9.6H10.1714C10.2714 9.6 10.3587 9.618 10.4334 9.654C10.5094 9.68867 10.5681 9.738 10.6094 9.802C10.6507 9.866 10.6714 9.94 10.6714 10.024V10.576C10.6714 10.66 10.6507 10.734 10.6094 10.798C10.5681 10.862 10.5094 10.912 10.4334 10.948C10.3587 10.9827 10.2714 11 10.1714 11H9.67139ZM9.92939 10.748C9.92939 10.7547 9.93272 10.758 9.93939 10.758H10.1814C10.2427 10.758 10.2921 10.7373 10.3294 10.696C10.3681 10.6547 10.3881 10.5993 10.3894 10.53V10.07C10.3894 10.0007 10.3701 9.94533 10.3314 9.904C10.2941 9.86267 10.2434 9.842 10.1794 9.842H9.93939C9.93272 9.842 9.92939 9.84533 9.92939 9.852V10.748ZM11.8557 9.818C11.8557 9.82467 11.8531 9.83067 11.8477 9.836C11.8437 9.84 11.8384 9.842 11.8317 9.842H11.1757C11.1691 9.842 11.1657 9.84533 11.1657 9.852V10.162C11.1657 10.1687 11.1691 10.172 11.1757 10.172H11.6057C11.6124 10.172 11.6177 10.1747 11.6217 10.18C11.6271 10.184 11.6297 10.1893 11.6297 10.196V10.39C11.6297 10.3967 11.6271 10.4027 11.6217 10.408C11.6177 10.412 11.6124 10.414 11.6057 10.414H11.1757C11.1691 10.414 11.1657 10.4173 11.1657 10.424V10.748C11.1657 10.7547 11.1691 10.758 11.1757 10.758H11.8317C11.8384 10.758 11.8437 10.7607 11.8477 10.766C11.8531 10.77 11.8557 10.7753 11.8557 10.782V10.976C11.8557 10.9827 11.8531 10.9887 11.8477 10.994C11.8437 10.998 11.8384 11 11.8317 11H10.9077C10.9011 11 10.8951 10.998 10.8897 10.994C10.8857 10.9887 10.8837 10.9827 10.8837 10.976V9.624C10.8837 9.61733 10.8857 9.612 10.8897 9.608C10.8951 9.60267 10.9011 9.6 10.9077 9.6H11.8317C11.8384 9.6 11.8437 9.60267 11.8477 9.608C11.8531 9.612 11.8557 9.61733 11.8557 9.624V9.818ZM12.9417 11C12.9284 11 12.9197 10.9933 12.9157 10.98L12.8557 10.784C12.853 10.7787 12.8497 10.776 12.8457 10.776H12.3537C12.3497 10.776 12.3464 10.7787 12.3437 10.784L12.2857 10.98C12.2817 10.9933 12.273 11 12.2597 11H12.0057C11.9977 11 11.9917 10.998 11.9877 10.994C11.9837 10.9887 11.983 10.9813 11.9857 10.972L12.4177 9.62C12.4217 9.60667 12.4304 9.6 12.4437 9.6H12.7577C12.771 9.6 12.7797 9.60667 12.7837 9.62L13.2157 10.972C13.217 10.9747 13.2177 10.978 13.2177 10.982C13.2177 10.994 13.2104 11 13.1957 11H12.9417ZM12.4157 10.546C12.4144 10.554 12.417 10.558 12.4237 10.558H12.7757C12.7837 10.558 12.7864 10.554 12.7837 10.546L12.6037 9.952C12.6024 9.94667 12.6004 9.94467 12.5977 9.946C12.595 9.946 12.593 9.948 12.5917 9.952L12.4157 10.546Z" fill="white"/>
</svg>
