<svg width="16" height="16" viewBox="0 0 16 16" fill="none" xmlns="http://www.w3.org/2000/svg">
<path d="M6.12207 2C6.39435 2.0001 6.65524 2.11109 6.84375 2.30762L8.4668 4H13C14.1045 4 15 4.89542 15 6V8.25195C14.7826 8.18535 14.5492 8.1653 14.3154 8.2041L14.0215 8.25293L13.917 7.97363L13.916 7.97266L13.8711 7.86523C13.6257 7.33936 13.0959 7.0002 12.5117 7H11.2051C10.582 7.00004 10.0202 7.38578 9.7998 7.97266L9.79883 7.97363L9.69336 8.25293L9.40039 8.2041L9.28418 8.18945C8.74645 8.14246 8.22301 8.38906 7.91699 8.83496L7.85449 8.93359L7.20117 10.0654C6.88878 10.6066 6.9442 11.2864 7.3418 11.7695L7.53223 12L7.3418 12.2305C6.94421 12.7136 6.88878 13.3934 7.20117 13.9346L7.23926 14H2.63379C1.73868 14 1 13.1716 1 12.1328V3.86621C1.00022 2.8276 1.73882 2 2.63379 2H6.12207Z" fill="#EBECF0"/>
<path d="M10.7881 13.8984C10.7846 13.8964 10.7808 13.8946 10.7773 13.8926C10.7761 13.8918 10.7747 13.8914 10.7734 13.8906C10.7782 13.8934 10.7833 13.8956 10.7881 13.8984Z" fill="#EBECF0"/>
<path d="M10.7139 13.8574C10.7341 13.8679 10.7538 13.8792 10.7734 13.8906C10.7477 13.8757 10.7219 13.8611 10.6953 13.8477C10.7015 13.8508 10.7077 13.8542 10.7139 13.8574Z" fill="#EBECF0"/>
<path d="M10.4961 13.7646C10.4525 13.7499 10.4083 13.7362 10.3633 13.7256L10.3613 13.7246C10.4071 13.7353 10.4518 13.7497 10.4961 13.7646Z" fill="#EBECF0"/>
<path d="M13.6855 13.6855C13.7276 13.6852 13.77 13.6871 13.8125 13.6904C13.8558 13.6938 13.8989 13.6988 13.9424 13.7061L14.0752 13.7275L14.1855 13.7461L13.9424 13.7061C13.8551 13.6916 13.7676 13.6847 13.6816 13.6855C13.6828 13.6855 13.6844 13.6856 13.6855 13.6855Z" fill="#EBECF0"/>
<path d="M12.0615 12.9785C12.029 12.9852 11.9957 12.9907 11.9619 12.9941L12.0615 12.9785Z" fill="#EBECF0"/>
<path d="M10.2637 10.2939L10.1514 10.3076C10.2136 10.3021 10.2746 10.2905 10.335 10.2773C10.3112 10.2825 10.2878 10.29 10.2637 10.2939Z" fill="#EBECF0"/>
<path d="M13.2891 9.09961C13.282 9.08953 13.2739 9.08002 13.2676 9.06934C13.264 9.06336 13.2612 9.05692 13.2578 9.05078C13.2675 9.06761 13.278 9.08391 13.2891 9.09961Z" fill="#EBECF0"/>
<path d="M6.12207 2C6.39435 2.0001 6.65524 2.11109 6.84375 2.30762L8.4668 4H13C14.1045 4 15 4.89542 15 6V8.25195C14.7826 8.18535 14.5492 8.1653 14.3154 8.2041L14.0215 8.25293L14 8.19531V6C14 5.44772 13.5523 5 13 5H8.04004L7.89258 4.8457L7.74512 4.69238L6.12207 3H2.63379C2.39837 3 2.0002 3.26616 2 3.86621V12.1328C2 12.7332 2.39832 13 2.63379 13H7.0127C6.97359 13.317 7.03431 13.6455 7.20117 13.9346L7.23926 14H2.63379C1.73868 14 1 13.1716 1 12.1328V3.86621C1.00022 2.8276 1.73882 2 2.63379 2H6.12207Z" fill="#6C707E"/>
<path d="M10.7881 13.8984C10.7846 13.8964 10.7808 13.8946 10.7773 13.8926L10.7734 13.8906C10.7782 13.8934 10.7833 13.8956 10.7881 13.8984Z" fill="#6C707E"/>
<path d="M10.7139 13.8574C10.7341 13.8679 10.7538 13.8792 10.7734 13.8906C10.7477 13.8757 10.7219 13.8611 10.6953 13.8477C10.7015 13.8508 10.7077 13.8542 10.7139 13.8574Z" fill="#6C707E"/>
<path d="M10.4961 13.7646C10.4525 13.7499 10.4083 13.7362 10.3633 13.7256L10.3613 13.7246C10.4071 13.7353 10.4518 13.7497 10.4961 13.7646Z" fill="#6C707E"/>
<path d="M13.6855 13.6855C13.7276 13.6852 13.77 13.6871 13.8125 13.6904C13.8558 13.6938 13.8989 13.6988 13.9424 13.7061L14.0752 13.7275L14.1855 13.7461L13.9424 13.7061C13.8551 13.6916 13.7676 13.6847 13.6816 13.6855H13.6855Z" fill="#6C707E"/>
<path d="M11.8579 13C12.4101 13 12.8579 12.5523 12.8579 12C12.8579 11.4477 12.4101 11 11.8579 11C11.3056 11 10.8579 11.4477 10.8579 12C10.8579 12.5523 11.3056 13 11.8579 13Z" fill="#161514"/>
<path fill-rule="evenodd" clip-rule="evenodd" d="M12.9796 15.6756C12.9064 15.8707 12.7198 16 12.5114 16H11.2044C10.996 16 10.8094 15.8707 10.7362 15.6756L10.4867 15.0102C10.4028 14.7865 10.1723 14.6534 9.93645 14.6926L9.23556 14.8092C9.02996 14.8434 8.82472 14.7464 8.72051 14.5659L8.06701 13.4341C7.9628 13.2536 7.98148 13.0273 8.1139 12.8664L8.56533 12.3177C8.71716 12.1331 8.71716 11.8669 8.56533 11.6824L8.11388 11.1336C7.98146 10.9727 7.96278 10.7464 8.06699 10.5659L8.72049 9.43405C8.8247 9.25355 9.02995 9.15663 9.23554 9.19083L9.93645 9.30742C10.1723 9.34664 10.4028 9.21353 10.4867 8.98976L10.7362 8.32444C10.8094 8.12929 10.996 8 11.2044 8H12.5114C12.7198 8 12.9064 8.12929 12.9796 8.32444L13.2291 8.98976C13.313 9.21353 13.5435 9.34664 13.7793 9.30742L14.4802 9.19083C14.6858 9.15663 14.8911 9.25355 14.9953 9.43405L15.6488 10.5659C15.753 10.7464 15.7343 10.9727 15.6019 11.1336L15.1504 11.6824C14.9986 11.8669 14.9986 12.1331 15.1504 12.3177L15.6019 12.8664C15.7343 13.0273 15.753 13.2536 15.6487 13.4341L14.9952 14.5659C14.891 14.7464 14.6858 14.8434 14.4802 14.8092L13.7793 14.6926C13.5435 14.6534 13.313 14.7865 13.2291 15.0102L12.9796 15.6756ZM11.5509 15H12.1649L12.2927 14.6591C12.5445 13.9878 13.2361 13.5885 13.9433 13.7061L14.3025 13.7659L14.6095 13.2341L14.3782 12.953C13.9227 12.3993 13.9227 11.6007 14.3782 11.047L14.6095 10.7659L14.3025 10.2341L13.9433 10.2939C13.2361 10.4115 12.5445 10.0122 12.2927 9.34088L12.1649 9H11.5509L11.4231 9.34088C11.1713 10.0122 10.4797 10.4115 9.7724 10.2939L9.41326 10.2341L9.10626 10.7659L9.33757 11.047C9.79308 11.6007 9.79308 12.3993 9.33757 12.953L9.10628 13.2341L9.41328 13.7659L9.7724 13.7061C10.4797 13.5885 11.1713 13.9878 11.4231 14.6591L11.5509 15Z" fill="#161514"/>
<path fill-rule="evenodd" clip-rule="evenodd" d="M12.169 15H11.555L11.4272 14.6591C11.1754 13.9878 10.4838 13.5885 9.77649 13.7061L9.41737 13.7659L9.11037 13.2341L9.34166 12.953C9.79716 12.3993 9.79716 11.6007 9.34166 11.047L9.11035 10.7659L9.41735 10.2341L9.77649 10.2939C10.4838 10.4115 11.1754 10.0122 11.4272 9.34088L11.555 9H12.169L12.2968 9.34088C12.5486 10.0122 13.2402 10.4115 13.9474 10.2939L14.3066 10.2341L14.6136 10.7659L14.3823 11.047C13.9268 11.6007 13.9268 12.3993 14.3823 12.953L14.6136 13.2341L14.3066 13.7659L13.9474 13.7061C13.2402 13.5885 12.5486 13.9878 12.2968 14.6591L12.169 15ZM12.862 12C12.862 12.5523 12.4143 13 11.862 13C11.3098 13 10.862 12.5523 10.862 12C10.862 11.4477 11.3098 11 11.862 11C12.4143 11 12.862 11.4477 12.862 12Z" fill="#EBECF0"/>
</svg>
