<svg width="16" height="16" viewBox="0 0 16 16" fill="none" xmlns="http://www.w3.org/2000/svg">
<path d="M13.36 9.16998L14.5 7.59998M7.51999 7.59998L8.65999 9.16998" stroke="#208A3C" stroke-miterlimit="10" stroke-linecap="round"/>
<path fill-rule="evenodd" clip-rule="evenodd" d="M15.01 14V12.4C15.01 10.19 13.22 8.40002 11.01 8.40002C8.79999 8.40002 7.00999 10.19 7.00999 12.4V14H15.01Z" fill="#F2FCF3" stroke="#208A3C" stroke-linejoin="round"/>
<path d="M9.60999 12.2C9.76912 12.2 9.92174 12.1368 10.0343 12.0243C10.1468 11.9117 10.21 11.7591 10.21 11.6C10.21 11.4409 10.1468 11.2883 10.0343 11.1757C9.92174 11.0632 9.76912 11 9.60999 11C9.45087 11 9.29825 11.0632 9.18573 11.1757C9.07321 11.2883 9.00999 11.4409 9.00999 11.6C9.00999 11.7591 9.07321 11.9117 9.18573 12.0243C9.29825 12.1368 9.45087 12.2 9.60999 12.2ZM12.41 12.2C12.5691 12.2 12.7217 12.1368 12.8343 12.0243C12.9468 11.9117 13.01 11.7591 13.01 11.6C13.01 11.4409 12.9468 11.2883 12.8343 11.1757C12.7217 11.0632 12.5691 11 12.41 11C12.2509 11 12.0983 11.0632 11.9857 11.1757C11.8732 11.2883 11.81 11.4409 11.81 11.6C11.81 11.7591 11.8732 11.9117 11.9857 12.0243C12.0983 12.1368 12.2509 12.2 12.41 12.2Z" fill="#208A3C"/>
<path d="M5.51 12.4C5.51 11.16 5.93 9.97 6.69 9.01L6.3 8.47C6.07 8.15 5.97 7.75 6.03 7.36C6.09 6.96 6.31 6.61 6.63 6.38C6.9 6.19 7.2 6.1 7.51 6.1C7.99 6.1 8.44 6.33 8.72 6.71L9.1 7.24C9.7 7.02 10.34 6.9 11 6.9C11.66 6.9 12.3 7.02 12.9 7.24L13.28 6.71C13.46 6.46 13.71 6.29 14 6.19V5.5C14 4.67 13.33 4 12.5 4H7.69L5.8 2H2.5C1.67 2 1 2.67 1 3.5V11.5C1 12.33 1.67 13 2.5 13H5.5V12.4H5.51Z" fill="#EBECF0"/>
<path d="M14.01 5.66V5.5C14.01 4.67 13.34 4 12.51 4H7.69999L5.80999 2H2.50999C1.67999 2 1.00999 2.67 1.00999 3.5V11.5C1.00999 12.33 1.67999 13 2.50999 13H5.00999" stroke="#6C707E" stroke-linecap="round" stroke-linejoin="round"/>
</svg>
