<svg width="16" height="16" viewBox="0 0 16 16" fill="none" xmlns="http://www.w3.org/2000/svg">
<path d="M7.89 12C7.64003 11.7268 7.50097 11.3703 7.5 11V9C7.5 8.173 8.173 7.5 9 7.5H11C11.386 7.5 11.734 7.65 12 7.89C12.266 7.65 12.614 7.5 13 7.5H14V5.5C14 5.10218 13.842 4.72064 13.5607 4.43934C13.2794 4.15804 12.8978 4 12.5 4H7.692L5.8 2H2.5C2.10218 2 1.72064 2.15804 1.43934 2.43934C1.15804 2.72064 1 3.10218 1 3.5V11.5C1 11.8978 1.15804 12.2794 1.43934 12.5607C1.72064 12.842 2.10218 13 2.5 13H7.5C7.5 12.614 7.65 12.266 7.89 12Z" fill="#EBECF0"/>
<path d="M14 7V5.5C14 5.10218 13.842 4.72064 13.5607 4.43934C13.2794 4.15804 12.8978 4 12.5 4H7.692L5.8 2H2.5C2.10218 2 1.72064 2.15804 1.43934 2.43934C1.15804 2.72064 1 3.10218 1 3.5V11.5C1 11.8978 1.15804 12.2794 1.43934 12.5607C1.72064 12.842 2.10218 13 2.5 13H7" stroke="#6C707E" stroke-linecap="round" stroke-linejoin="round"/>
<path d="M11 13H9V15H11V13ZM11 9H9V11H11V9ZM15 9H13V11H15V9ZM15 13H13V15H15V13Z" fill="#EDF3FF" stroke="#3574F0" stroke-linecap="round" stroke-linejoin="round"/>
</svg>
