<svg width="16" height="16" viewBox="0 0 16 16" fill="none" xmlns="http://www.w3.org/2000/svg">
<path d="M5.62207 3C5.75816 3.0001 5.88822 3.05609 5.98242 3.1543L7.60547 4.8457L7.75391 5H12.5C13.3284 5 14 5.67157 14 6.5V8.37207L12.21 7.5459H11.79L7.79004 9.39258L7.5 9.8457V14H2.13379C1.5685 14 1 13.4524 1 12.6328V4.36621C1.00021 3.54687 1.5686 3 2.13379 3H5.62207Z" fill="#EBECF0"/>
<path d="M5.62207 2.5C5.89435 2.5001 6.15524 2.61109 6.34375 2.80762L7.9668 4.5H12.5C13.6045 4.5 14.5 5.39542 14.5 6.5V8.60254L13.5 8.14062V6.5C13.5 5.94772 13.0523 5.5 12.5 5.5H7.54004L7.39258 5.3457L7.24512 5.19238L5.62207 3.5H2.13379C1.89837 3.5 1.5002 3.76616 1.5 4.36621V12.6328C1.5 13.2332 1.89832 13.5 2.13379 13.5H7.5V14.166L7.71484 14.5H2.13379C1.23868 14.5 0.5 13.6716 0.5 12.6328V4.36621C0.500217 3.3276 1.23882 2.5 2.13379 2.5H5.62207Z" fill="#6C707E"/>
<path fill-rule="evenodd" clip-rule="evenodd" d="M12 11.7307L15.5 10.1154V13.8953L12 15.5V11.7307Z" fill="#E7EFFD" stroke="#3574F0" stroke-width="0.7" stroke-linejoin="bevel"/>
<path fill-rule="evenodd" clip-rule="evenodd" d="M12 11.7307L8.5 10.1154V13.8953L12 15.5V11.7307Z" fill="#E7EFFD" stroke="#3574F0" stroke-width="0.7" stroke-linejoin="bevel"/>
<path fill-rule="evenodd" clip-rule="evenodd" d="M15.5 10.1154L12 8.5L8.5 10.1154L12 11.7308L15.5 10.1154Z" fill="#E7EFFD" stroke="#3574F0" stroke-width="0.7" stroke-linejoin="bevel"/>
<path d="M12 11.7308L15.5 10.1154M12 11.7308V15.5M12 11.7308L8.5 10.1154M15.5 10.1154V13.8953L12 15.5M15.5 10.1154L12 8.5L8.5 10.1154M12 15.5L8.5 13.8953V10.1154" stroke="#3574F0" stroke-width="0.7" stroke-linecap="round" stroke-linejoin="bevel"/>
</svg>
