<svg width="16" height="16" viewBox="0 0 16 16" fill="none" xmlns="http://www.w3.org/2000/svg">
<path d="M13.989 10.652C13.9556 10.6084 13.9375 10.555 13.9375 10.5C13.9375 10.4451 13.9556 10.3916 13.989 10.348L14.722 9.39C14.7524 9.35099 14.7705 9.30377 14.7739 9.25441C14.7773 9.20505 14.7658 9.1558 14.741 9.113L14.321 8.387C14.2964 8.34435 14.2597 8.30993 14.2156 8.28804C14.1715 8.26616 14.1219 8.2578 14.073 8.264L12.876 8.421C12.8216 8.42806 12.7663 8.417 12.7188 8.38953C12.6712 8.36206 12.6341 8.3197 12.613 8.269L12.15 7.154C12.1311 7.10854 12.0992 7.06966 12.0583 7.04227C12.0173 7.01487 11.9692 7.00017 11.92 7H11.082C11.0324 6.99977 10.9839 7.01429 10.9426 7.04171C10.9013 7.06913 10.869 7.10822 10.85 7.154L10.389 8.269C10.3679 8.3197 10.3308 8.36206 10.2832 8.38953C10.2357 8.417 10.1804 8.42806 10.126 8.421L8.928 8.264C8.87898 8.25759 8.82917 8.26585 8.78485 8.28775C8.74053 8.30964 8.70369 8.34418 8.679 8.387L8.26 9.113C8.23529 9.15579 8.22382 9.20493 8.22702 9.25423C8.23022 9.30353 8.24796 9.35078 8.278 9.39L9.012 10.348C9.04541 10.3916 9.06351 10.4451 9.06351 10.5C9.06351 10.555 9.04541 10.6084 9.012 10.652L8.278 11.61C8.24771 11.6491 8.22982 11.6964 8.22661 11.7457C8.2234 11.7951 8.23503 11.8443 8.26 11.887L8.68 12.613C8.70462 12.6557 8.7413 12.6901 8.78542 12.712C8.82954 12.7338 8.87914 12.7422 8.928 12.736L10.125 12.579C10.1796 12.5717 10.2351 12.5827 10.2828 12.6101C10.3306 12.6376 10.3679 12.6801 10.389 12.731L10.851 13.846C10.8699 13.8915 10.9018 13.9303 10.9427 13.9577C10.9837 13.9851 11.0318 13.9998 11.081 14H11.919C11.9684 14 12.0167 13.9854 12.0578 13.958C12.099 13.9306 12.131 13.8916 12.15 13.846L12.613 12.731C12.6341 12.6803 12.6712 12.6379 12.7188 12.6105C12.7663 12.583 12.8216 12.5719 12.876 12.579L14.073 12.736C14.1219 12.7422 14.1715 12.7338 14.2156 12.712C14.2597 12.6901 14.2964 12.6557 14.321 12.613L14.741 11.887C14.7657 11.8442 14.7772 11.7951 14.774 11.7458C14.7708 11.6965 14.753 11.6492 14.723 11.61L13.988 10.652H13.989ZM11.5 11C11.3674 11 11.2402 10.9473 11.1464 10.8536C11.0527 10.7598 11 10.6326 11 10.5C11 10.3674 11.0527 10.2402 11.1464 10.1464C11.2402 10.0527 11.3674 10 11.5 10C11.6326 10 11.7598 10.0527 11.8536 10.1464C11.9473 10.2402 12 10.3674 12 10.5C12 10.6326 11.9473 10.7598 11.8536 10.8536C11.7598 10.9473 11.6326 11 11.5 11Z" fill="#EDF3FF" stroke="#3574F0" stroke-linejoin="round"/>
<path d="M7.08201 10.702L7.23801 10.499L7.08701 10.301C6.87446 10.0264 6.74921 9.69431 6.72746 9.34774C6.70571 9.00116 6.78846 8.65603 6.96501 8.357L7.37801 7.638C7.53301 7.37155 7.75527 7.15049 8.02255 6.99693C8.28983 6.84337 8.59276 6.7627 8.90101 6.763H8.95801L9.10401 6.775L9.37001 6.809L9.46501 6.58C9.59708 6.25994 9.82132 5.98637 10.1092 5.79407C10.3972 5.60176 10.7358 5.4994 11.082 5.5H11.92C12.628 5.5 13.263 5.923 13.536 6.576C13.57 6.657 13.776 6.768 14.001 6.768V4.5C14.001 4.10218 13.843 3.72064 13.5617 3.43934C13.2804 3.15804 12.8988 3 12.501 3H7.69301L5.80101 1H2.50101C2.10318 1 1.72165 1.15804 1.44035 1.43934C1.15904 1.72064 1.00101 2.10218 1.00101 2.5V10.5C1.00101 10.8978 1.15904 11.2794 1.44035 11.5607C1.72165 11.842 2.10318 12 2.50101 12H6.75701C6.72298 11.7728 6.73427 11.5412 6.79022 11.3184C6.84617 11.0956 6.94568 10.8861 7.08301 10.702H7.08201Z" fill="#EBECF0"/>
<path d="M14 6.264V4.5C14 4.10218 13.842 3.72064 13.5607 3.43934C13.2794 3.15804 12.8978 3 12.5 3H7.692L5.8 1H2.5C2.10218 1 1.72064 1.15804 1.43934 1.43934C1.15804 1.72064 1 2.10218 1 2.5V10.5C1 10.8978 1.15804 11.2794 1.43934 11.5607C1.72064 11.842 2.10218 12 2.5 12H6.236" stroke="#6C707E" stroke-linecap="round" stroke-linejoin="round"/>
</svg>
