<svg width="16" height="16" viewBox="0 0 16 16" fill="none" xmlns="http://www.w3.org/2000/svg">
<path d="M2.63333 1C1.73127 1 1 1.83574 1 2.86667V11.1333C1 12.1643 1.73127 13 2.63333 13H7.12602C7.47991 11.625 8.5465 10.5362 9.90851 10.1507C9.34811 9.6057 9 8.84349 9 8C9 6.34315 10.3431 5 12 5C13.6569 5 15 6.34315 15 8V5C15 3.89543 14.1046 3 13 3H8.46667L6.84336 1.30775C6.65477 1.11115 6.39413 1 6.1217 1H2.63333Z" fill="#EBECF0"/>
<path fill-rule="evenodd" clip-rule="evenodd" d="M14 8C14 9.1046 13.1046 10 12 10C10.8954 10 10 9.1046 10 8C10 6.89543 10.8954 6 12 6C13.1046 6 14 6.89543 14 8ZM13 8C13 8.55228 12.5523 9 12 9C11.4477 9 11 8.55228 11 8C11 7.44772 11.4477 7 12 7C12.5523 7 13 7.44772 13 8Z" fill="#3574F0"/>
<path fill-rule="evenodd" clip-rule="evenodd" d="M13 11H11C9.34315 11 8 12.3431 8 14C8 14.5523 8.44772 15 9 15H15C15.5523 15 16 14.5523 16 14C16 12.3431 14.6569 11 13 11ZM9 14C9 12.8954 9.89543 12 11 12H13C14.1046 12 15 12.8954 15 14H9Z" fill="#3574F0"/>
<path d="M12 9C12.5523 9 13 8.55228 13 8C13 7.44772 12.5523 7 12 7C11.4477 7 11 7.44772 11 8C11 8.55228 11.4477 9 12 9Z" fill="#EDF3FF"/>
<path d="M11 12C9.89543 12 9 12.8954 9 14H15C15 12.8954 14.1046 12 13 12H11Z" fill="#EDF3FF"/>
<path d="M6.1217 2H2.63333C2.40481 2 2 2.25841 2 2.86667V11.1333C2 11.7416 2.40481 12 2.63333 12H7.53513C7.35609 12.3095 7.21733 12.6452 7.12602 13H2.63333C1.73127 13 1 12.1643 1 11.1333V2.86667C1 1.83574 1.73127 1 2.63333 1H6.1217C6.39413 1 6.65477 1.11115 6.84336 1.30775L8.46667 3H13C14.1046 3 15 3.89543 15 5V8C15 7.1115 14.6137 6.31321 14 5.76389V5C14 4.44771 13.5523 4 13 4H8.04022L6.1217 2Z" fill="#6C707E"/>
</svg>
