<svg width="16" height="16" viewBox="0 0 16 16" fill="none" xmlns="http://www.w3.org/2000/svg">
<path d="M2.63333 1C1.73127 1 1 1.83574 1 2.86667V11.1333C1 12.1643 1.73127 13 2.63333 13H7V8.99864C7 7.86355 7.89469 7.10551 8.7246 6.69084C9.61452 6.24618 10.7739 6 12 6C13.1032 6 14.1525 6.19932 15 6.56321V5C15 3.89543 14.1046 3 13 3H8.46667L6.84336 1.30775C6.65477 1.11115 6.39413 1 6.1217 1H2.63333Z" fill="#EBECF0"/>
<path d="M6.1217 2H2.63333C2.40481 2 2 2.25841 2 2.86667V11.1333C2 11.7416 2.40481 12 2.63333 12H7V13H2.63333C1.73127 13 1 12.1643 1 11.1333V2.86667C1 1.83574 1.73127 1 2.63333 1H6.1217C6.39413 1 6.65477 1.11115 6.84336 1.30775L8.46667 3H13C14.1046 3 15 3.89543 15 5V6.56321C14.6911 6.43058 14.3554 6.31981 14 6.23258V5C14 4.44771 13.5523 4 13 4H8.04022L6.1217 2Z" fill="#6C707E"/>
<path fill-rule="evenodd" clip-rule="evenodd" d="M16 12.9959C16 14.0997 14.2091 15 12 15C9.79086 15 8 14.0997 8 12.9959V8.99864C8 7.89482 9.79086 7 12 7C14.2091 7 16 7.89482 16 8.99864V12.9959ZM15 8.99864C15 8.99864 14.9999 9.0012 14.9994 9.0041C14.9988 9.007 14.9972 9.0132 14.9932 9.0229C14.9852 9.0427 14.9658 9.0796 14.9222 9.1312C14.831 9.2389 14.6598 9.3789 14.3812 9.5181C13.8235 9.7968 12.983 9.998 12 9.998C11.017 9.998 10.1765 9.7968 9.61879 9.5181C9.3402 9.3789 9.16902 9.2389 9.07781 9.1312C9.03417 9.0796 9.01484 9.0427 9.00676 9.0229C9.00277 9.0132 9.00124 9.007 9.00064 9.0041C9.00007 9.0012 9 8.99864 9 8.99864C9 8.99864 9.00007 8.99603 9.00064 8.9932C9.00124 8.99025 9.00277 8.98408 9.00676 8.97435C9.01484 8.95462 9.03417 8.91764 9.07781 8.86608C9.16902 8.75833 9.3402 8.61841 9.61879 8.47921C10.1765 8.20053 11.017 7.99932 12 7.99932C12.983 7.99932 13.8235 8.20053 14.3812 8.47921C14.6598 8.61841 14.831 8.75833 14.9222 8.86608C14.9658 8.91764 14.9852 8.95462 14.9932 8.97435C14.9972 8.98408 14.9988 8.99025 14.9994 8.9932C14.9999 8.99603 15 8.99864 15 8.99864ZM15 10.3207C14.2671 10.7356 13.1947 10.9973 12 10.9973C10.8053 10.9973 9.73294 10.7356 9 10.3207V10.9919C8.99942 10.9947 9 10.9973 9 10.9973C9 10.9973 9.00007 10.9999 9.00064 11.0027C9.00124 11.0057 9.00277 11.0118 9.00676 11.0216C9.01484 11.0413 9.03417 11.0783 9.07781 11.1298C9.16902 11.2376 9.3402 11.3775 9.61879 11.5167C10.1765 11.7954 11.017 11.9966 12 11.9966C12.983 11.9966 13.8235 11.7954 14.3812 11.5167C14.6598 11.3775 14.831 11.2376 14.9222 11.1298C14.9658 11.0783 14.9852 11.0413 14.9932 11.0216C14.9972 11.0118 14.9988 11.0057 14.9994 11.0027C14.9999 10.9999 15 10.9973 15 10.9973C15 10.9973 14.9999 10.9947 14.9994 10.9919L15 10.3207ZM15 12.3193C14.2671 12.7342 13.1947 12.9959 12 12.9959C10.8053 12.9959 9.73294 12.7342 9 12.3193V12.9959C8.99942 12.9988 9 13.0014 9 13.0014C9 13.0014 9.00007 13.004 9.00064 13.0068C9.00124 13.0097 9.00277 13.0159 9.00676 13.0256C9.01484 13.0454 9.03417 13.0824 9.07781 13.1339C9.16902 13.2417 9.3402 13.3816 9.61879 13.5208C10.1765 13.7995 11.017 14.0007 12 14.0007C12.983 14.0007 13.8235 13.7995 14.3812 13.5208C14.6598 13.3816 14.831 13.2417 14.9222 13.1339C14.9658 13.0824 14.9852 13.0454 14.9932 13.0256C14.9972 13.0159 14.9988 13.0097 14.9994 13.0068C14.9999 13.004 15 13.0014 15 13.0014L14.9999 12.9993L14.9994 12.9959L15 12.3193Z" fill="#6C707E"/>
</svg>
