<svg width="16" height="16" viewBox="0 0 16 16" fill="none" xmlns="http://www.w3.org/2000/svg">
<g clip-path="url(#clip0_44_18)">
<path d="M5.62207 3C5.75816 3.0001 5.88822 3.05609 5.98242 3.1543L7.60547 4.8457L7.75391 5H12.5C13.3284 5 14 5.67157 14 6.5V7H10.875C10.0508 7.00024 9.32102 7.40682 8.87598 8.02539L8.82324 8.09766C7.77601 8.36152 7.00026 9.30796 7 10.4365V14H2.13379C1.5685 14 1 13.4524 1 12.6328V4.36621C1.00021 3.54687 1.5686 3 2.13379 3H5.62207Z" fill="#EBECF0"/>
<path d="M5.62207 2.5C5.89435 2.5001 6.15524 2.61109 6.34375 2.80762L7.9668 4.5H12.5C13.6045 4.5 14.5 5.39542 14.5 6.5V7.04297C14.4325 7.0303 14.3642 7.01974 14.2949 7.0127L14.043 7H13.5V6.5C13.5 5.94772 13.0523 5.5 12.5 5.5H7.54004L7.39258 5.3457L7.24512 5.19238L5.62207 3.5H2.13379C1.89837 3.5 1.5002 3.76616 1.5 4.36621V12.6328C1.5 13.2332 1.89832 13.5 2.13379 13.5H7V14.5H2.13379C1.23868 14.5 0.5 13.6716 0.5 12.6328V4.36621C0.500217 3.3276 1.23882 2.5 2.13379 2.5H5.62207Z" fill="#6C707E"/>
<path d="M13.2129 9.0293C13.9256 9.10169 14.4823 9.70472 14.4824 10.4365V14.7002C14.4823 15.4808 13.849 16.1132 13.0684 16.1133H9.41406C8.63338 16.1133 8.00012 15.4808 8 14.7002V10.4365C8.00018 9.65592 8.63342 9.02246 9.41406 9.02246H13.0684L13.2129 9.0293ZM9.41406 10.0225C9.1857 10.0225 9.00018 10.2082 9 10.4365V14.7002C9.00012 14.9286 9.18567 15.1133 9.41406 15.1133H13.0684C13.2967 15.1132 13.4823 14.9285 13.4824 14.7002V10.4365C13.4823 10.2367 13.3399 10.0697 13.1514 10.0312L13.0684 10.0225H9.41406ZM14.043 8C14.8503 8.00006 15.5049 8.65458 15.5049 9.46191V13.2383C15.5049 13.7269 15.2648 14.1594 14.8965 14.4248V9.82715C14.8965 9.80915 14.8963 9.79125 14.8955 9.77344V9.46191C14.8955 8.99098 14.5139 8.60944 14.043 8.60938H9.6875C9.9528 8.24058 10.386 8.00014 10.875 8H14.043ZM12.1543 13.4824C12.3223 13.4824 12.4587 13.6182 12.459 13.7861C12.459 13.9543 12.3225 14.0908 12.1543 14.0908H10.3271C10.159 14.0908 10.0225 13.9543 10.0225 13.7861C10.0227 13.6182 10.1591 13.4825 10.3271 13.4824H12.1543ZM12.1543 12.2637C12.3225 12.2637 12.459 12.4002 12.459 12.5684C12.459 12.7366 12.3225 12.873 12.1543 12.873H10.3271C10.159 12.873 10.0225 12.7365 10.0225 12.5684C10.0225 12.4002 10.159 12.2637 10.3271 12.2637H12.1543ZM12.1543 11.0459C12.3225 11.0459 12.459 11.1824 12.459 11.3506C12.4587 11.5186 12.3224 11.6543 12.1543 11.6543H10.3271C10.1591 11.6543 10.0227 11.5186 10.0225 11.3506C10.0225 11.1824 10.159 11.0459 10.3271 11.0459H12.1543Z" fill="#6C707E"/>
</g>
<defs>
<clipPath id="clip0_44_18">
<rect width="16" height="16" fill="white"/>
</clipPath>
</defs>
</svg>
