<svg width="16" height="16" viewBox="0 0 16 16" fill="none" xmlns="http://www.w3.org/2000/svg">
<path d="M9 7.5H11M5 10.5V12.5M15 10.5V14.5M10 7.5V9M5 11.5H6.5" stroke="#548AF7" stroke-linecap="round" stroke-linejoin="round"/>
<path d="M13.5 11.5H15V13.5H13.5" fill="#25324D"/>
<path d="M13.5 11.5H15V13.5H13.5" stroke="#548AF7" stroke-linejoin="round"/>
<path d="M6.5 13H8L10 15H13.5V10.5L12 9H7.5L6.5 10V13Z" fill="#25324D" stroke="#548AF7" stroke-linejoin="round"/>
<path d="M3.50001 12.5V10.5C3.50028 10.2736 3.55175 10.0501 3.65055 9.84641C3.74936 9.64268 3.89295 9.46393 4.07058 9.32352C4.24821 9.18311 4.45528 9.08467 4.67632 9.03558C4.89736 8.98648 5.12664 8.98799 5.34701 9.04C5.37601 9.006 5.40801 8.972 5.44001 8.939L6.44001 7.939C6.57903 7.79929 6.7444 7.68855 6.92652 7.61319C7.10864 7.53784 7.30391 7.49936 7.50101 7.5C7.50101 6.673 8.17401 6 9.00101 6H11.001C11.828 6 12.501 6.673 12.501 7.5C12.901 7.5 13.278 7.656 13.562 7.939L13.651 8.028L14.001 8.03V5.5C14.001 5.10218 13.843 4.72064 13.5617 4.43934C13.2804 4.15804 12.8988 4 12.501 4H7.69301L5.80101 2H2.50101C2.10318 2 1.72165 2.15804 1.44035 2.43934C1.15904 2.72064 1.00101 3.10218 1.00101 3.5V11.5C1.00101 11.8978 1.15904 12.2794 1.44035 12.5607C1.72165 12.842 2.10318 13 2.50101 13H3.55401V12.871C3.5188 12.7505 3.50062 12.6256 3.50001 12.5Z" fill="#43454A"/>
<path d="M14 7.672V5.5C14 5.10218 13.842 4.72064 13.5607 4.43934C13.2794 4.15804 12.8978 4 12.5 4H7.692L5.8 2H2.5C2.10218 2 1.72064 2.15804 1.43934 2.43934C1.15804 2.72064 1 3.10218 1 3.5V11.5C1 11.8978 1.15804 12.2794 1.43934 12.5607C1.72064 12.842 2.10218 13 2.5 13H3.063" stroke="#CED0D6" stroke-linecap="round" stroke-linejoin="round"/>
</svg>
