<svg width="16" height="16" viewBox="0 0 16 16" fill="none" xmlns="http://www.w3.org/2000/svg">
<path d="M7.60584 4.84613L7.75344 5H7.96667H12.5C13.3284 5 14 5.67157 14 6.5V12.6333C14 13.4529 13.432 14 12.8667 14H2.13333C1.56804 14 1 13.4529 1 12.6333V4.36667C1 3.54707 1.56804 3 2.13333 3H5.6217C5.75792 3 5.88824 3.05557 5.98253 3.15387L7.60584 4.84613Z" fill="#EBECF0"/>
<path d="M7.60584 4.84613L7.75344 5H7.96667H12.5C13.3284 5 14 5.67157 14 6.5V12.6333C14 13.4529 13.432 14 12.8667 14H2.13333C1.56804 14 1 13.4529 1 12.6333V4.36667C1 3.54707 1.56804 3 2.13333 3H5.6217C5.75792 3 5.88824 3.05557 5.98253 3.15387L7.60584 4.84613Z" stroke="#6C707E"/>
</svg>
