<svg width="16" height="16" viewBox="0 0 16 16" fill="none" xmlns="http://www.w3.org/2000/svg">
<path d="M6.12207 2.5C6.25816 2.5001 6.38822 2.55609 6.48242 2.6543L8.10547 4.3457L8.25391 4.5H13C13.8284 4.5 14.5 5.17157 14.5 6V10.1797C14.1776 10.074 13.8679 10.0479 13.6396 10.0479C13.0114 10.0479 12.2578 10.2417 11.7383 10.8604L11.6377 10.9902C11.6318 10.9985 11.6268 11.0073 11.6211 11.0156L11.2627 10.0195L11.2168 9.90723C10.9694 9.35854 10.4218 9 9.8125 9C9.2032 9.00001 8.65562 9.35853 8.4082 9.90723L8.3623 10.0195L7.11035 13.5H2.63379C2.0685 13.5 1.5 12.9524 1.5 12.1328V3.86621C1.50021 3.04687 2.0686 2.5 2.63379 2.5H6.12207ZM13.4844 12.9365C13.3921 12.9488 13.3039 12.9656 13.2236 12.9893C13.2639 12.9774 13.3059 12.9667 13.3496 12.958L13.4844 12.9365ZM12.8174 11.2441C12.77 11.2712 12.7249 11.3018 12.6816 11.335H12.6807C12.7241 11.3016 12.7698 11.2713 12.8174 11.2441Z" fill="#EBECF0"/>
<path d="M6.12207 2C6.39435 2.0001 6.65524 2.11109 6.84375 2.30762L8.4668 4H13C14.1045 4 15 4.89542 15 6V10.415C14.6655 10.2002 14.3051 10.1072 14 10.0703V6C14 5.44772 13.5523 5 13 5H8.04004L7.89258 4.8457L7.74512 4.69238L6.12207 3H2.63379C2.39837 3 2.0002 3.26616 2 3.86621V12.1328C2 12.7332 2.39832 13 2.63379 13H7.29004L7.0791 13.5869C7.02953 13.7247 7.00691 13.8637 7.00293 14H2.63379C1.73868 14 1 13.1716 1 12.1328V3.86621C1.00022 2.8276 1.73882 2 2.63379 2H6.12207Z" fill="#6C707E"/>
<path d="M8.32773 14.3636C8.46722 14.3636 8.5914 14.2753 8.63711 14.1435L8.76103 13.7862C8.88092 13.4406 9.20662 13.2088 9.57248 13.2088H10.055C10.4206 13.2088 10.7459 13.4407 10.8651 13.7862L10.9882 14.1431C11.0337 14.2751 11.158 14.3636 11.2976 14.3636C11.5242 14.3636 11.6823 14.1388 11.6055 13.9256L10.3216 10.3579C10.2444 10.1432 10.0407 10 9.81252 10C9.58434 10 9.38068 10.1432 9.30342 10.3579L8.01962 13.9253C7.94283 14.1387 8.10096 14.3636 8.32773 14.3636ZM9.81359 12.6548C9.49021 12.6548 9.26318 12.3362 9.36879 12.0305L9.79098 10.8087C9.79431 10.7991 9.80339 10.7926 9.81359 10.7926C9.82379 10.7926 9.83287 10.7991 9.8362 10.8087L10.2584 12.0305C10.364 12.3362 10.137 12.6548 9.81359 12.6548Z" fill="#6C707E"/>
<path d="M13.2946 14.4361C13.8294 14.4361 14.1333 14.1676 14.2575 13.9248C14.2603 13.9195 14.2657 13.9162 14.2717 13.9162C14.2804 13.9162 14.2875 13.9232 14.2875 13.9319V14.1399C14.2875 14.2635 14.3876 14.3636 14.5112 14.3636H14.5986C14.7704 14.3636 14.9097 14.2243 14.9097 14.0525V12.1903C14.9097 11.2379 14.1597 11.0483 13.6398 11.0483C13.1631 11.0483 12.7167 11.2028 12.4496 11.5741C12.3409 11.7251 12.4485 11.9199 12.6299 11.9612C12.7784 11.995 12.9249 11.9092 13.0304 11.7994C13.1606 11.6638 13.3621 11.5639 13.6483 11.5639C14.0595 11.5639 14.2705 11.7791 14.2705 12.1498V12.1648C14.2705 12.397 14.0318 12.3927 13.4437 12.4609C12.8237 12.5334 12.1888 12.6953 12.1888 13.4389C12.1888 14.0824 12.6724 14.4361 13.2946 14.4361ZM13.4331 13.9247C13.073 13.9247 12.8131 13.7628 12.8131 13.4474C12.8131 13.1065 13.1156 12.9851 13.4842 12.9361C13.577 12.9236 13.7268 12.9056 13.872 12.8813C14.0255 12.8555 14.2726 13.0276 14.2726 13.1832C14.2726 13.571 13.9636 13.9247 13.4331 13.9247Z" fill="#6C707E"/>
</svg>
