<svg width="16" height="16" viewBox="0 0 16 16" fill="none" xmlns="http://www.w3.org/2000/svg">
<path d="M6.12207 2.5C6.25816 2.5001 6.38822 2.55609 6.48242 2.6543L8.10547 4.3457L8.25391 4.5H13C13.8284 4.5 14.5 5.17157 14.5 6V9.625C14.0783 9.45964 13.6579 9.41797 13.3457 9.41797C12.5692 9.41802 11.6859 9.66733 11.0889 10.4053L10.9736 10.5596C10.7916 10.8223 10.7242 11.1139 10.7422 11.3896L9.96875 9.15625C9.7496 8.52427 9.18093 8.06141 8.49902 8.00586L8.36133 8C7.66524 8 7.06652 8.42377 6.80176 9.03223L6.75293 9.15625L5.24805 13.5H2.63379C2.0685 13.5 1.5 12.9524 1.5 12.1328V3.86621C1.50021 3.04687 2.0686 2.5 2.63379 2.5H6.12207ZM13.2246 13.5H13.1963C13.1908 13.4792 13.1856 13.4571 13.1816 13.4336C13.1969 13.4539 13.2118 13.4757 13.2246 13.5ZM14.0928 13.1172C14.1017 13.1286 14.1106 13.1396 14.1182 13.1514L14.1172 13.1523C14.1096 13.1405 14.1017 13.1287 14.0928 13.1172ZM14.0137 13.0342C14.0177 13.0376 14.0214 13.0414 14.0254 13.0449C14.0215 13.0414 14.0177 13.0376 14.0137 13.0342ZM13.9102 12.9619C13.9228 12.9691 13.935 12.9773 13.9473 12.9854C13.935 12.9772 13.9228 12.9691 13.9102 12.9619ZM11.0283 12.1338C11.0213 12.1411 11.0147 12.1488 11.0078 12.1562L10.9727 12.0547C10.9908 12.0814 11.0084 12.1084 11.0283 12.1338ZM7.74316 9.37988L7.69727 9.48438C7.70986 9.44804 7.72467 9.41301 7.74219 9.37988L7.80176 9.28613C7.78002 9.31553 7.76056 9.34693 7.74316 9.37988Z" fill="#43454A"/>
<path d="M6.12207 2C6.39435 2.0001 6.65524 2.11109 6.84375 2.30762L8.4668 4H13C14.1045 4 15 4.89542 15 6V9.88672C14.9975 9.88498 14.9947 9.88357 14.9922 9.88184C14.67 9.66126 14.3209 9.54275 14 9.48047V6C14 5.44772 13.5523 5 13 5H8.04004L7.89258 4.8457L7.74512 4.69238L6.12207 3H2.63379C2.39837 3 2.0002 3.26616 2 3.86621V12.1328C2 12.7332 2.39832 13 2.63379 13H5.4209L5.08105 13.9814C5.07896 13.9875 5.07818 13.9939 5.07617 14H2.63379C1.73868 14 1 13.1716 1 12.1328V3.86621C1.00022 2.8276 1.73882 2 2.63379 2H6.12207ZM13.2295 13.5068C13.2633 13.5766 13.2695 13.6351 13.2695 13.6631C13.2695 13.6663 13.2678 13.6699 13.2676 13.6738C13.2391 13.6258 13.2001 13.5446 13.1816 13.4336C13.1984 13.4559 13.2162 13.4794 13.2295 13.5068ZM14.0928 13.1172C14.1202 13.1522 14.1432 13.1881 14.1562 13.2256L14.1553 13.2266C14.1422 13.1889 14.1201 13.1523 14.0928 13.1172ZM14.0137 13.0342C14.0177 13.0376 14.0214 13.0414 14.0254 13.0449C14.0215 13.0414 14.0177 13.0376 14.0137 13.0342ZM13.9102 12.9619C13.9228 12.9691 13.935 12.9773 13.9473 12.9854C13.935 12.9772 13.9228 12.9691 13.9102 12.9619Z" fill="#CED0D6"/>
<path d="M6.42688 14.902C6.60857 14.902 6.77031 14.7825 6.82985 14.6043L6.99126 14.121C7.14742 13.6535 7.57165 13.3401 8.04819 13.3401H8.67674C9.15286 13.3401 9.57655 13.6537 9.73184 14.121L9.89222 14.6038C9.95152 14.7823 10.1133 14.902 10.2952 14.902C10.5904 14.902 10.7962 14.598 10.6963 14.3095L9.02398 9.48402C8.92334 9.19362 8.65807 9 8.36085 9C8.06364 9 7.79837 9.19362 7.69773 9.48402L6.02556 14.3092C5.92554 14.5978 6.1315 14.902 6.42688 14.902ZM8.36224 12.5908C7.94103 12.5908 7.64532 12.1598 7.78289 11.7464L8.33279 10.0938C8.33713 10.0808 8.34895 10.072 8.36224 10.072C8.37553 10.072 8.38735 10.0808 8.39169 10.0938L8.9416 11.7464C9.07916 12.1598 8.78345 12.5908 8.36224 12.5908Z" fill="#CED0D6"/>
<path d="M12.8964 15C13.5929 15 13.9887 14.6369 14.1506 14.3085C14.1542 14.3013 14.1612 14.2968 14.169 14.2968C14.1804 14.2968 14.1896 14.3064 14.1896 14.3181V14.5994C14.1896 14.7665 14.32 14.902 14.481 14.902H14.5948C14.8186 14.902 15 14.7136 15 14.4812V11.9625C15 10.6743 14.0231 10.4178 13.3459 10.4178C12.725 10.4178 12.1437 10.6269 11.7957 11.1291C11.6542 11.3333 11.7943 11.5967 12.0305 11.6526C12.224 11.6983 12.4148 11.5823 12.5523 11.4337C12.7218 11.2503 12.9843 11.1153 13.357 11.1153C13.8927 11.1153 14.1674 11.4063 14.1674 11.9078V11.9279C14.1674 12.2421 13.8566 12.2363 13.0906 12.3285C12.283 12.4265 11.456 12.6455 11.456 13.6512C11.456 14.5216 12.0859 15 12.8964 15ZM13.0767 14.3083C12.6077 14.3083 12.2691 14.0893 12.2691 13.6628C12.2691 13.2017 12.6632 13.0374 13.1433 12.9712C13.2641 12.9543 13.4592 12.93 13.6484 12.8971C13.8484 12.8622 14.1702 13.0949 14.1702 13.3054C14.1702 13.83 13.7677 14.3083 13.0767 14.3083Z" fill="#CED0D6"/>
</svg>
