<svg width="16" height="16" viewBox="0 0 16 16" fill="none" xmlns="http://www.w3.org/2000/svg">
<path d="M10 11.979C7.768 11.979 7.667 14.057 6.14 13.999C5.96034 13.9917 5.78472 13.9435 5.62651 13.858C5.4683 13.7726 5.33166 13.6522 5.227 13.506C5.12126 13.358 5.05002 13.1883 5.01853 13.0092C4.98703 12.8301 4.99608 12.6462 5.045 12.471C5.773 9.85501 6.352 7.97 6.425 7.823C6.57 7.531 6.797 7.28901 7.087 7.14601C7.537 6.92401 8.069 6.95901 8.487 7.23801C8.967 7.47501 9.653 7.75101 10 7.75101C10.347 7.75101 11.033 7.47401 11.513 7.23801C11.931 6.95801 12.463 6.92401 12.913 7.14601C13.203 7.28901 13.43 7.531 13.575 7.823C13.648 7.97 14.227 9.85501 14.955 12.471C15.054 12.826 14.987 13.208 14.773 13.506C14.6684 13.6526 14.5317 13.7734 14.3733 13.859C14.2149 13.9446 14.0389 13.9929 13.859 14C12.333 14.057 12.232 11.979 9.999 11.979H10Z" fill="#25324D" stroke="#548AF7" stroke-linejoin="round"/>
<path d="M12.484 9.30098C12.484 9.32286 12.4797 9.34453 12.4713 9.36473C12.4629 9.38494 12.4506 9.40328 12.435 9.41871C12.4195 9.43414 12.4011 9.44635 12.3808 9.45463C12.3606 9.46291 12.3389 9.46711 12.317 9.46698H11.7C11.6781 9.46698 11.6565 9.46265 11.6362 9.45425C11.616 9.44584 11.5977 9.43352 11.5823 9.418C11.5668 9.40248 11.5546 9.38407 11.5464 9.36381C11.5381 9.34355 11.5339 9.32186 11.534 9.29998V8.68198C11.534 8.58998 11.609 8.51498 11.7 8.51498H12.318C12.41 8.51498 12.485 8.58998 12.485 8.68198V9.29998L12.484 9.30098ZM11.448 10.273C11.4481 10.2948 11.444 10.3164 11.4358 10.3366C11.4275 10.3568 11.4154 10.3751 11.4001 10.3906C11.3848 10.4062 11.3665 10.4185 11.3465 10.427C11.3264 10.4354 11.3048 10.4398 11.283 10.44H10.696C10.6517 10.44 10.6092 10.4224 10.5779 10.3911C10.5466 10.3597 10.529 10.3173 10.529 10.273V9.68798C10.529 9.59498 10.604 9.52098 10.696 9.52098H11.282C11.374 9.52098 11.448 9.59498 11.448 9.68798V10.273ZM8.3 10.501C8.56522 10.501 8.81957 10.3956 9.00711 10.2081C9.19465 10.0205 9.3 9.76619 9.3 9.50098C9.3 9.23576 9.19465 8.98141 9.00711 8.79387C8.81957 8.60633 8.56522 8.50098 8.3 8.50098C8.03479 8.50098 7.78043 8.60633 7.5929 8.79387C7.40536 8.98141 7.3 9.23576 7.3 9.50098C7.3 9.76619 7.40536 10.0205 7.5929 10.2081C7.78043 10.3956 8.03479 10.501 8.3 10.501Z" fill="#548AF7"/>
<path d="M10 7.75098C10 6.16298 9 6.00098 9 5.00098" stroke="#548AF7" stroke-linecap="round" stroke-linejoin="round"/>
<path d="M5.08001 7.159C5.36581 6.57106 5.83749 6.09375 6.42201 5.801C6.77277 5.62947 7.15419 5.52952 7.54401 5.507C7.51487 5.33991 7.50015 5.17062 7.50001 5.001C7.50001 4.174 8.17301 3.501 9.00001 3.501C9.82701 3.501 10.5 4.174 10.5 5.001C10.517 5.001 10.572 5.072 10.641 5.169C10.744 5.315 10.887 5.521 11.027 5.788C11.407 5.598 11.835 5.499 12.281 5.499C12.7999 5.49918 13.3096 5.63685 13.758 5.898L14.001 5.902V4.5C14.001 4.10218 13.843 3.72064 13.5617 3.43934C13.2804 3.15804 12.8988 3 12.501 3H7.69301L5.80101 1H2.50101C2.10318 1 1.72165 1.15804 1.44035 1.43934C1.15904 1.72064 1.00101 2.10218 1.00101 2.5V10.5C1.00101 10.8978 1.15904 11.2794 1.44035 11.5607C1.72165 11.842 2.10318 12 2.50101 12H3.62001C3.77201 11.454 4.84201 7.641 5.08101 7.158L5.08001 7.159Z" fill="#43454A"/>
<path d="M14 5.45998V4.50098C14 4.10315 13.842 3.72162 13.5607 3.44032C13.2794 3.15901 12.8978 3.00098 12.5 3.00098H7.692L5.8 1.00098H2.5C2.10218 1.00098 1.72064 1.15901 1.43934 1.44032C1.15804 1.72162 1 2.10315 1 2.50098V10.501C1 10.8988 1.15804 11.2803 1.43934 11.5616C1.72064 11.8429 2.10218 12.001 2.5 12.001H3.101" stroke="#CED0D6" stroke-linecap="round" stroke-linejoin="round"/>
</svg>
