<svg width="16" height="16" viewBox="0 0 16 16" fill="none" xmlns="http://www.w3.org/2000/svg">
<path d="M5.62207 3C5.75816 3.0001 5.88822 3.05609 5.98242 3.1543L7.60547 4.8457L7.75391 5H12.5C13.3284 5 14 5.67157 14 6.5V9.05566L12.7588 7.81445C12.34 7.39565 11.66 7.39564 11.2412 7.81445L7.81445 11.2412C7.39564 11.66 7.39563 12.34 7.81445 12.7588L9.05566 14H2.13379C1.5685 14 1 13.4524 1 12.6328V4.36621C1.00021 3.54687 1.5686 3 2.13379 3H5.62207ZM12.0625 13.8779C12.1036 13.8885 12.1426 13.9093 12.1758 13.9424C12.1932 13.9598 12.2066 13.9795 12.2178 14H11.7822C11.7934 13.9795 11.8068 13.9598 11.8242 13.9424L11.8779 13.9014C11.8969 13.8906 11.917 13.8832 11.9375 13.8779L12 13.8613L12.0625 13.8779ZM14 12.2168C13.9799 12.2058 13.9604 12.1928 13.9434 12.1758C13.8619 12.0943 13.8481 11.9695 13.9043 11.874L13.9365 11.8174L13.9922 11.7852C13.9947 11.7837 13.9974 11.7826 14 11.7812V12.2168ZM11.874 9.66699C11.9696 9.61046 12.0952 9.62352 12.1768 9.70508C12.2583 9.78663 12.2714 9.9123 12.2148 10.0078L12.1816 10.0625L12.127 10.0957C12.1072 10.1074 12.0855 10.1164 12.0635 10.1221L12 10.1377L11.9375 10.1221C11.8965 10.1115 11.8573 10.0907 11.8242 10.0576C11.7428 9.97618 11.7299 9.85038 11.7861 9.75488L11.8184 9.69922L11.874 9.66699Z" fill="#43454A"/>
<path d="M5.62207 2.5C5.89435 2.5001 6.15524 2.61109 6.34375 2.80762L7.9668 4.5H12.5C13.6045 4.5 14.5 5.39542 14.5 6.5V9.55566L13.5 8.55566V6.5C13.5 5.94772 13.0523 5.5 12.5 5.5H7.54004L7.39258 5.3457L7.24512 5.19238L5.62207 3.5H2.13379C1.89837 3.5 1.5002 3.76616 1.5 4.36621V12.6328C1.5 13.2332 1.89832 13.5 2.13379 13.5H8.55566L9.55566 14.5H2.13379C1.23868 14.5 0.5 13.6716 0.5 12.6328V4.36621C0.500217 3.3276 1.23882 2.5 2.13379 2.5H5.62207ZM12.0625 13.8779C12.1036 13.8885 12.1426 13.9093 12.1758 13.9424C12.273 14.0396 12.2729 14.1968 12.1758 14.2939C12.0786 14.3911 11.9214 14.3911 11.8242 14.2939C11.7273 14.1968 11.7271 14.0395 11.8242 13.9424L11.8779 13.9014C11.8969 13.8906 11.917 13.8832 11.9375 13.8779L12 13.8613L12.0625 13.8779ZM13.9922 11.7852C14.0877 11.7287 14.2134 11.7427 14.2949 11.8242C14.3918 11.9214 14.392 12.0787 14.2949 12.1758C14.1978 12.2729 14.0406 12.2727 13.9434 12.1758C13.8619 12.0943 13.8481 11.9695 13.9043 11.874L13.9365 11.8174L13.9922 11.7852Z" fill="#CED0D6"/>
<path fill-rule="evenodd" clip-rule="evenodd" d="M12.4048 8.16766C12.1812 7.94411 11.8188 7.94411 11.5952 8.16766L11.073 8.68986L11.6195 9.23634C11.9068 9.06636 12.2831 9.10482 12.53 9.35171C12.7769 9.59859 12.8154 9.97498 12.6454 10.2622L13.738 11.3548C14.0252 11.1849 14.4015 11.2234 14.6484 11.4702C14.9408 11.7627 14.9408 12.2368 14.6484 12.5292C14.3559 12.8217 13.8818 12.8217 13.5893 12.5292C13.3428 12.2827 13.3041 11.9069 13.4734 11.6198L12.3803 10.5268C12.3194 10.5627 12.2545 10.5892 12.1876 10.6064V13.3933C12.3129 13.4256 12.4315 13.4908 12.5297 13.5889C12.8221 13.8813 12.8221 14.3555 12.5297 14.6479C12.2373 14.9404 11.7631 14.9404 11.4707 14.6479C11.1783 14.3555 11.1783 13.8813 11.4707 13.5889C11.5689 13.4907 11.6876 13.4255 11.8131 13.3932V10.6063C11.6878 10.574 11.5692 10.5088 11.471 10.4107C11.2245 10.1642 11.1858 9.78849 11.355 9.50141L10.8082 8.95468L8.16767 11.5952C7.94411 11.8188 7.94411 12.1812 8.16767 12.4048L11.5952 15.8323C11.8188 16.0559 12.1812 16.0559 12.4048 15.8323L15.8323 12.4048C16.0559 12.1812 16.0559 11.8188 15.8323 11.5952L12.4048 8.16766Z" fill="#FF7151"/>
</svg>
