<svg width="16" height="16" viewBox="0 0 16 16" fill="none" xmlns="http://www.w3.org/2000/svg">
<path d="M5.12207 2.5C5.25816 2.5001 5.38822 2.55609 5.48242 2.6543L7.10547 4.3457L7.25391 4.5H12C12.8284 4.5 13.5 5.17157 13.5 6V7.45312C12.8959 7.1632 12.2163 7.00006 11.5 7C9.03422 7 7.00016 8.92668 7 11.3447C7 12.1319 7.21845 12.866 7.59473 13.5H1.63379C1.0685 13.5 0.5 12.9524 0.5 12.1328V3.86621C0.500212 3.04687 1.0686 2.5 1.63379 2.5H5.12207ZM11.9062 13.4268C11.91 13.4299 11.9308 13.4513 11.9521 13.5H11.0469C11.0677 13.4512 11.0878 13.4301 11.0918 13.4268L11.4951 13.0859L11.9062 13.4268ZM13.2188 9.66602C13.2204 9.81433 13.1849 9.9056 13.1797 9.91797L13.0518 10.2197L13.2783 10.457C13.3785 10.562 13.4538 10.6812 13.5 10.8184V11.6309C13.4305 11.9338 13.299 12.1091 13.1592 12.2217C12.9289 12.4069 12.5913 12.4992 12.1719 12.5439L11.4766 12.6182L10.8242 12.5469C10.407 12.5013 10.07 12.4079 9.83984 12.2217C9.63726 12.0576 9.44824 11.7638 9.44824 11.1436C9.44833 10.8602 9.54894 10.6384 9.72168 10.457L9.94824 10.2197L9.82031 9.91699C9.81529 9.90514 9.77774 9.81415 9.7793 9.66602C9.89292 9.71327 10.0411 9.78808 10.2256 9.9082L10.4131 10.0293L10.6279 9.97168C10.901 9.89854 11.1996 9.86104 11.5 9.85938C11.8001 9.86102 12.0984 9.8985 12.3721 9.97168L12.5879 10.0293L12.7744 9.9082C12.9579 9.78865 13.1055 9.7133 13.2188 9.66602Z" fill="#EBECF0"/>
<path d="M5.12207 2C5.39435 2.0001 5.65524 2.11109 5.84375 2.30762L7.4668 4H12C13.1045 4 14 4.89542 14 6V7.73242C13.6911 7.53296 13.3556 7.36954 13 7.24805V6C13 5.44772 12.5523 5 12 5H7.04004L6.89258 4.8457L6.74512 4.69238L5.12207 3H1.63379C1.39837 3 1.0002 3.26616 1 3.86621V12.1328C1 12.7332 1.39832 13 1.63379 13H7.33984C7.49411 13.3611 7.69772 13.6962 7.94141 14H1.63379C0.738675 14 0 13.1716 0 12.1328V3.86621C0.000217396 2.8276 0.738821 2 1.63379 2H5.12207ZM11.9062 13.4268C11.9139 13.4332 11.997 13.5139 11.9971 13.7529C11.9971 13.8383 11.9964 13.9209 11.9961 14H11.002L11 13.7021L11.0107 13.6309C11.0322 13.4842 11.0852 13.4323 11.0918 13.4268L11.4951 13.0859L11.9062 13.4268Z" fill="#6C707E"/>
<path fill-rule="evenodd" clip-rule="evenodd" d="M11.4996 7.5C9.29109 7.5 7.5 9.22141 7.5 11.345C7.5 13.0438 8.64601 14.4848 10.2355 14.9932C10.4356 15.0286 10.5086 14.9099 10.5086 14.8079C10.5086 14.7166 10.5051 14.4749 10.5032 14.1541C9.39054 14.3863 9.15579 13.6386 9.15579 13.6386C8.97383 13.1944 8.71158 13.0761 8.71158 13.0761C8.3484 12.8377 8.73908 12.8424 8.73908 12.8424C9.14057 12.8696 9.35175 13.2387 9.35175 13.2387C9.70854 13.8262 10.2881 13.6565 10.5159 13.5581C10.5523 13.3098 10.6557 13.1403 10.7698 13.0442C9.88166 12.9472 8.9478 12.6173 8.9478 11.1439C8.9478 10.7242 9.10373 10.3808 9.3596 10.1122C9.31835 10.015 9.18108 9.62385 9.39889 9.09466C9.39889 9.09466 9.73457 8.99127 10.4987 9.48884C10.8177 9.40339 11.16 9.3609 11.5001 9.35925C11.84 9.3609 12.182 9.40339 12.5015 9.48884C13.2652 8.99127 13.6004 9.09466 13.6004 9.09466C13.8187 9.62385 13.6814 10.015 13.6404 10.1122C13.8968 10.3808 14.0515 10.7242 14.0515 11.1439C14.0515 12.621 13.1161 12.946 12.2253 13.0412C12.3687 13.1599 12.4966 13.3945 12.4966 13.7531C12.4966 14.2671 12.4917 14.6819 12.4917 14.8079C12.4917 14.9108 12.5639 15.0305 12.7667 14.993C14.355 14.4833 15.5 13.0433 15.5 11.345C15.5 9.22141 13.7089 7.5 11.4996 7.5Z" fill="#161514"/>
</svg>
