<svg width="16" height="16" viewBox="0 0 16 16" fill="none" xmlns="http://www.w3.org/2000/svg">
<path fill-rule="evenodd" clip-rule="evenodd" d="M1 2.86667C1 1.83574 1.7835 1 2.75 1H6.03823C6.29871 1 6.5489 1.10163 6.73559 1.28327L8.5 3H13C14.1046 3 15 3.89543 15 5V6H9C7.89543 6 7 6.89543 7 8V13H2.75C1.7835 13 1 12.1643 1 11.1333V2.86667Z" fill="#EBECF0"/>
<path fill-rule="evenodd" clip-rule="evenodd" d="M7.80265 3.71673L8.09379 4H8.5H13C13.5523 4 14 4.44772 14 5V6H15V5C15 3.89543 14.1046 3 13 3H8.5L6.73559 1.28327C6.5489 1.10163 6.29871 1 6.03823 1H2.75C1.7835 1 1 1.83574 1 2.86667V11.1333C1 12.1643 1.7835 13 2.75 13H7V12H2.75C2.3956 12 2 11.6738 2 11.1333V2.86667C2 2.32624 2.3956 2 2.75 2H6.03823L7.80265 3.71673Z" fill="#6C707E"/>
<path d="M14.5 7.5H9.5C8.94772 7.5 8.5 7.94772 8.5 8.5V13.5C8.5 14.0523 8.94772 14.5 9.5 14.5H14.5C15.0523 14.5 15.5 14.0523 15.5 13.5V8.5C15.5 7.94772 15.0523 7.5 14.5 7.5Z" fill="#E7EFFD" stroke="#3574F0"/>
</svg>
