<svg width="16" height="16" viewBox="0 0 16 16" fill="none" xmlns="http://www.w3.org/2000/svg">
<path d="M5.52 11.24C5.52 8.81001 7.26 7.50001 8.89 7.50001C9.07 7.50001 9.25 7.52001 9.42 7.56001C9.51 7.03001 9.75 6.51001 10.12 6.07001C10.72 5.36001 11.56 4.93001 12.42 4.88001H12.47C12.98 4.88001 13.41 5.26001 13.46 5.77001C13.53 6.38001 13.39 7.01001 13.06 7.58001C13.29 7.63001 13.54 7.71001 13.78 7.82001C13.85 7.85001 14 7.79001 14 7.79001V5.51001C14 4.68001 13.33 4.01001 12.5 4.01001H7.69L5.8 2.01001H2.5C1.67 2.01001 1 2.68001 1 3.51001V11.51C1 12.34 1.67 13.01 2.5 13.01H5.7C5.7 13.01 5.78 12.9 5.76 12.84C5.6 12.28 5.5 11.73 5.5 11.25L5.52 11.24Z" fill="#43454A"/>
<path d="M14.02 7.36V5.5C14.02 4.67 13.35 4 12.52 4H7.71L5.82 2H2.52C1.69 2 1.02 2.67 1.02 3.5V11.5C1.02 12.33 1.69 13 2.52 13H5.31" stroke="#CED0D6" stroke-linecap="round" stroke-linejoin="round"/>
<path d="M10.4 8.2C10.26 7.12 11.29 5.94 12.48 5.88C12.62 7.1 11.44 8.28 10.4 8.2Z" fill="#CED0D6"/>
<path d="M12.43 15C12.01 15 11.51 14.61 10.71 14.61C9.91 14.61 9.39 15 9.03 15C8.45 15 7.02 12.99 7.02 11.24C7.02 9.72 7.99 9 8.89 9C9.28 9 10.13 9.45 10.59 9.45C11.17 9.45 11.79 9 12.41 9C12.82 9 13.47 9.23 13.66 9.52C13.04 10.02 12.77 10.69 12.77 11.33C12.77 12.18 13.25 12.98 14.02 13.26C13.6 14.13 12.81 15 12.43 15Z" fill="#43454A" stroke="#CED0D6" stroke-linejoin="round"/>
</svg>
