<svg width="16" height="16" viewBox="0 0 16 16" fill="none" xmlns="http://www.w3.org/2000/svg">
<path fill-rule="evenodd" clip-rule="evenodd" d="M8 14V10C8 9.4477 8.44772 9 9 9H15C15.5523 9 16 9.4477 16 10V14C16 14.5523 15.5523 15 15 15H9C8.44772 15 8 14.5523 8 14Z" fill="#25324D"/>
<path fill-rule="evenodd" clip-rule="evenodd" d="M14.6398 10H9.36023L12 11.8855L14.6398 10ZM9 10.9716L11.7094 12.9069C11.8832 13.031 12.1168 13.031 12.2906 12.9069L15 10.9716V14H9V10.9716ZM8 14V10C8 9.4477 8.44772 9 9 9H15C15.5523 9 16 9.4477 16 10V14C16 14.5523 15.5523 15 15 15H9C8.44772 15 8 14.5523 8 14Z" fill="#548AF7"/>
<path d="M1 2.86667C1 1.83574 1.73127 1 2.63333 1H6.1217C6.39413 1 6.65477 1.11115 6.84336 1.30775L8.46667 3H13C14.1046 3 15 3.89543 15 5V8H9C7.89543 8 7 8.89543 7 10V13H2.63333C1.73127 13 1 12.1643 1 11.1333V2.86667Z" fill="#43454A"/>
<path d="M2.63333 2H6.1217L8.04022 4H13C13.5523 4 14 4.44771 14 5V8H15V5C15 3.89543 14.1046 3 13 3H8.46667L6.84336 1.30775C6.65477 1.11115 6.39413 1 6.1217 1H2.63333C1.73127 1 1 1.83574 1 2.86667V11.1333C1 12.1643 1.73127 13 2.63333 13H7V12H2.63333C2.40481 12 2 11.7416 2 11.1333V2.86667C2 2.25841 2.40481 2 2.63333 2Z" fill="#CED0D6"/>
</svg>
