<svg width="16" height="16" viewBox="0 0 16 16" fill="none" xmlns="http://www.w3.org/2000/svg">
<path d="M5.5 11C5.5 7.968 7.968 5.5 11 5.5C12 5.5 12.938 5.771 13.747 6.24H14V5.5C14 5.10218 13.842 4.72064 13.5607 4.43934C13.2794 4.15804 12.8978 4 12.5 4H7.692L5.8 2H2.5C2.10218 2 1.72064 2.15804 1.43934 2.43934C1.15804 2.72064 1 3.10218 1 3.5V11.5C1 11.8978 1.15804 12.2794 1.43934 12.5607C1.72064 12.842 2.10218 13 2.5 13H5.816V12.823C5.60765 12.2378 5.50078 11.6212 5.5 11Z" fill="#43454A"/>
<path d="M11 15C12.0609 15 13.0783 14.5786 13.8284 13.8284C14.5786 13.0783 15 12.0609 15 11C15 9.93913 14.5786 8.92172 13.8284 8.17157C13.0783 7.42143 12.0609 7 11 7C9.93913 7 8.92172 7.42143 8.17157 8.17157C7.42143 8.92172 7 9.93913 7 11C7 12.0609 7.42143 13.0783 8.17157 13.8284C8.92172 14.5786 9.93913 15 11 15Z" fill="#25324D" stroke="#548AF7" stroke-linecap="round" stroke-linejoin="round"/>
<path d="M7 11H15M11 15C11.828 15 12.5 13.21 12.5 11C12.5 8.79 11.828 7 11 7C10.172 7 9.5 8.79 9.5 11C9.5 13.21 10.172 15 11 15Z" stroke="#548AF7" stroke-miterlimit="10"/>
<path d="M14 5.812V5.5C14 5.10218 13.842 4.72064 13.5607 4.43934C13.2794 4.15804 12.8978 4 12.5 4H7.692L5.8 2H2.5C2.10218 2 1.72064 2.15804 1.43934 2.43934C1.15804 2.72064 1 3.10218 1 3.5V11.5C1 11.8978 1.15804 12.2794 1.43934 12.5607C1.72064 12.842 2.10218 13 2.5 13H5.35" stroke="#CED0D6" stroke-linecap="round" stroke-linejoin="round"/>
</svg>
