<svg width="16" height="16" viewBox="0 0 16 16" fill="none" xmlns="http://www.w3.org/2000/svg">
<path d="M5.12207 1.5C5.25816 1.5001 5.38822 1.55609 5.48242 1.6543L7.10547 3.3457L7.25391 3.5H12C12.8284 3.5 13.5 4.17157 13.5 5V7.8291L11.0586 6.30566C9.72662 5.4746 8.00032 6.43201 8 8.00195V12.5H1.63379C1.0685 12.5 0.5 11.9524 0.5 11.1328V2.86621C0.500212 2.04687 1.0686 1.5 1.63379 1.5H5.12207Z" fill="#EBECF0"/>
<path d="M5.12207 1C5.39435 1.0001 5.65524 1.11109 5.84375 1.30762L7.4668 3H12C13.1045 3 14 3.89542 14 5V8.1416L13 7.5166V5C13 4.44772 12.5523 4 12 4H7.04004L6.89258 3.8457L6.74512 3.69238L5.12207 2H1.63379C1.39837 2 1.0002 2.26616 1 2.86621V11.1328C1 11.7332 1.39832 12 1.63379 12H8V13H1.63379C0.738675 13 0 12.1716 0 11.1328V2.86621C0.000217396 1.8276 0.738821 1 1.63379 1H5.12207Z" fill="#6C707E"/>
<path fill-rule="evenodd" clip-rule="evenodd" d="M8.5 8.00239C8.5 6.82465 9.7951 6.10632 10.7942 6.72991L14.7962 9.22774C15.7372 9.81514 15.7372 11.1853 14.7962 11.7727L10.7942 14.2705C9.7951 14.8941 8.5 14.1758 8.5 12.998V8.00239ZM10.2647 7.57823C9.9317 7.37037 9.5 7.60981 9.5 8.00239V12.998C9.5 13.3906 9.9317 13.63 10.2647 13.4222L14.2667 10.9243C14.5804 10.7286 14.5804 10.2718 14.2667 10.076L10.2647 7.57823Z" fill="#57965C"/>
<path d="M9.5 8.00238C9.5 7.6098 9.9317 7.37036 10.2647 7.57822L14.2667 10.076C14.5804 10.2718 14.5804 10.7286 14.2667 10.9243L10.2647 13.4222C9.9317 13.63 9.5 13.3906 9.5 12.998V8.00238Z" fill="#E7EFFD"/>
</svg>
