<svg width="16" height="16" viewBox="0 0 16 16" fill="none" xmlns="http://www.w3.org/2000/svg">
<path d="M9.5 6.5H7.5V8.5H9.5V6.5ZM13.5 6.5H11.5V8.5H13.5V6.5ZM15.5 8.5H13.5V10.5H15.5V8.5ZM11.5 8.5H9.5V10.5H11.5V8.5ZM9.5 10.5H7.5V12.5H9.5V10.5ZM13.5 10.5H11.5V12.5H13.5V10.5ZM15.5 12.5H13.5V14.5H15.5V12.5ZM11.5 12.5H9.5V14.5H11.5V12.5Z" fill="#3574F0"/>
<path d="M6.5 5.5H14V4.5C14 4.10218 13.842 3.72064 13.5607 3.43934C13.2794 3.15804 12.8978 3 12.5 3H7.692L5.8 1H2.5C2.10218 1 1.72064 1.15804 1.43934 1.43934C1.15804 1.72064 1 2.10218 1 2.5V10.5C1 10.8978 1.15804 11.2794 1.43934 11.5607C1.72064 11.842 2.10218 12 2.5 12H6.5V5.5Z" fill="#EBECF0"/>
<path d="M14 5V4.5C14 4.10218 13.842 3.72064 13.5607 3.43934C13.2794 3.15804 12.8978 3 12.5 3H7.692L5.8 1H2.5C2.10218 1 1.72064 1.15804 1.43934 1.43934C1.15804 1.72064 1 2.10218 1 2.5V10.5C1 10.8978 1.15804 11.2794 1.43934 11.5607C1.72064 11.842 2.10218 12 2.5 12H6" stroke="#6C707E" stroke-linecap="round" stroke-linejoin="round"/>
</svg>
