<svg width="16" height="16" viewBox="0 0 16 16" fill="none" xmlns="http://www.w3.org/2000/svg">
<path d="M5.12207 1.5C5.25816 1.5001 5.38822 1.55609 5.48242 1.6543L7.10547 3.3457L7.25391 3.5H12C12.8284 3.5 13.5 4.17157 13.5 5V6.01074C13.396 5.99521 13.2895 5.99672 13.1846 6.01465C13.0216 6.04259 12.8704 6.1121 12.7412 6.21289C12.7077 6.23732 12.676 6.26433 12.6465 6.29395L12.6758 6.32422C12.5786 6.35762 12.4884 6.40953 12.4121 6.47949L12.4102 6.48145L9.80469 8.89355L8.7832 8.09668L8.7793 8.09277L8.65625 8.01562C8.57078 7.97136 8.47832 7.9423 8.38281 7.92969L8.2373 7.92285C8.04215 7.93155 7.85666 8.00909 7.71289 8.14062L7.27246 8.54297C7.10949 8.69229 7.0123 8.90001 7.00195 9.12012C6.99172 9.34034 7.0685 9.55683 7.2168 9.7207L7.27637 9.78027L7.27734 9.7793L8.08008 10.5215L7.28223 11.2139H7.28125L7.21387 11.2812C7.10403 11.4035 7.03276 11.5555 7.00879 11.7178L7.00098 11.7998C6.99035 12.02 7.0668 12.2362 7.21484 12.4004L7.21875 12.4043C7.2291 12.4155 7.2495 12.4368 7.27539 12.46L7.31934 12.5H1.63379C1.0685 12.5 0.5 11.9524 0.5 11.1328V2.86621C0.500212 2.04687 1.0686 1.5 1.63379 1.5H5.12207ZM10.2246 12.5H9.33105L9.8291 12.1348L10.2246 12.5ZM13 11.3867L11.8799 10.5127L13 9.62012V11.3867Z" fill="#EBECF0"/>
<path d="M5.12207 1C5.39435 1.0001 5.65524 1.11109 5.84375 1.30762L7.4668 3H12C13.1045 3 14 3.89542 14 5V6.20215L13.7861 6.09961C13.5995 6.00939 13.389 5.9797 13.1846 6.01465C13.1208 6.02557 13.0595 6.04436 13 6.06738V5C13 4.44772 12.5523 4 12 4H7.04004L6.89258 3.8457L6.74512 3.69238L5.12207 2H1.63379C1.39837 2 1.0002 2.26616 1 2.86621V11.1328C1 11.7332 1.39832 12 1.63379 12H7.0166C7.04529 12.1477 7.11228 12.2867 7.21484 12.4004L7.21875 12.4043C7.2291 12.4155 7.2495 12.4368 7.27539 12.46L7.71094 12.8584C7.77549 12.9174 7.84921 12.964 7.92773 13H1.63379C0.738675 13 0 12.1716 0 11.1328V2.86621C0.000217396 1.8276 0.738821 1 1.63379 1H5.12207ZM10.7666 13H8.61426C8.66815 12.9754 8.72048 12.9469 8.76855 12.9111L8.76953 12.9121L9.8291 12.1348L10.7666 13ZM13 11.3867L12.9766 11.3682C12.991 11.2962 13 11.218 13 11.1328V11.3867Z" fill="#6C707E"/>
<path d="M12.7502 6.84779C12.786 6.81495 12.8305 6.7933 12.8784 6.78546C12.9262 6.77762 12.9752 6.78394 13.0195 6.80365C13.0638 6.82336 13.1015 6.8556 13.1279 6.89645C13.1543 6.9373 13.1683 6.985 13.1682 7.03372V8.84761L10.7798 10.7512L9.54967 9.81261L12.7502 6.84779Z" fill="#0065A9"/>
<path d="M8.64718 10.6923L7.60927 11.592C7.54384 11.6517 7.50468 11.7351 7.50039 11.8239C7.49611 11.9127 7.52705 11.9995 7.58641 12.0653C7.59355 12.0731 7.6007 12.0805 7.60841 12.0874L8.04866 12.4898C8.10621 12.5424 8.18025 12.5731 8.25795 12.5765C8.33564 12.58 8.41209 12.556 8.47405 12.5087L9.67194 11.6308L8.64718 10.6923Z" fill="#0065A9"/>
<path d="M13.1682 12.1521L8.47548 8.49041C8.41354 8.44307 8.33708 8.41905 8.25937 8.42251C8.18166 8.42598 8.10761 8.45671 8.05009 8.50938L7.60984 8.9117C7.54453 8.97153 7.50553 9.05501 7.5014 9.14376C7.49728 9.23252 7.52837 9.3193 7.58784 9.385C7.59498 9.39276 7.60213 9.40023 7.60984 9.40712L12.7494 14.1488C12.7852 14.1817 12.8297 14.2035 12.8775 14.2114C12.9254 14.2194 12.9745 14.2131 13.0189 14.1935C13.0633 14.1738 13.101 14.1416 13.1276 14.1008C13.1541 14.0599 13.1682 14.0122 13.1682 13.9634V12.1521Z" fill="#007ACC"/>
<path d="M13.5699 14.4505C13.4768 14.4955 13.3722 14.5103 13.2704 14.4929C13.1686 14.4755 13.0747 14.4268 13.0016 14.3534C13.0427 14.3941 13.0947 14.4217 13.1513 14.4328C13.2079 14.4439 13.2665 14.438 13.3197 14.4157C13.3729 14.3935 13.4185 14.3559 13.4506 14.3078C13.4827 14.2596 13.4999 14.203 13.5002 14.145V6.85497C13.5001 6.79676 13.483 6.73986 13.4508 6.69146C13.4186 6.64306 13.3729 6.60533 13.3195 6.58303C13.266 6.56074 13.2072 6.55488 13.1504 6.5662C13.0936 6.57752 13.0415 6.60551 13.0005 6.64663C13.0736 6.57325 13.1675 6.52449 13.2693 6.50709C13.371 6.48969 13.4757 6.50451 13.5687 6.5495L15.2157 7.34609C15.3007 7.3869 15.3725 7.45105 15.4228 7.53113C15.4731 7.61122 15.4999 7.70398 15.5 7.7987V13.2013C15.5 13.2959 15.4735 13.3887 15.4234 13.4688C15.3733 13.5489 15.3017 13.6132 15.2169 13.6542L13.5699 14.4505Z" fill="#1F9CF0"/>
</svg>
