<svg width="16" height="16" viewBox="0 0 16 16" fill="none" xmlns="http://www.w3.org/2000/svg">
<path d="M6.12207 2C6.39435 2.0001 6.65524 2.11109 6.84375 2.30762L8.4668 4H13C14.1045 4 15 4.89542 15 6V7.38965L14.5039 7.14941C14.2238 7.01399 13.9076 6.96916 13.6006 7.02148C13.2992 7.07303 13.022 7.2164 12.8047 7.42969C12.8008 7.43352 12.7959 7.43752 12.792 7.44141L12.7998 7.4502C12.7198 7.49603 12.6428 7.54847 12.5742 7.61133L12.5703 7.61426L10.2773 9.7373L9.59082 9.20215L9.58301 9.19629L9.4873 9.12891C9.29114 9.00452 9.06457 8.93409 8.83203 8.92383H8.71484C8.40229 8.93776 8.10598 9.06114 7.87598 9.27148L7.43555 9.67383L7.35254 9.75684C7.17084 9.95472 7.05317 10.2021 7.01465 10.4668L7.00293 10.5977C6.98674 10.9492 7.10966 11.2937 7.34668 11.5557L7.35254 11.5625C7.36523 11.5762 7.39465 11.6068 7.43262 11.6416L7.43164 11.6426L7.83105 12.0098L7.4541 12.3359L7.44434 12.3447L7.3418 12.4473C7.13699 12.6753 7.01688 12.9678 7.00195 13.2754C6.98971 13.53 7.05062 13.781 7.1748 14H2.63379C1.73868 14 1 13.1716 1 12.1328V3.86621C1.00022 2.8276 1.73882 2 2.63379 2H6.12207Z" fill="#43454A"/>
<path d="M13.501 8.14648C13.5026 8.14489 13.5042 8.14317 13.5059 8.1416L13.5693 8.09473C13.5442 8.10817 13.5214 8.12608 13.501 8.14648Z" fill="#43454A"/>
<path d="M6.12207 2C6.39435 2.0001 6.65524 2.11109 6.84375 2.30762L8.4668 4H13C14.1045 4 15 4.89542 15 6V7.38965L14.5039 7.14941C14.3449 7.07253 14.1739 7.02511 14 7.00781V6C14 5.44772 13.5523 5 13 5H8.04004L7.89258 4.8457L7.74512 4.69238L6.12207 3H2.63379C2.39837 3 2.0002 3.26616 2 3.86621V12.1328C2 12.7332 2.39832 13 2.63379 13H7.04492C7.02143 13.0895 7.0065 13.1817 7.00195 13.2754C6.98971 13.53 7.05062 13.781 7.1748 14H2.63379C1.73868 14 1 13.1716 1 12.1328V3.86621C1.00022 2.8276 1.73882 2 2.63379 2H6.12207Z" fill="#CED0D6"/>
<path d="M13.2502 8.34779C13.286 8.31495 13.3305 8.2933 13.3784 8.28546C13.4262 8.27762 13.4752 8.28394 13.5195 8.30365C13.5638 8.32336 13.6015 8.3556 13.6279 8.39645C13.6543 8.4373 13.6683 8.485 13.6682 8.53372V10.3476L11.2798 12.2512L10.0497 11.3126L13.2502 8.34779Z" fill="#CED0D6"/>
<path d="M9.14718 12.1923L8.10927 13.092C8.04384 13.1517 8.00468 13.2351 8.00039 13.3239C7.99611 13.4127 8.02705 13.4995 8.08641 13.5653C8.09355 13.5731 8.1007 13.5805 8.10841 13.5874L8.54866 13.9898C8.60621 14.0424 8.68025 14.0731 8.75795 14.0765C8.83564 14.08 8.91209 14.056 8.97405 14.0087L10.1719 13.1308L9.14718 12.1923Z" fill="#CED0D6"/>
<path d="M13.6682 13.6521L8.97548 9.99041C8.91354 9.94307 8.83708 9.91905 8.75937 9.92251C8.68166 9.92598 8.60761 9.95671 8.55009 10.0094L8.10984 10.4117C8.04453 10.4715 8.00553 10.555 8.0014 10.6438C7.99728 10.7325 8.02837 10.8193 8.08784 10.885C8.09498 10.8928 8.10213 10.9002 8.10984 10.9071L13.2494 15.6488C13.2852 15.6817 13.3297 15.7035 13.3775 15.7114C13.4254 15.7194 13.4745 15.7131 13.5189 15.6935C13.5633 15.6738 13.601 15.6416 13.6276 15.6008C13.6541 15.5599 13.6682 15.5122 13.6682 15.4634V13.6521Z" fill="#CED0D6"/>
<path d="M14.0699 15.9505C13.9768 15.9955 13.8722 16.0103 13.7704 15.9929C13.6686 15.9755 13.5747 15.9268 13.5016 15.8534C13.5427 15.8941 13.5947 15.9217 13.6513 15.9328C13.7079 15.9439 13.7665 15.938 13.8197 15.9157C13.8729 15.8935 13.9185 15.8559 13.9506 15.8078C13.9827 15.7596 13.9999 15.703 14.0002 15.645V8.35497C14.0001 8.29676 13.983 8.23986 13.9508 8.19146C13.9186 8.14306 13.8729 8.10533 13.8195 8.08303C13.766 8.06074 13.7072 8.05488 13.6504 8.0662C13.5936 8.07752 13.5415 8.10551 13.5005 8.14663C13.5736 8.07325 13.6675 8.02449 13.7693 8.00709C13.871 7.98969 13.9757 8.00451 14.0687 8.0495L15.7157 8.84609C15.8007 8.8869 15.8725 8.95105 15.9228 9.03113C15.9731 9.11122 15.9999 9.20398 16 9.2987V14.7013C16 14.7959 15.9735 14.8887 15.9234 14.9688C15.8733 15.0489 15.8017 15.1132 15.7169 15.1542L14.0699 15.9505Z" fill="#CED0D6"/>
</svg>
