<svg width="16" height="16" viewBox="0 0 16 16" fill="none" xmlns="http://www.w3.org/2000/svg">
<path d="M6.12207 2C6.39435 2.0001 6.65524 2.11109 6.84375 2.30762L8.4668 4H13C14.1045 4 15 4.89542 15 6V12.1328C15 13.1714 14.2621 13.9997 13.3672 14H2.63379C1.73868 14 1 13.1716 1 12.1328V3.86621C1.00022 2.8276 1.73882 2 2.63379 2H6.12207Z" fill="#43454A"/>
<path fill-rule="evenodd" clip-rule="evenodd" d="M6.12207 2C6.39435 2.0001 6.65524 2.11109 6.84375 2.30762L8.4668 4H13C14.1045 4 15 4.89542 15 6V12.1328C15 13.1714 14.2621 13.9997 13.3672 14H2.63379C1.73868 14 1 13.1716 1 12.1328V3.86621C1.00022 2.8276 1.73882 2 2.63379 2H6.12207ZM2.63379 3C2.39837 3 2.0002 3.26616 2 3.86621V12.1328C2 12.7332 2.39832 13 2.63379 13H13.3672C13.6027 12.9996 14 12.7328 14 12.1328V6C14 5.44772 13.5523 5 13 5H8.04004L7.89258 4.8457L7.74512 4.69238L6.12207 3H2.63379Z" fill="#CED0D6"/>
</svg>
