<svg width="16" height="16" viewBox="0 0 16 16" fill="none" xmlns="http://www.w3.org/2000/svg">
<path d="M6.12207 2C6.39435 2.0001 6.65524 2.11109 6.84375 2.30762L8.4668 4H13C14.1045 4 15 4.89542 15 6V9.34863L13.1123 7.46094L12.9922 7.35254C12.3746 6.84929 11.4632 6.88548 10.8877 7.46094L7.46094 10.8877C6.84702 11.5017 6.84717 12.4982 7.46094 13.1123L8.34863 14H2.63379C1.73868 14 1 13.1716 1 12.1328V3.86621C1.00022 2.8276 1.73882 2 2.63379 2H6.12207Z" fill="#43454A"/>
<path d="M6.12207 2C6.39435 2.0001 6.65524 2.11109 6.84375 2.30762L8.4668 4H13C14.1045 4 15 4.89542 15 6V9.34863L14 8.34863V6C14 5.44772 13.5523 5 13 5H8.04004L7.89258 4.8457L7.74512 4.69238L6.12207 3H2.63379C2.39837 3 2.0002 3.26616 2 3.86621V12.1328C2 12.7332 2.39832 13 2.63379 13H7.35938C7.3912 13.0386 7.42487 13.0762 7.46094 13.1123L8.34863 14H2.63379C1.73868 14 1 13.1716 1 12.1328V3.86621C1.00022 2.8276 1.73882 2 2.63379 2H6.12207Z" fill="#CED0D6"/>
<path d="M11.8135 13V13.3936L11.8125 13.3926L11.8135 13Z" fill="#CED0D6"/>
<path fill-rule="evenodd" clip-rule="evenodd" d="M12.4048 8.16766C12.1812 7.94411 11.8188 7.94411 11.5952 8.16766L11.073 8.68986L11.6195 9.23634C11.9068 9.06636 12.2831 9.10482 12.53 9.35171C12.7769 9.59859 12.8154 9.97498 12.6454 10.2622L13.738 11.3548C14.0252 11.1849 14.4015 11.2234 14.6484 11.4702C14.9408 11.7627 14.9408 12.2368 14.6484 12.5292C14.3559 12.8217 13.8818 12.8217 13.5893 12.5292C13.3428 12.2827 13.3041 11.9069 13.4734 11.6198L12.3803 10.5268C12.3194 10.5627 12.2545 10.5892 12.1876 10.6064V13.3933C12.3129 13.4256 12.4315 13.4908 12.5297 13.5889C12.8221 13.8813 12.8221 14.3555 12.5297 14.6479C12.2373 14.9404 11.7631 14.9404 11.4707 14.6479C11.1783 14.3555 11.1783 13.8813 11.4707 13.5889C11.5689 13.4907 11.6876 13.4255 11.8131 13.3932V10.6063C11.6878 10.574 11.5692 10.5088 11.471 10.4107C11.2245 10.1642 11.1858 9.78849 11.355 9.50141L10.8082 8.95468L8.16767 11.5952C7.94411 11.8188 7.94411 12.1812 8.16767 12.4048L11.5952 15.8323C11.8188 16.0559 12.1812 16.0559 12.4048 15.8323L15.8323 12.4048C16.0559 12.1812 16.0559 11.8188 15.8323 11.5952L12.4048 8.16766Z" fill="#CED0D6"/>
</svg>
