<svg width="16" height="16" viewBox="0 0 16 16" fill="none" xmlns="http://www.w3.org/2000/svg">
<path fill-rule="evenodd" clip-rule="evenodd" d="M11.48 6.792C9.984 6.792 9 5.536 9 3.912V3.896C9 2.272 10.008 1 11.496 1C12.976 1 13.976 2.256 13.976 3.88V3.896C13.976 5.52 12.976 6.792 11.48 6.792ZM11.502 5.68C12.246 5.68 12.718 4.928 12.718 3.912V3.896C12.718 2.88 12.222 2.112 11.486 2.112C10.75 2.112 10.27 2.856 10.27 3.88V3.896C10.27 4.92 10.758 5.68 11.502 5.68Z" fill="#CED0D6"/>
<path fill-rule="evenodd" clip-rule="evenodd" d="M5.48 14.5919C3.984 14.5919 3 13.3359 3 11.7119V11.6959C3 10.0719 4.008 8.79999 5.496 8.79999C6.976 8.79999 7.976 10.0559 7.976 11.6799V11.6959C7.976 13.3199 6.976 14.5919 5.48 14.5919ZM5.50199 13.4799C6.24599 13.4799 6.71799 12.7279 6.71799 11.7119V11.6959C6.71799 10.6799 6.22199 9.91195 5.48599 9.91195C4.74999 9.91195 4.26999 10.6559 4.26999 11.6799V11.6959C4.26999 12.7199 4.75799 13.4799 5.50199 13.4799Z" fill="#CED0D6"/>
<path d="M7.40999 5.89199H6.35798V1.15137H5.51798L3.58252 1.77242L3.83852 2.68586L5.14198 2.30482V5.89199H3.90999V6.79199H7.40999V5.89199Z" fill="#CED0D6"/>
<path d="M12.3621 13.5406H13.4141V14.4406H9.91407V13.5406H11.1461V9.95345L9.84261 10.3345L9.58661 9.4211L11.5221 8.80005H12.3621V13.5406Z" fill="#CED0D6"/>
</svg>
