<svg width="16" height="16" viewBox="0 0 16 16" fill="none" xmlns="http://www.w3.org/2000/svg">
<path d="M12 2.1965C12 2.12653 12.0048 2.05767 12.0141 1.99025L8.99228 0.263514C8.37741 -0.087838 7.62259 -0.087838 7.00772 0.263514L2.00772 3.12065C1.38457 3.47674 1 4.13943 1 4.85714V10.5358C1 11.2536 1.38457 11.9163 2.00772 12.2723L7.00772 15.1295C7.62259 15.4808 8.37741 15.4808 8.99228 15.1295L12.0141 13.4027C12.0048 13.3353 12 13.2665 12 13.1965V12.6965H11.5C10.6716 12.6965 10 12.0249 10 11.1965C10 10.3681 10.6716 9.6965 11.5 9.6965H12V5.6965H11.5C10.6716 5.6965 10 5.02493 10 4.1965C10 3.36807 10.6716 2.6965 11.5 2.6965H12V2.1965Z" fill="#2F2936"/>
<path d="M14 2.1965C14 1.92036 13.7761 1.6965 13.5 1.6965C13.2239 1.6965 13 1.92036 13 2.1965V3.6965H11.5C11.2239 3.6965 11 3.92036 11 4.1965C11 4.47264 11.2239 4.6965 11.5 4.6965H13V6.1965C13 6.47264 13.2239 6.6965 13.5 6.6965C13.7761 6.6965 14 6.47264 14 6.1965V4.6965H15.5C15.7761 4.6965 16 4.47264 16 4.1965C16 3.92036 15.7761 3.6965 15.5 3.6965H14V2.1965Z" fill="#B589EC"/>
<path d="M14 9.1965C14 8.92036 13.7761 8.6965 13.5 8.6965C13.2239 8.6965 13 8.92036 13 9.1965V10.6965H11.5C11.2239 10.6965 11 10.9204 11 11.1965C11 11.4726 11.2239 11.6965 11.5 11.6965H13V13.1965C13 13.4726 13.2239 13.6965 13.5 13.6965C13.7761 13.6965 14 13.4726 14 13.1965V11.6965H15.5C15.7761 11.6965 16 11.4726 16 11.1965C16 10.9204 15.7761 10.6965 15.5 10.6965H14V9.1965Z" fill="#B589EC"/>
<path d="M1 4.85714C1 4.13943 1.38457 3.47674 2.00772 3.12065L7.00772 0.263514C7.62259 -0.087838 8.37741 -0.087838 8.99228 0.263514L12.0141 1.99025C12.0048 2.05767 12 2.12653 12 2.1965V2.6965H11.5C11.4205 2.6965 11.3424 2.70269 11.2662 2.71462L8.49614 1.13175C8.18871 0.956083 7.81129 0.956083 7.50386 1.13175L2.50386 3.9889C2.19229 4.16694 2 4.49828 2 4.85714V10.5358C2 10.8947 2.19229 11.226 2.50386 11.4041L7.50386 14.2612C7.81129 14.4369 8.18871 14.4369 8.49614 14.2612L11.2661 12.6784C11.3423 12.6903 11.4204 12.6965 11.5 12.6965H12V13.1965C12 13.2665 12.0048 13.3353 12.0141 13.4027L8.99228 15.1295C8.37741 15.4808 7.62259 15.4808 7.00772 15.1295L2.00772 12.2723C1.38457 11.9163 1 11.2536 1 10.5358V4.85714Z" fill="#B589EC"/>
<path d="M8.13241 11.1965C9.62136 11.1965 10.8976 10.2973 11.2118 9.02109H10.1966C9.88241 9.7511 9.1041 10.2732 8.13241 10.2732C6.79332 10.2732 5.82647 9.19995 5.82647 7.6965C5.82647 6.19305 6.79332 5.11984 8.13241 5.11984C9.1041 5.11984 9.88241 5.64194 10.1966 6.37191H11.2118C10.8976 5.09567 9.62136 4.1965 8.13241 4.1965C6.21321 4.1965 4.78711 5.69028 4.78711 7.6965C4.78711 9.7027 6.21321 11.1965 8.13241 11.1965Z" fill="#B589EC"/>
</svg>
