<svg width="16" height="16" viewBox="0 0 16 16" fill="none" xmlns="http://www.w3.org/2000/svg">
<path d="M5.23336 6.4734L7.89226 4.93821C7.92493 4.91927 7.96202 4.9093 7.99978 4.9093C8.03754 4.9093 8.07463 4.91927 8.1073 4.93821L10.7664 6.4734C10.8329 6.5119 10.874 6.58277 10.874 6.65977V9.73059C10.874 9.80715 10.8329 9.87846 10.7664 9.91696L8.10708 11.45C8.07441 11.4689 8.03732 11.4789 7.99956 11.4789C7.9618 11.4789 7.92471 11.4689 7.89205 11.45L5.23336 9.91871C5.16686 9.88021 5.12573 9.80934 5.12573 9.73234V6.65999C5.12573 6.58343 5.16686 6.5119 5.23336 6.4734Z" fill="#5E43DE"/>
<path d="M14.9134 7.87212L11.7363 2.34519C11.621 2.14525 11.4082 2 11.1772 2H4.82313C4.59235 2 4.37907 2.14744 4.26379 2.34716L1.08666 7.8625C1.02987 7.96174 1 8.0741 1 8.18844C1 8.30278 1.02987 8.41513 1.08666 8.51437L4.26379 13.9941C4.37929 14.1939 4.59235 14.2959 4.82313 14.2959H11.1772C11.4079 14.2959 11.6212 14.1968 11.7365 13.9969L14.9134 8.50628C14.9701 8.41027 15 8.30081 15 8.18931C15 8.07781 14.9701 7.96814 14.9134 7.87212ZM12.2827 10.5301C12.2827 10.611 12.2337 10.6866 12.1633 10.727L8.11641 13.0617C8.08157 13.0817 8.04209 13.0924 8.0019 13.0924C7.96171 13.0924 7.92222 13.0817 7.88738 13.0617L3.83766 10.727C3.76723 10.6863 3.71801 10.611 3.71801 10.5301V5.86028C3.719 5.81995 3.7305 5.78057 3.75137 5.74605C3.77224 5.71152 3.80176 5.68303 3.83701 5.66341L7.88388 3.32869C7.91869 3.30869 7.95814 3.29817 7.99829 3.29817C8.03844 3.29817 8.07788 3.30869 8.11269 3.32869L12.1629 5.66319C12.2333 5.70387 12.2832 5.77912 12.2832 5.86006L12.2827 10.5301Z" fill="#AFAFFF"/>
</svg>
