<svg width="16" height="16" viewBox="0 0 16 16" fill="none" xmlns="http://www.w3.org/2000/svg">
<path fill-rule="evenodd" clip-rule="evenodd" d="M8.70705 1.30476C8.31652 0.914241 7.68336 0.91424 7.29283 1.30476L6.38061 2.21698L7.33527 3.17164C7.83703 2.8747 8.49455 2.94188 8.92584 3.37317C9.35712 3.80445 9.4243 4.46197 9.12736 4.96373L11.036 6.87236C11.5377 6.57557 12.1951 6.64278 12.6263 7.07401C13.1372 7.58486 13.1372 8.41312 12.6263 8.92398C12.1154 9.43483 11.2872 9.43483 10.7763 8.92398C10.3456 8.49324 10.278 7.83684 10.5737 7.33532L8.66431 5.42591C8.55785 5.48864 8.44442 5.535 8.32765 5.56501V10.4334C8.5466 10.4898 8.75379 10.6037 8.92524 10.7751C9.43609 11.286 9.43609 12.1143 8.92524 12.6251C8.41438 13.136 7.58612 13.136 7.07527 12.6251C6.56442 12.1143 6.56442 11.286 7.07527 10.7751C7.24686 10.6036 7.45426 10.4896 7.67342 10.4333V5.56485C7.45448 5.50847 7.2473 5.39457 7.07587 5.22313C6.64519 4.79245 6.5776 4.13618 6.87309 3.63469L5.918 2.6796L1.30522 7.29238C0.914698 7.6829 0.914697 8.31607 1.30522 8.70659L7.29283 14.6942C7.68336 15.0847 8.31652 15.0847 8.70705 14.6942L14.6946 8.70659C15.0851 8.31607 15.0851 7.6829 14.6946 7.29238L8.70705 1.30476Z" fill="#FF7151"/>
</svg>
