<svg width="16" height="16" viewBox="0 0 16 16" fill="none" xmlns="http://www.w3.org/2000/svg">
<path d="M7.5 3.00488H6.77051C6.25051 3.00488 5.83723 3.15043 5.53223 3.44043C5.23249 3.7254 5.08485 4.11275 5.08984 4.60254L5.12012 6.16992C5.13012 6.6799 4.99299 7.09786 4.70801 7.42285C4.42304 7.74281 4.03765 7.92005 3.55273 7.95508C4.03764 8.0451 4.42304 8.255 4.70801 8.58496C4.99279 8.90981 5.13001 9.30483 5.12012 9.76953L5.08984 11.5479C5.07992 11.9877 5.21241 12.3377 5.4873 12.5977C5.7673 12.8627 6.14512 12.9951 6.62012 12.9951H7.09961C7.17023 13.3448 7.27756 13.6809 7.41699 14H6.6123C6.07741 14 5.60709 13.9002 5.20215 13.7002C4.80227 13.5052 4.49242 13.2225 4.27246 12.8525C4.05751 12.4876 3.95306 12.0602 3.95801 11.5703L3.9873 9.77734C3.99726 9.39264 3.87012 9.08539 3.60547 8.85547C3.34047 8.62547 2.98223 8.50977 2.53223 8.50977H2V7.42969H2.53223C2.98223 7.42969 3.34047 7.31496 3.60547 7.08496C3.87029 6.85499 3.9973 6.54698 3.9873 6.16211L3.95801 4.58008C3.94801 4.06008 4.05527 3.60484 4.28027 3.21484C4.51026 2.82496 4.8378 2.52539 5.2627 2.31543C5.6877 2.10543 6.1877 2 6.7627 2H7.5V3.00488ZM9.23926 2C9.81425 2 10.3143 2.10544 10.7393 2.31543C11.1643 2.52543 11.4898 2.82484 11.7148 3.21484C11.9448 3.60484 12.0549 4.06009 12.0449 4.58008L12.0146 6.16211C12.0057 6.50747 12.108 6.79011 12.3203 7.01074C12.2144 7.00404 12.1076 7 12 7C11.6826 7 11.3723 7.03037 11.0713 7.08691C10.9397 6.82434 10.875 6.51933 10.8818 6.16992L10.9121 4.60254C10.9171 4.11263 10.7668 3.72541 10.4619 3.44043C10.162 3.1505 9.75225 3.00495 9.23242 3.00488H8.5V2H9.23926Z" fill="#B589EC"/>
<path fill-rule="evenodd" clip-rule="evenodd" d="M12 16C14.2091 16 16 14.2091 16 12C16 9.79086 14.2091 8 12 8C9.79086 8 8 9.79086 8 12C8 14.2091 9.79086 16 12 16ZM12.0001 9.66667C11.7056 9.66667 11.4668 9.90172 11.4668 10.1917C11.4668 10.4816 11.7056 10.7167 12.0001 10.7167C12.2947 10.7167 12.5335 10.4816 12.5335 10.1917C12.5335 9.90172 12.2947 9.66667 12.0001 9.66667ZM12.0001 11.1833C11.7056 11.1833 11.4668 11.4184 11.4668 11.7083V13.8083C11.4668 14.0983 11.7056 14.3333 12.0001 14.3333C12.2947 14.3333 12.5335 14.0983 12.5335 13.8083V11.7083C12.5335 11.4184 12.2947 11.1833 12.0001 11.1833Z" fill="#548AF7"/>
</svg>
