<svg width="16" height="16" viewBox="0 0 16 16" fill="none" xmlns="http://www.w3.org/2000/svg">
<path d="M8 9.24649C8.55229 9.24649 9 8.79878 9 8.24649C9 7.69421 8.55229 7.24649 8 7.24649C7.44772 7.24649 7 7.69421 7 8.24649C7 8.79878 7.44772 9.24649 8 9.24649Z" fill="#D6AE58"/>
<path fill-rule="evenodd" clip-rule="evenodd" d="M11.4999 2.18432C12.3545 2.6777 12.5569 4.07813 12.1725 5.83745C13.8883 6.3842 15 7.2597 15 8.24648C15 9.23323 13.8884 10.1087 12.1726 10.6555C12.557 12.4149 12.3546 13.8153 11.5001 14.3087C10.6455 14.8021 9.33146 14.2771 8.00002 13.0645C6.66856 14.2771 5.35451 14.8021 4.49993 14.3087C3.64536 13.8153 3.44298 12.4149 3.8274 10.6555C2.1116 10.1087 1 9.23323 1 8.24648C1 7.2597 2.11166 6.3842 3.82753 5.83744C3.44312 4.07811 3.64551 2.67767 4.50007 2.18429C5.35462 1.69091 6.66861 2.21584 8.00002 3.42839C9.33141 2.21586 10.6454 1.69095 11.4999 2.18432ZM11.0001 13.4427C10.9342 13.4807 10.7832 13.5312 10.4662 13.4485C10.1434 13.3643 9.72408 13.1576 9.23687 12.7931C9.06346 12.6633 8.88653 12.5174 8.70764 12.3562C9.03843 11.9948 9.36541 11.5942 9.68168 11.1594C10.2164 11.1029 10.727 11.02 11.2054 10.9142C11.2556 11.1497 11.2935 11.3759 11.3191 11.5909C11.3912 12.1951 11.3606 12.6616 11.2721 12.9832C11.1852 13.2991 11.0659 13.4046 11.0001 13.4427ZM8.35159 11.2428C8.23473 11.3837 8.1174 11.5188 8.00001 11.6481C7.88263 11.5188 7.76529 11.3837 7.64843 11.2428C7.76489 11.2453 7.88211 11.2465 8 11.2465C8.1179 11.2465 8.23512 11.2453 8.35159 11.2428ZM10.946 9.94729C10.7753 9.98433 10.5995 10.0184 10.419 10.0492C10.4793 9.94952 10.5391 9.84862 10.598 9.7465C10.657 9.64432 10.7146 9.54211 10.7707 9.43993C10.8343 9.61165 10.8927 9.78093 10.946 9.94729ZM9.73198 9.2465C9.92585 8.9107 10.1023 8.5763 10.2615 8.24634C10.1024 7.91646 9.92593 7.58216 9.73212 7.24646C9.53829 6.91073 9.33698 6.59075 9.13083 6.28799C8.76552 6.26083 8.38771 6.24648 8 6.24648C7.6123 6.24648 7.2345 6.26083 6.8692 6.28799C6.66305 6.59075 6.46172 6.91075 6.26788 7.2465C6.07407 7.58218 5.89763 7.91647 5.73853 8.24634C5.89767 8.5763 6.07415 8.91068 6.26802 9.24646C6.46186 9.58221 6.66318 9.90221 6.86934 10.205C7.23459 10.2321 7.61235 10.2465 8 10.2465C8.38766 10.2465 8.76542 10.2321 9.13068 10.205C9.33683 9.90222 9.53815 9.58223 9.73198 9.2465ZM10.5981 6.74646C10.6571 6.84854 10.7146 6.95065 10.7707 7.05273C10.8342 6.88111 10.8926 6.71191 10.9459 6.54564C10.7752 6.50862 10.5995 6.47459 10.4191 6.44382C10.4795 6.54346 10.5392 6.64435 10.5981 6.74646ZM9.68183 5.33363C10.2165 5.39014 10.7269 5.47298 11.2053 5.57876C11.2554 5.34328 11.2933 5.11713 11.319 4.90212C11.391 4.29794 11.3604 3.83145 11.272 3.50976C11.1851 3.19389 11.0658 3.08837 10.9999 3.05035C10.9341 3.01232 10.783 2.96175 10.466 3.04446C10.1432 3.12869 9.72394 3.33545 9.23673 3.69995C9.06338 3.82964 8.88649 3.97551 8.70765 4.13665C9.03849 4.49808 9.36551 4.89879 9.68183 5.33363ZM11.3635 8.24632C11.5819 7.75505 11.7654 7.27156 11.9129 6.8044C12.142 6.87873 12.3568 6.959 12.5558 7.04431C13.1151 7.28399 13.5038 7.54371 13.7382 7.78118C13.9683 8.01435 14 8.17043 14 8.24648C14 8.32253 13.9683 8.47861 13.7382 8.71178C13.5038 8.94925 13.1151 9.20897 12.5558 9.44866C12.3568 9.53395 12.142 9.6142 11.913 9.68851C11.7654 9.22128 11.5819 8.73769 11.3635 8.24632ZM6.31835 11.1594C5.78359 11.1029 5.27303 11.02 4.7946 10.9142C4.74444 11.1497 4.70655 11.3759 4.6809 11.5909C4.60884 12.1951 4.63942 12.6616 4.72789 12.9833C4.81476 13.2991 4.93407 13.4047 4.99993 13.4427C5.06579 13.4807 5.21683 13.5313 5.53381 13.4486C5.85665 13.3644 6.27592 13.1576 6.76313 12.7931C6.93655 12.6634 7.11349 12.5174 7.29239 12.3562C6.9616 11.9948 6.63462 11.5942 6.31835 11.1594ZM5.22931 9.43993C5.16573 9.61165 5.1073 9.78093 5.05403 9.94729C5.22474 9.98434 5.40056 10.0184 5.58106 10.0492C5.52067 9.94952 5.46096 9.8486 5.40199 9.74646C5.34301 9.6443 5.28544 9.54209 5.22931 9.43993ZM4.08697 9.68852C4.23456 9.22128 4.41809 8.7377 4.63653 8.24633C4.41814 7.75505 4.23466 7.27156 4.08709 6.8044C3.85805 6.87873 3.64322 6.959 3.44417 7.04431C2.8849 7.28399 2.4962 7.54371 2.26184 7.78118C2.03173 8.01435 2 8.17043 2 8.24648C2 8.32253 2.03173 8.47861 2.26184 8.71178C2.4962 8.94925 2.8849 9.20897 3.44417 9.44866C3.64319 9.53395 3.85797 9.61421 4.08697 9.68852ZM5.40186 6.7465C5.34293 6.84857 5.28542 6.95067 5.22934 7.05273C5.16579 6.88111 5.1074 6.71192 5.05416 6.54564C5.22478 6.50862 5.4005 6.47459 5.58091 6.44381C5.52052 6.54346 5.46082 6.64437 5.40186 6.7465ZM8 5.24648C7.88206 5.24648 7.7648 5.24773 7.64829 5.2502C7.7652 5.10929 7.88259 4.97406 8.00002 4.84476C8.11745 4.97406 8.23483 5.10929 8.35174 5.25021C8.23522 5.24773 8.11795 5.24648 8 5.24648ZM6.3182 5.33363C6.63452 4.89879 6.96154 4.49807 7.29238 4.13665C7.11353 3.97549 6.93664 3.82961 6.76327 3.69991C6.27606 3.33542 5.85678 3.12865 5.53395 3.04442C5.21696 2.96172 5.06593 3.01229 5.00007 3.05031C4.93421 3.08834 4.8149 3.19385 4.72803 3.50972C4.63956 3.83142 4.60898 4.29791 4.68104 4.90209C4.70668 5.1171 4.74457 5.34326 4.79472 5.57876C5.27308 5.47298 5.78354 5.39014 6.3182 5.33363Z" fill="#D6AE58"/>
</svg>
