<svg width="16" height="16" viewBox="0 0 16 16" fill="none" xmlns="http://www.w3.org/2000/svg">
<path d="M6.22218 8.88889C7.05055 8.88889 7.74659 9.45547 7.94395 10.2222H12.8888C13.1343 10.2222 13.3333 10.4212 13.3333 10.6667C13.3333 10.8849 13.176 11.0663 12.9688 11.1039L12.8888 11.1111L7.94372 11.112C7.74605 11.8783 7.05023 12.4444 6.22218 12.4444C5.39414 12.4444 4.69831 11.8783 4.50064 11.112L3.11107 11.1111C2.86561 11.1111 2.66663 10.9121 2.66663 10.6667C2.66663 10.4484 2.82385 10.267 3.03118 10.2294L3.11107 10.2222H4.50041C4.69777 9.45547 5.39382 8.88889 6.22218 8.88889ZM6.22218 9.77778C5.73127 9.77778 5.33329 10.1757 5.33329 10.6667C5.33329 11.1576 5.73127 11.5556 6.22218 11.5556C6.7131 11.5556 7.11107 11.1576 7.11107 10.6667C7.11107 10.1757 6.7131 9.77778 6.22218 9.77778ZM9.77774 3.55556C10.6061 3.55556 11.3022 4.12212 11.4995 4.88887L12.8888 4.88889C13.1343 4.88889 13.3333 5.08788 13.3333 5.33334C13.3333 5.55152 13.176 5.73299 12.9688 5.77062L12.8888 5.77778L11.4992 5.77869C11.3016 6.545 10.6058 7.11111 9.77774 7.11111C8.94965 7.11111 8.25387 6.545 8.0562 5.77869L3.11107 5.77778C2.86561 5.77778 2.66663 5.57879 2.66663 5.33334C2.66663 5.11515 2.82385 4.93368 3.03118 4.89606L3.11107 4.88889L8.05597 4.88887C8.25333 4.12212 8.94938 3.55556 9.77774 3.55556ZM9.77774 4.44445C9.2868 4.44445 8.88885 4.84242 8.88885 5.33334C8.88885 5.82425 9.2868 6.22222 9.77774 6.22222C10.2687 6.22222 10.6666 5.82425 10.6666 5.33334C10.6666 4.84242 10.2687 4.44445 9.77774 4.44445Z" fill="#B4B8BF"/>
</svg>
