<svg width="16" height="16" viewBox="0 0 16 16" fill="none" xmlns="http://www.w3.org/2000/svg">
<g clip-path="url(#clip0_32_1142)">
<path d="M7.38462 0L8.15242 7.3853L4.87138 10.2412L4.86154 10.237L0 14.4814L7.38462 0Z" fill="url(#paint0_linear_32_1142)"/>
<path d="M13.3848 9.48035C13.3848 9.56505 13.3796 9.64855 13.3693 9.73045C12.8405 9.26361 12.1457 8.98035 11.3848 8.98035C10.6239 8.98035 9.92907 9.26361 9.40027 9.73045C9.38997 9.64855 9.38477 9.56505 9.38477 9.48035C9.38477 8.3758 10.2802 7.48035 11.3848 7.48035C12.4894 7.48035 13.3848 8.3758 13.3848 9.48035Z" fill="#F2FCF3"/>
<path d="M13.3848 11.9803C13.3848 10.8757 12.4894 9.98035 11.3848 9.98035C10.2802 9.98035 9.38477 10.8757 9.38477 11.9803V12.4803C9.38477 13.5849 10.2802 14.4803 11.3848 14.4803C12.4894 14.4803 13.3848 13.5849 13.3848 12.4803V11.9803Z" fill="#F2FCF3"/>
<path fill-rule="evenodd" clip-rule="evenodd" d="M13.3848 9.48035C13.3848 9.56505 13.3795 9.64855 13.3693 9.73045C13.5085 9.85335 13.6363 9.98895 13.7506 10.1355L14.6074 9.56435C14.8373 9.41114 15.1477 9.47321 15.3009 9.70305C15.454 9.93275 15.392 10.2431 15.1621 10.3963L14.2276 11.0194C14.3295 11.3211 14.3848 11.6442 14.3848 11.9803V12.4803C14.3848 12.9666 14.2691 13.4259 14.0637 13.832L15.1621 14.5643C15.392 14.7174 15.454 15.0279 15.3009 15.2576C15.1477 15.4874 14.8373 15.5495 14.6074 15.3963L13.4695 14.6376C12.9297 15.1593 12.1947 15.4803 11.3848 15.4803C10.5749 15.4803 9.83987 15.1593 9.30005 14.6376L8.16211 15.3963C7.93237 15.5495 7.62195 15.4874 7.46875 15.2576C7.31567 15.0279 7.37768 14.7174 7.60742 14.5643L8.70581 13.832C8.50049 13.4259 8.38476 12.9666 8.38476 12.4803V11.9803C8.38476 11.6442 8.44006 11.3211 8.54199 11.0194L7.60742 10.3963C7.37768 10.2431 7.31567 9.93275 7.46875 9.70305C7.62195 9.47321 7.93237 9.41114 8.16211 9.56435L9.01892 10.1355C9.1333 9.98895 9.26111 9.85335 9.40027 9.73045C9.38997 9.64855 9.38476 9.56505 9.38476 9.48035C9.38476 8.3758 10.2802 7.48035 11.3848 7.48035C12.4894 7.48035 13.3848 8.3758 13.3848 9.48035ZM9.77647 13.6693C9.78177 13.6763 9.78697 13.6834 9.79227 13.6904C10.1576 14.1704 10.735 14.4803 11.3848 14.4803C12.0358 14.4803 12.614 14.1693 12.9793 13.6878C12.9833 13.6824 12.9873 13.6771 12.9914 13.6718C13.2386 13.339 13.3848 12.9267 13.3848 12.4803V11.9803C13.3848 10.8757 12.4894 9.98035 11.3848 9.98035C10.2802 9.98035 9.38476 10.8757 9.38476 11.9803V12.4803C9.38476 12.9256 9.53037 13.3369 9.77647 13.6693ZM10.448 9.12946C10.5901 8.75025 10.956 8.48035 11.3848 8.48035C11.8136 8.48035 12.1795 8.75025 12.3216 9.12946C12.0268 9.03266 11.7119 8.98035 11.3848 8.98035C11.0576 8.98035 10.7428 9.03266 10.448 9.12946Z" fill="#208A3C"/>
<path d="M6.89635 11.1088L4.86154 10.2371L0 14.4815H6.47023C6.57433 14.1856 6.77178 13.9197 7.05288 13.7323L7.49961 13.4345C7.4246 13.1283 7.38488 12.8086 7.38488 12.4804V11.9804C7.38488 11.8082 7.39582 11.6382 7.41708 11.4713L7.05288 11.2285C6.99742 11.1915 6.94522 11.1515 6.89635 11.1088Z" fill="url(#paint1_linear_32_1142)"/>
<path d="M10.7263 6.55289L7.38477 0L8.27176 8.53069C8.35289 8.55234 8.43292 8.58106 8.51097 8.61702C8.81993 7.58712 9.66737 6.79007 10.7263 6.55289Z" fill="url(#paint2_linear_32_1142)"/>
</g>
<defs>
<linearGradient id="paint0_linear_32_1142" x1="3.51832" y1="-5.77894" x2="-8.00488" y2="1.12957" gradientUnits="userSpaceOnUse">
<stop stop-color="#7777E9"/>
<stop offset="1" stop-color="#01009A"/>
</linearGradient>
<linearGradient id="paint1_linear_32_1142" x1="17.7234" y1="12.7058" x2="13.6936" y2="6.00175" gradientUnits="userSpaceOnUse">
<stop stop-color="#01B202"/>
<stop offset="1" stop-color="#0FE90F"/>
</linearGradient>
<linearGradient id="paint2_linear_32_1142" x1="3.79397" y1="7.63887" x2="15.3265" y2="13.3581" gradientUnits="userSpaceOnUse">
<stop stop-color="#B83535"/>
<stop offset="1" stop-color="#FD5B5A"/>
</linearGradient>
<clipPath id="clip0_32_1142">
<rect width="16" height="16" fill="white"/>
</clipPath>
</defs>
</svg>
