<svg width="16" height="16" viewBox="0 0 16 16" fill="none" xmlns="http://www.w3.org/2000/svg">
<path d="M11 2C11.4506 2 11.8648 2.15095 12.1992 2.40234C12.0745 2.56916 12 2.7757 12 3V4H11C10.4478 4 10 4.44769 10 5C10 5.55231 10.4478 6 11 6H12V10H11C10.4478 10 10.0001 10.4478 10 11C10.0001 11.5522 10.4478 12 11 12H12V13C12 13.224 12.0748 13.43 12.1992 13.5967C11.8648 13.8483 11.4508 14 11 14H3C1.89543 14 1 13.1046 1 12V4C1 2.89543 1.89543 2 3 2H11Z" fill="#FFF4EB"/>
<path d="M4.25464 4.5H5.26464V7.45H8.73464V4.5H9.7496V11.5H8.73464V8.395H5.26464V11.5H4.25464V4.5Z" fill="#F28C35"/>
<path d="M11 2C11.4506 2 11.8648 2.15095 12.1992 2.40234C12.0745 2.56916 12 2.7757 12 3V4C12 3.44772 11.5523 3 11 3H3C2.44772 3 2 3.44772 2 4V12C2 12.5523 2.44772 13 3 13H11C11.5523 13 12 12.5523 12 12V13C12.0001 13.224 12.0748 13.43 12.1992 13.5967C11.8648 13.8483 11.4508 14 11 14H3C1.89543 14 1 13.1046 1 12V4C1 2.89543 1.89543 2 3 2H11Z" fill="#F28C35"/>
<path d="M13.5 3C13.5 2.72386 13.2761 2.5 13 2.5C12.7239 2.5 12.5 2.72386 12.5 3V4.5H11C10.7239 4.5 10.5 4.72386 10.5 5C10.5 5.27614 10.7239 5.5 11 5.5H12.5V7C12.5 7.27614 12.7239 7.5 13 7.5C13.2761 7.5 13.5 7.27614 13.5 7V5.5H15C15.2761 5.5 15.5 5.27614 15.5 5C15.5 4.72386 15.2761 4.5 15 4.5H13.5V3Z" fill="#F28C35"/>
<path d="M13.5 9C13.5 8.72386 13.2761 8.5 13 8.5C12.7239 8.5 12.5 8.72386 12.5 9V10.5H11C10.7239 10.5 10.5 10.7239 10.5 11C10.5 11.2761 10.7239 11.5 11 11.5H12.5V13C12.5 13.2761 12.7239 13.5 13 13.5C13.2761 13.5 13.5 13.2761 13.5 13V11.5H15C15.2761 11.5 15.5 11.2761 15.5 11C15.5 10.7239 15.2761 10.5 15 10.5H13.5V9Z" fill="#F28C35"/>
</svg>
