<svg width="16" height="16" viewBox="0 0 16 16" fill="none" xmlns="http://www.w3.org/2000/svg">
<g clip-path="url(#clip0_31_232)">
<mask id="mask0_31_232" style="mask-type:luminance" maskUnits="userSpaceOnUse" x="0" y="0" width="16" height="16">
<path d="M16 0H0V16H16V0Z" fill="white"/>
</mask>
<g mask="url(#mask0_31_232)">
<path d="M8 14.5C11.5899 14.5 14.5 11.5899 14.5 8C14.5 4.41015 11.5899 1.5 8 1.5C4.41015 1.5 1.5 4.41015 1.5 8C1.5 11.5899 4.41015 14.5 8 14.5Z" fill="#EDF3FF" stroke="#3574F0"/>
<path fill-rule="evenodd" clip-rule="evenodd" d="M10.6398 6H5.36023L8 7.88555L10.6398 6ZM5 6.97159L7.70938 8.90687C7.88323 9.03104 8.11677 9.03104 8.29062 8.90687L11 6.97159V10H5V6.97159ZM4 10V6C4 5.44772 4.44772 5 5 5H11C11.5523 5 12 5.44772 12 6V10C12 10.5523 11.5523 11 11 11H5C4.44772 11 4 10.5523 4 10Z" fill="#3574F0"/>
</g>
</g>
<defs>
<clipPath id="clip0_31_232">
<rect width="16" height="16" fill="white"/>
</clipPath>
</defs>
</svg>
