<svg width="16" height="16" viewBox="0 0 16 16" fill="none" xmlns="http://www.w3.org/2000/svg">
<path d="M6.22218 8.88888C7.05055 8.88888 7.74659 9.45545 7.94395 10.2222H12.8888C13.1343 10.2222 13.3333 10.4212 13.3333 10.6667C13.3333 10.8849 13.176 11.0663 12.9688 11.1039L12.8888 11.1111L7.94372 11.112C7.74605 11.8783 7.05023 12.4444 6.22218 12.4444C5.39414 12.4444 4.69831 11.8783 4.50064 11.112L3.11107 11.1111C2.86561 11.1111 2.66663 10.9121 2.66663 10.6667C2.66663 10.4484 2.82385 10.267 3.03118 10.2294L3.11107 10.2222H4.50041C4.69777 9.45545 5.39382 8.88888 6.22218 8.88888ZM6.22218 9.77776C5.73127 9.77776 5.33329 10.1757 5.33329 10.6667C5.33329 11.1576 5.73127 11.5555 6.22218 11.5555C6.7131 11.5555 7.11107 11.1576 7.11107 10.6667C7.11107 10.1757 6.7131 9.77776 6.22218 9.77776ZM9.77774 3.55554C10.6061 3.55554 11.3022 4.1221 11.4995 4.88886L12.8888 4.88888C13.1343 4.88888 13.3333 5.08786 13.3333 5.33332C13.3333 5.55151 13.176 5.73297 12.9688 5.7706L12.8888 5.77776L11.4992 5.77867C11.3016 6.54498 10.6058 7.1111 9.77774 7.1111C8.94965 7.1111 8.25387 6.54498 8.0562 5.77867L3.11107 5.77776C2.86561 5.77776 2.66663 5.57878 2.66663 5.33332C2.66663 5.11513 2.82385 4.93367 3.03118 4.89604L3.11107 4.88888L8.05597 4.88886C8.25333 4.1221 8.94938 3.55554 9.77774 3.55554ZM9.77774 4.44443C9.2868 4.44443 8.88885 4.8424 8.88885 5.33332C8.88885 5.82424 9.2868 6.22221 9.77774 6.22221C10.2687 6.22221 10.6666 5.82424 10.6666 5.33332C10.6666 4.8424 10.2687 4.44443 9.77774 4.44443Z" fill="#6C707E"/>
</svg>
