<svg width="16" height="16" viewBox="0 0 16 16" fill="none" xmlns="http://www.w3.org/2000/svg">
<path d="M7.41797 12.1797C7.28825 12.0788 7.18534 11.9474 7.12207 11.7949C7.05012 11.6212 7.03072 11.4295 7.06738 11.2451C7.08664 11.1485 7.1206 11.056 7.16797 10.9707L7.41797 12.1797ZM8.8457 11.001C8.88498 11.0779 8.91557 11.1595 8.93262 11.2451C8.96925 11.4294 8.94983 11.6213 8.87793 11.7949C8.81858 11.9381 8.72387 12.0627 8.60547 12.1611L8.8457 11.001ZM4.06934 10.3789C4.32108 10.5285 4.60546 10.6198 4.90039 10.6426C5.06758 10.6582 5.22717 10.7239 5.35645 10.8311C5.40734 10.8826 5.44858 10.9427 5.47949 11.0078C5.44225 11.0297 5.40442 11.0507 5.36426 11.0674C5.19067 11.1393 4.99874 11.1577 4.81445 11.1211C4.63038 11.0844 4.46091 10.994 4.32812 10.8613C4.19638 10.7296 4.10663 10.5614 4.06934 10.3789ZM11 9.23828C11.1877 9.23869 11.3714 9.29491 11.5273 9.39941C11.6538 9.48425 11.7561 9.59894 11.8291 9.73145H11.1211V10.6426H11.7646V10.748C11.7357 10.7877 11.7049 10.8263 11.6699 10.8613C11.5371 10.9939 11.3676 11.0845 11.1836 11.1211C10.9994 11.1576 10.8073 11.1383 10.6338 11.0664C10.5781 11.0433 10.5264 11.0124 10.4766 10.9795V9.08691C10.4766 8.98239 10.5034 8.88105 10.5508 8.79004L11 9.23828ZM8 2C8.18787 2.00007 8.37211 2.05578 8.52832 2.16016C8.68444 2.26458 8.80604 2.41339 8.87793 2.58691C8.94977 2.76045 8.96919 2.95152 8.93262 3.13574C8.89597 3.32004 8.8047 3.49013 8.67188 3.62305V5.56738L10.0479 4.19238C10.0479 4.00461 10.1038 3.82122 10.208 3.66504C10.3123 3.50893 10.4604 3.38644 10.6338 3.31445C10.8073 3.24256 10.9994 3.22325 11.1836 3.25977C11.3676 3.29638 11.5371 3.387 11.6699 3.51953C11.8028 3.65223 11.8938 3.82173 11.9307 4.00586C11.9675 4.18994 11.9485 4.38112 11.877 4.55469C11.8053 4.72832 11.6833 4.87778 11.5273 4.98242C11.3714 5.08684 11.1876 5.14315 11 5.14355L9.62402 6.51855H11.5684C11.7012 6.38587 11.8706 6.29547 12.0547 6.25879C12.239 6.22221 12.4309 6.24059 12.6045 6.3125C12.7779 6.38447 12.9259 6.50694 13.0303 6.66309C13.1346 6.81936 13.1904 7.00348 13.1904 7.19141C13.1903 7.37916 13.1346 7.56261 13.0303 7.71875C12.9259 7.8749 12.7779 7.99737 12.6045 8.06934C12.5219 8.10355 12.4347 8.12395 12.3467 8.13379C12.3072 8.08293 12.2657 8.03332 12.2197 7.9873C11.9283 7.69583 11.5323 7.53239 11.1201 7.53223C10.7707 7.53223 10.4334 7.65005 10.1611 7.86328H9.62402L9.89258 8.13184C9.68142 8.40337 9.56545 8.73929 9.56543 9.08691V9.70605L9.19141 9.33203L9.56543 7.53223H8.65137L8.00879 10.6416L7.36621 7.53223H6.45801L6.8252 9.31348L5.97266 10.166C5.67362 9.90445 5.29585 9.74997 4.89844 9.73047C4.72884 9.72605 4.56632 9.65885 4.44336 9.54199C4.42089 9.51912 4.40058 9.49361 4.38184 9.46777C4.41063 9.44309 4.44093 9.41964 4.47266 9.39844C4.62876 9.29429 4.81234 9.23835 5 9.23828L5.46191 8.77539C5.46368 8.77853 5.46606 8.78199 5.46777 8.78516C5.51764 8.87763 5.54422 8.98185 5.54492 9.08691H6.45801C6.45755 8.83189 6.39377 8.58031 6.27344 8.35547C6.22895 8.27247 6.17461 8.19518 6.11621 8.12207L6.37598 7.86328H5.85254C5.82373 7.84097 5.79602 7.81718 5.76562 7.79688C5.55332 7.65521 5.30868 7.56707 5.05469 7.54199C4.80074 7.51706 4.5444 7.55583 4.30859 7.65332C4.07259 7.75096 3.86436 7.90527 3.70215 8.10254C3.69313 8.11351 3.68547 8.12552 3.67676 8.13672C3.58092 8.1284 3.48635 8.10649 3.39648 8.06934C3.22287 7.99741 3.07416 7.87499 2.96973 7.71875C2.86544 7.56261 2.80967 7.37917 2.80957 7.19141C2.80957 7.00347 2.86535 6.81937 2.96973 6.66309C3.07416 6.50685 3.22287 6.38442 3.39648 6.3125C3.56998 6.24076 3.76116 6.22218 3.94531 6.25879C4.12942 6.29546 4.29883 6.38589 4.43164 6.51855H6.37598L5 5.14355C4.81234 5.14315 4.62857 5.08686 4.47266 4.98242C4.3166 4.87779 4.19473 4.72835 4.12305 4.55469C4.05154 4.38111 4.03348 4.18995 4.07031 4.00586C4.10722 3.82176 4.1972 3.6522 4.33008 3.51953C4.46305 3.38686 4.63312 3.29629 4.81738 3.25977C5.00154 3.22337 5.1928 3.24254 5.36621 3.31445C5.53967 3.38646 5.68866 3.50885 5.79297 3.66504C5.89704 3.82113 5.95211 4.00477 5.95215 4.19238L7.32812 5.56738V3.62305C7.19522 3.49012 7.10405 3.3201 7.06738 3.13574C7.03078 2.95145 7.05017 2.7605 7.12207 2.58691C7.194 2.41335 7.31548 2.26456 7.47168 2.16016C7.62794 2.05582 7.8121 2 8 2Z" fill="#FFAA00"/>
<path d="M13.9993 11.4305C14.0034 11.6628 13.9612 11.8939 13.8743 12.1093C13.7873 12.3246 13.6576 12.5203 13.4934 12.6844C13.3292 12.8486 13.1335 12.9784 12.9182 13.0653C12.7029 13.1523 12.4717 13.1944 12.2395 13.1903H3.76001C3.5278 13.1944 3.29665 13.1523 3.0813 13.0653C2.86596 12.9783 2.67032 12.8487 2.5061 12.6844C2.3419 12.5202 2.21221 12.3246 2.12524 12.1093C2.03827 11.8939 1.99612 11.6628 2.00024 11.4305V7.19031H13.9993V11.4305ZM6.45728 7.5321L7.55396 12.8407H8.46411L9.5647 7.5321H8.65063L8.00806 10.6415L7.36548 7.5321H6.45728ZM11.1194 7.5321C10.7071 7.53216 10.3113 7.69569 10.0198 7.98718C9.72834 8.27875 9.56473 8.67454 9.5647 9.08679V11.286C9.56483 11.6982 9.72828 12.0941 10.0198 12.3856C10.3113 12.677 10.7072 12.8406 11.1194 12.8407C11.5316 12.8407 11.9274 12.677 12.219 12.3856C12.5105 12.0941 12.6739 11.6982 12.6741 11.286V9.73132H11.1204V10.6425H11.7639V11.285C11.7638 11.4557 11.6961 11.6204 11.5754 11.7411C11.4547 11.8617 11.29 11.9296 11.1194 11.9296C10.9489 11.9294 10.7849 11.8616 10.6643 11.7411C10.5436 11.6204 10.4759 11.4557 10.4758 11.285V9.08679C10.4759 8.91622 10.5438 8.75241 10.6643 8.63171C10.7849 8.51107 10.9488 8.44336 11.1194 8.44324C11.2902 8.44324 11.4547 8.51096 11.5754 8.63171C11.696 8.75241 11.7639 8.91622 11.7639 9.08679H12.6741C12.674 8.67445 12.5105 8.27877 12.219 7.98718C11.9274 7.6956 11.5317 7.53214 11.1194 7.5321ZM5.05396 7.54187C4.79997 7.51697 4.54369 7.55565 4.30786 7.6532C4.07197 7.75084 3.86357 7.90522 3.70142 8.10242C3.53935 8.29962 3.42737 8.53378 3.3772 8.78406C3.32711 9.03432 3.33974 9.29357 3.41333 9.53796C3.48699 9.78239 3.62 10.0054 3.80005 10.1864C4.1087 10.4514 4.49403 10.6112 4.89966 10.6425C5.06703 10.658 5.22631 10.7236 5.35571 10.8309C5.42987 10.9059 5.48469 10.9985 5.51489 11.0995C5.54495 11.2004 5.54942 11.3078 5.52856 11.411C5.50761 11.5142 5.46171 11.611 5.39478 11.6923C5.32773 11.7735 5.24117 11.8376 5.1438 11.8778C5.04646 11.9179 4.93998 11.933 4.83521 11.9227C4.7305 11.9123 4.62981 11.8766 4.54224 11.8182C4.45455 11.7598 4.38219 11.6806 4.33228 11.5878C4.2824 11.4949 4.25648 11.3904 4.2561 11.285H3.34302C3.34308 11.5406 3.40613 11.793 3.52661 12.0184C3.64707 12.2436 3.82113 12.4361 4.03345 12.578C4.24598 12.72 4.49099 12.8078 4.74536 12.8329C4.99963 12.8579 5.25636 12.8193 5.49243 12.7216C5.72853 12.6238 5.93767 12.4688 6.09985 12.2714C6.26181 12.0739 6.37221 11.8392 6.42212 11.5887C6.47202 11.3381 6.46009 11.0785 6.38599 10.8339C6.31182 10.5894 6.17792 10.3671 5.99731 10.1864C5.69458 9.91179 5.30595 9.75027 4.89771 9.73035C4.72799 9.72587 4.56559 9.65893 4.44263 9.54187C4.36889 9.46681 4.3143 9.3742 4.28442 9.27332C4.25466 9.17256 4.25079 9.06572 4.27173 8.96277C4.29277 8.85972 4.33859 8.76265 4.40552 8.68152C4.47242 8.60056 4.55849 8.53712 4.65552 8.49695C4.75279 8.45679 4.85937 8.44084 4.96411 8.45105C5.06877 8.46134 5.16948 8.49735 5.25708 8.55554C5.34469 8.61376 5.417 8.69252 5.46704 8.78503C5.51704 8.8776 5.54348 8.98159 5.54419 9.08679H6.45728C6.45682 8.83163 6.39316 8.58028 6.27271 8.35535C6.15207 8.1303 5.97727 7.9385 5.76489 7.79675C5.55244 7.655 5.30813 7.56688 5.05396 7.54187Z" fill="black"/>
</svg>
