<svg width="16" height="16" viewBox="0 0 16 16" fill="none" xmlns="http://www.w3.org/2000/svg">
<path d="M12 2C13.1046 2 14 2.89543 14 4V8.76367L13.6973 8.81445L13.4473 8.14844C13.3008 7.75841 12.9281 7.50013 12.5117 7.5H11.2041C10.7875 7.50012 10.414 7.75834 10.2676 8.14844L10.0186 8.81445L9.31738 8.69727C8.90634 8.629 8.49552 8.82278 8.28711 9.18359L7.63379 10.3154C7.42545 10.6763 7.46277 11.1293 7.72754 11.4512L8.17871 12L7.72754 12.5488C7.46279 12.8707 7.42542 13.3237 7.63379 13.6846L7.81641 14H4C2.89543 14 2 13.1046 2 12V4C2 2.89543 2.89543 2 4 2H12Z" fill="#3574F0"/>
<path d="M3.13501 6H7.87171V7H6V12H5V7H3.13501V6Z" fill="white"/>
<path d="M10.6748 5.90039C11.0708 5.90039 11.4227 5.97286 11.7305 6.11816C12.0412 6.26351 12.2831 6.46624 12.457 6.72559C12.615 6.96135 12.7021 7.22741 12.7188 7.52441C12.6514 7.5101 12.5825 7.50002 12.5117 7.5H11.7012C11.6856 7.38304 11.6458 7.276 11.5811 7.17871C11.4956 7.04761 11.3756 6.94625 11.2217 6.875C11.0678 6.8038 10.8898 6.76758 10.6875 6.76758C10.4853 6.76759 10.3071 6.80179 10.1533 6.87012C9.99947 6.93852 9.87945 7.03573 9.79395 7.16113C9.70848 7.28651 9.66602 7.43239 9.66602 7.59766C9.66611 7.79127 9.72919 7.95917 9.85449 8.10156C9.94828 8.20594 10.0634 8.28074 10.2002 8.32617L10.0186 8.81445L9.31738 8.69727C9.21581 8.6804 9.11412 8.67868 9.01562 8.69238C8.94208 8.60308 8.87758 8.50669 8.82422 8.40137C8.71023 8.16769 8.65235 7.91217 8.65234 7.63574C8.65234 7.30514 8.73818 7.00829 8.90918 6.74609C9.08301 6.48117 9.32415 6.27511 9.63184 6.12695C9.93963 5.9759 10.2872 5.90039 10.6748 5.90039Z" fill="white"/>
<path d="M11.8579 13C12.4102 13 12.8579 12.5523 12.8579 12C12.8579 11.4477 12.4102 11 11.8579 11C11.3056 11 10.8579 11.4477 10.8579 12C10.8579 12.5523 11.3056 13 11.8579 13Z" fill="#6C707E"/>
<path fill-rule="evenodd" clip-rule="evenodd" d="M12.9795 15.6756C12.9064 15.8707 12.7198 16 12.5114 16H11.2044C10.996 16 10.8094 15.8707 10.7362 15.6756L10.4867 15.0102C10.4028 14.7865 10.1723 14.6534 9.93647 14.6926L9.23556 14.8092C9.02996 14.8434 8.82472 14.7464 8.72051 14.5659L8.06701 13.4341C7.96279 13.2536 7.98148 13.0273 8.1139 12.8664L8.56532 12.3177C8.71716 12.1331 8.71716 11.8669 8.56532 11.6824L8.11388 11.1336C7.98146 10.9727 7.96278 10.7464 8.06699 10.5659L8.72049 9.43405C8.8247 9.25355 9.02994 9.15663 9.23554 9.19083L9.93647 9.30742C10.1723 9.34664 10.4028 9.21353 10.4867 8.98976L10.7362 8.32444C10.8094 8.12929 10.996 8 11.2044 8H12.5114C12.7198 8 12.9064 8.12929 12.9795 8.32444L13.229 8.98976C13.313 9.21353 13.5435 9.34664 13.7792 9.30742L14.4802 9.19083C14.6858 9.15663 14.891 9.25355 14.9952 9.43405L15.6487 10.5659C15.7529 10.7464 15.7343 10.9727 15.6018 11.1336L15.1504 11.6824C14.9986 11.8669 14.9986 12.1331 15.1504 12.3177L15.6018 12.8664C15.7342 13.0273 15.7529 13.2536 15.6487 13.4341L14.9952 14.5659C14.891 14.7464 14.6858 14.8434 14.4802 14.8092L13.7792 14.6926C13.5435 14.6534 13.313 14.7865 13.229 15.0102L12.9795 15.6756ZM11.5509 15H12.1649L12.2927 14.6591C12.5445 13.9878 13.2361 13.5885 13.9433 13.7061L14.3024 13.7659L14.6094 13.2341L14.3782 12.953C13.9226 12.3993 13.9226 11.6007 14.3782 11.047L14.6095 10.7659L14.3025 10.2341L13.9433 10.2939C13.2361 10.4115 12.5445 10.0122 12.2927 9.34088L12.1649 9H11.5509L11.423 9.34088C11.1713 10.0122 10.4797 10.4115 9.7724 10.2939L9.41326 10.2341L9.10626 10.7659L9.33757 11.047C9.79308 11.6007 9.79308 12.3993 9.33757 12.953L9.10628 13.2341L9.41328 13.7659L9.7724 13.7061C10.4797 13.5885 11.1713 13.9878 11.423 14.6591L11.5509 15Z" fill="#6C707E"/>
<path fill-rule="evenodd" clip-rule="evenodd" d="M12.168 15H11.554L11.4262 14.6591C11.1744 13.9878 10.4828 13.5885 9.77551 13.7061L9.4164 13.7659L9.1094 13.2341L9.34068 12.953C9.79618 12.3993 9.79618 11.6007 9.34068 11.047L9.10938 10.7659L9.41638 10.2341L9.77551 10.2939C10.4828 10.4115 11.1744 10.0122 11.4262 9.34088L11.554 9H12.168L12.2958 9.34088C12.5476 10.0122 13.2392 10.4115 13.9464 10.2939L14.3056 10.2341L14.6126 10.7659L14.3813 11.047C13.9258 11.6007 13.9258 12.3993 14.3813 12.953L14.6126 13.2341L14.3056 13.7659L13.9464 13.7061C13.2392 13.5885 12.5476 13.9878 12.2958 14.6591L12.168 15ZM12.861 12C12.861 12.5523 12.4133 13 11.861 13C11.3088 13 10.861 12.5523 10.861 12C10.861 11.4477 11.3088 11 11.861 11C12.4133 11 12.861 11.4477 12.861 12Z" fill="#EBECF0"/>
</svg>
